<svg width="42mm" height="42mm" fill-rule="evenodd" stroke-linejoin="round" stroke-width="28.222" preserveAspectRatio="xMidYMid" version="1.2" viewBox="0 0 6190.9 6190.9" xmlns="http://www.w3.org/2000/svg" xmlns:ooo="http://xml.openoffice.org/svg/export"><defs class="ClipPathGroup"><clipPath id="presentation_clip_path"><rect width="6e3" height="6e3"/></clipPath></defs><defs class="TextShapeIndex"></defs><defs class="EmbeddedBulletChars"></defs><g stroke-width="439.82"><path d="m5268.9 4528.7-485.95 471.9-2.2472-1191.6 493.81-474.15z" fill="#e00000"/><path d="m4763.1 5046.3-474.71 474.15-10.112-1206.2 480.33-475.27z" fill="#e00000"/><path d="m4270 5551.1-561.23 551.68-5.6179-1212.9 554.49-546.06z" fill="#fd8000"/><path d="m4261.8 4325.2-560.1 557.3-8.9886-1192.7 566.85-552.8z" fill="#fd8000"/></g><g fill="#e00000"><path d="m4760.9 3826-476.96 477.52v-1193.8l473.59-461.79z" stroke-width="439.82"/><path d="m5275.3 3324.4-491.57 473.03-7.8651-1189.3 498.31-473.03z" stroke-width="439.82"/><path d="m5276.4 2134.3-490.44 458.42-10.112-1171.4 481.45-470.78z" stroke-width="439.82"/><path d="m4767.2 2629.6-481.45 457.3-3.3707-1178.1 478.08-470.78z" stroke-width="439.82"/></g><path d="m4271.4 3124.6-574.71 548.31-3.3707-1180.4 565.72-550.55z" fill="#fd8000" stroke-width="439.82"/><g fill="#fff"><path d="m3701.3 2488-1220.3 7.9449 576.8-572.03 1191.7 9.5338z" stroke-width="439.82"/><path d="m2457.9 2498.5-1159.2-12.11 545.02-552.97 1194.9-6.3559z" stroke-width="439.82"/><path d="m1266.9 2480.1-1177.4 1.589 552.97-559.32 1175.8 11.123z" stroke-width="439.82"/></g><g fill="#f3f300" stroke-width="439.82"><path d="m3057.7 1920.7-1201.3-1.589 506.89-498.94 1174.3 14.301z"/><path d="m1856.5 1919.2-1196.5-15.89 491-481.46 1191.7 7.9449z"/><path d="m4271.9 1920.5-1198.3-6.144 463.98-479.87 1234.3-13.983z"/><path d="m4771.9 1420.5-1210.5-0.3177 494.17-503.71 1194.9 4.7669z"/><path d="m3561.4 1420.2-1172.7-6.356 465.57-495.76 1201.3-1.589z"/><path d="m2363.3 1420.2-1191.4 0.3177 500-500 1182.4-2.4365z"/></g><g fill="#0000f7"><path d="m3653.6 6112.5-1172.7-7.9449-3.1779-1171.1 1180.2-1.9237z" stroke-width="439.82"/><g stroke-width="439.82"><path d="m2453.9 6098.2-1164.7-4.767 1.589-1164.7 1166.3-1.589z"/><path d="m2457.1 4901.7-1167.9-3.1779-1.589-1155.2 1164.7-11.123z"/><path d="m3647.2 4895.3-1156.8-1.589v-1160l1167.5-3.2415z"/><path d="m3652 3695.6-1164.7 1.589v-1166.3l1170.6-1.3813z"/><path d="m2466.6 3711.5-1183.8-1.589 1.589-1172.7 1187.5-16.737z"/><path d="m1264.5 3706.8-1178.1-13.483 5.6808-1150.3 1179.8-22.472z"/><path d="m1262.2 4895.3-1182.3-1.8009 6.4618-1158.2 1164.7 3.178z"/><path d="m1252.6 6090.2h-1167.9l4.767-1153.6 1167.9-4.767z"/></g></g><g transform="translate(0 -2023.7)"><g class="Master_Slide"></g></g><g class="SlideGroup" transform="translate(-28.083 220.53)"><g class="Slide" clip-path="url(#presentation_clip_path)"><g class="Page"><g class="Group"><g class="com.sun.star.drawing.LineShape"><g fill="none"><rect class="BoundingBox" x="47" y="2247" width="107" height="3707"/><path d="m100 5900v-3600" stroke="#000" stroke-linecap="round" stroke-linejoin="miter" stroke-width="106"/></g></g><g class="com.sun.star.drawing.LineShape"><g fill="none"><rect class="BoundingBox" x="47" y="5847" width="3707" height="107"/><path d="m100 5900h3600" stroke="#000" stroke-linecap="round" stroke-linejoin="miter" stroke-width="106"/></g></g><g class="com.sun.star.drawing.LineShape"><g fill="none"><rect class="BoundingBox" x="3647" y="2247" width="107" height="3707"/><path d="m3700 5900v-3600" stroke="#000" stroke-linecap="round" stroke-linejoin="miter" stroke-width="106"/></g></g><g class="com.sun.star.drawing.LineShape"><g fill="none"><rect class="BoundingBox" x="47" y="2247" width="3707" height="107"/><path d="m100 2300h3600" stroke="#000" stroke-linecap="round" stroke-linejoin="miter" stroke-width="106"/></g></g><g class="com.sun.star.drawing.LineShape"><g fill="none"><rect class="BoundingBox" x="1247" y="2247" width="107" height="3707"/><path d="m1300 5900v-3600" stroke="#000" stroke-linecap="round" stroke-linejoin="miter" stroke-width="106"/></g></g><g class="com.sun.star.drawing.LineShape"><g fill="none"><rect class="BoundingBox" x="2447" y="2247" width="107" height="3707"/><path d="m2500 5900v-3600" stroke="#000" stroke-linecap="round" stroke-linejoin="miter" stroke-width="106"/></g></g><g class="com.sun.star.drawing.LineShape"><g fill="none"><rect class="BoundingBox" x="47" y="3447" width="3707" height="107"/><path d="m100 3500h3600" stroke="#000" stroke-linecap="round" stroke-linejoin="miter" stroke-width="106"/></g></g><g class="com.sun.star.drawing.LineShape"><g fill="none"><rect class="BoundingBox" x="47" y="4647" width="3707" height="107"/><path d="m100 4700h3600" stroke="#000" stroke-linecap="round" stroke-linejoin="miter" stroke-width="106"/></g></g><g class="com.sun.star.drawing.LineShape"><g fill="none"><rect class="BoundingBox" x="673" y="1673" width="3655" height="55"/><path d="m700 1700h3600" stroke="#000" stroke-linecap="round" stroke-linejoin="miter" stroke-width="53"/></g></g><g class="com.sun.star.drawing.LineShape"><g fill="none"><rect class="BoundingBox" x="1173" y="1173" width="3655" height="55"/><path d="m1200 1200h3600" stroke="#000" stroke-linecap="round" stroke-linejoin="miter" stroke-width="53"/></g></g><g class="com.sun.star.drawing.LineShape"><g fill="none"><rect class="BoundingBox" x="1673" y="673" width="3655" height="55"/><path d="m1700 700h3600" stroke="#000" stroke-linecap="round" stroke-linejoin="miter" stroke-width="53"/></g></g><g class="com.sun.star.drawing.LineShape"><g fill="none"><rect class="BoundingBox" x="4273" y="1673" width="55" height="3655"/><path d="m4300.8 5320.7-0.7945-3620.7" stroke="#000" stroke-linecap="round" stroke-linejoin="miter" stroke-width="53"/></g></g><g class="com.sun.star.drawing.LineShape"><g fill="none"><rect class="BoundingBox" x="4773" y="1173" width="55" height="3655"/><path d="m4800 4800v-3600" stroke="#000" stroke-linecap="round" stroke-linejoin="miter" stroke-width="53"/></g></g><g class="com.sun.star.drawing.LineShape"><g fill="none"><rect class="BoundingBox" x="5273" y="673" width="55" height="3655"/><path d="m5300 4300v-3600" stroke="#000" stroke-linecap="round" stroke-linejoin="miter" stroke-width="53"/></g></g><g class="com.sun.star.drawing.LineShape"><g fill="none"><rect class="BoundingBox" x="59" y="673" width="1669" height="1633"/><path d="m86 2278 1614-1578" stroke="#000" stroke-linecap="round" stroke-linejoin="miter" stroke-width="53"/></g></g><g class="com.sun.star.drawing.LineShape"><g fill="none"><rect class="BoundingBox" x="1259" y="673" width="1669" height="1633"/><path d="m1286 2278 1614-1578" stroke="#000" stroke-linecap="round" stroke-linejoin="miter" stroke-width="53"/></g></g><g class="com.sun.star.drawing.LineShape"><g fill="none"><rect class="BoundingBox" x="2459" y="673" width="1669" height="1633"/><path d="m2486 2278 1614-1578" stroke="#000" stroke-linecap="round" stroke-linejoin="miter" stroke-width="53"/></g></g><g class="com.sun.star.drawing.LineShape"><g fill="none"><rect class="BoundingBox" x="3659" y="673" width="1669" height="1664"/><path d="m3686 2309 1614-1609" stroke="#000" stroke-linecap="round" stroke-linejoin="miter" stroke-width="53"/></g></g><g class="com.sun.star.drawing.LineShape"><g fill="none"><rect class="BoundingBox" x="3659" y="1874" width="1669" height="1664"/><path d="m3686 3510 1614-1609" stroke="#000" stroke-linecap="round" stroke-linejoin="miter" stroke-width="53"/></g></g><g class="com.sun.star.drawing.LineShape"><g fill="none"><rect class="BoundingBox" x="3659" y="3075" width="1669" height="1664"/><path d="m3686 4711 1614-1609" stroke="#000" stroke-linecap="round" stroke-linejoin="miter" stroke-width="53"/></g></g><g class="com.sun.star.drawing.LineShape"><g fill="none"><rect class="BoundingBox" x="3694" y="4276" width="1634" height="1670"/><path d="m3721 5918 1579-1615" stroke="#000" stroke-linecap="round" stroke-linejoin="miter" stroke-width="53"/></g></g></g></g></g></g><g transform="translate(12431 -5326.9)" fill-rule="evenodd" stroke-linejoin="round" stroke-width="28.222"><g transform="translate(0 -2023.7)"><g class="Master_Slide"></g></g><text x="-7864.6665" y="11445.998" fill="#aa00d4" font-family="FontAwesome" font-size="1560px" letter-spacing="0px" stroke-width="1100.7" word-spacing="0px" style="line-height:1.25" xml:space="preserve"><tspan x="-7864.6665" y="11445.998" fill="#aa00d4" font-family="'Liberation Sans'" font-size="1144px" font-weight="bold" stroke-width="1100.7">2×</tspan></text></g><g transform="matrix(.44702 0 0 .47361 -2562.6 -4546.2)" fill-rule="evenodd" stroke-linejoin="round" stroke-width="28.222"><rect class="BoundingBox" x="5264" y="15364" width="8398" height="6274" fill="none"/><path d="m11882 18448-7-124-14-125-23-123-30-122-37-121-45-119-52-117-59-115-66-111-73-109-80-106-86-102-92-98-98-94-104-89-109-85-114-80-120-75-123-70-128-64-131-59-135-53-138-47-141-41-143-35-144-29-147-22-148-16-148-10-149-3-1-684 191 4 191 12 189 21 188 28 187 37 183 45 181 53 177 60 173 68 168 76 164 82 159 90 153 96 146 103 140 109 133 115 126 120 119 126 110 131 102 135 94 140 85 143 76 147 67 151 57 152 48 155 39 157 28 159 19 159 9 160 926-17-1305 1141-1362-1093zm-6582-3048zm7401 6201z" fill="#aa00d4"/><path d="m11882 18448-7-124-14-125-23-123-30-122-37-121-45-119-52-117-59-115-66-111-73-109-80-106-86-102-92-98-98-94-104-89-109-85-114-80-120-75-123-70-128-64-131-59-135-53-138-47-141-41-143-35-144-29-147-22-148-16-148-10-149-3-1-684 191 4 191 12 189 21 188 28 187 37 183 45 181 53 177 60 173 68 168 76 164 82 159 90 153 96 146 103 140 109 133 115 126 120 119 126 110 131 102 135 94 140 85 143 76 147 67 151 57 152 48 155 39 157 28 159 19 159 9 160 926-17-1305 1141-1362-1093z" fill="none" stroke="#000" stroke-linejoin="round" stroke-width="71"/></g></svg>
