<svg width="42mm" height="42mm" fill-rule="evenodd" stroke-linejoin="round" stroke-width="28.222" preserveAspectRatio="xMidYMid" version="1.2" viewBox="0 0 6190.9 6190.9" xmlns="http://www.w3.org/2000/svg" xmlns:ooo="http://xml.openoffice.org/svg/export"><defs class="ClipPathGroup"><clipPath id="presentation_clip_path"><rect width="6e3" height="6e3"/></clipPath></defs><defs class="TextShapeIndex"></defs><defs class="EmbeddedBulletChars"></defs><g fill="#e00000" stroke-width="439.82"><path d="m5264.7 4530.5-485.95 471.9-2.2472-1191.6 493.81-474.15z"/><path d="m4758.8 5048.1-474.71 474.15-10.112-1206.2 480.33-475.27z"/><path d="m4265.8 5552.9-561.23 551.68-5.6179-1212.9 554.49-546.06z"/><path d="m4257.6 4327-560.1 557.3-8.9886-1192.7 566.85-552.8z"/><path d="m4756.6 3827.8-476.96 477.52v-1193.8l473.59-461.79z"/><path d="m5271.1 3326.2-491.57 473.03-7.8651-1189.3 498.31-473.03z"/></g><g fill="#0000f7"><path d="m5272.1 2136.1-490.44 458.42-10.112-1171.4 481.45-470.78z" stroke-width="439.82"/><path d="m4762.9 2631.4-481.45 457.3-3.3707-1178.1 478.08-470.78z" stroke-width="439.82"/><path d="m4267.1 3126.4-574.71 548.31-3.3707-1180.4 565.72-550.55z" stroke-width="439.82"/></g><g fill="#f3f300"><path d="m3697 2489.8-1220.3 7.9449 576.8-572.03 1191.7 9.5338z" stroke-width="439.82"/><g stroke-width="439.82"><path d="m2453.7 2500.4-1159.2-12.11 545.02-552.97 1194.9-6.3559z"/><path d="m1262.7 2481.9-1177.4 1.589 552.97-559.32 1175.8 11.123z"/><path d="m3053.5 1922.6-1201.3-1.589 506.89-498.94 1174.3 14.301z"/><path d="m1852.2 1921-1196.5-15.89 491-481.46 1191.7 7.9449z"/><path d="m4267.7 1922.4-1198.3-6.144 463.98-479.87 1234.3-13.983z"/><path d="m4767.7 1422.4-1210.5-0.3177 494.17-503.71 1194.9 4.7669z"/><path d="m3557.2 1422-1172.7-6.356 465.57-495.76 1201.3-1.589z"/><path d="m2359.1 1422-1191.4 0.3177 500-500 1182.4-2.4365z"/></g></g><g fill="#0000f7"><path d="m3649.3 6114.3-1172.7-7.9449-3.1779-1171.1 1180.2-1.9237z" stroke-width="439.82"/><g stroke-width="439.82"><path d="m2449.6 6100-1164.7-4.767 1.589-1164.7 1166.3-1.589z"/><path d="m2452.8 4903.5-1167.9-3.1779-1.589-1155.2 1164.7-11.123z"/><path d="m3643 4897.1-1156.8-1.589v-1160l1167.5-3.2415z"/></g></g><g fill="#fd8000" stroke-width="439.82"><path d="m3647.7 3697.5-1164.7 1.589v-1166.3l1170.6-1.3813z"/><path d="m2462.4 3713.4-1183.8-1.589 1.589-1172.7 1187.5-16.737z"/><path d="m1260.3 3708.6-1178.1-13.483 5.6808-1150.3 1179.8-22.472z"/></g><path d="m1257.9 4897.1-1182.3-1.8009 6.4618-1158.2 1164.7 3.178z" fill="#0000f7" stroke-width="439.82"/><path d="m1248.4 6092.1h-1167.9l4.767-1153.6 1167.9-4.767z" fill="#0000f7" stroke-width="439.82"/><g transform="translate(0 -2023.7)"><g class="Master_Slide"></g></g><g class="SlideGroup" transform="translate(-32.348 222.36)"><g class="Slide" clip-path="url(#presentation_clip_path)"><g class="Page"><g class="Group"><g class="com.sun.star.drawing.LineShape"><g fill="none"><rect class="BoundingBox" x="47" y="2247" width="107" height="3707"/><path d="m100 5900v-3600" stroke="#000" stroke-linecap="round" stroke-linejoin="miter" stroke-width="106"/></g></g><g class="com.sun.star.drawing.LineShape"><g fill="none"><rect class="BoundingBox" x="47" y="5847" width="3707" height="107"/><path d="m100 5900h3600" stroke="#000" stroke-linecap="round" stroke-linejoin="miter" stroke-width="106"/></g></g><g class="com.sun.star.drawing.LineShape"><g fill="none"><rect class="BoundingBox" x="3647" y="2247" width="107" height="3707"/><path d="m3700 5900v-3600" stroke="#000" stroke-linecap="round" stroke-linejoin="miter" stroke-width="106"/></g></g><g class="com.sun.star.drawing.LineShape"><g fill="none"><rect class="BoundingBox" x="47" y="2247" width="3707" height="107"/><path d="m100 2300h3600" stroke="#000" stroke-linecap="round" stroke-linejoin="miter" stroke-width="106"/></g></g><g class="com.sun.star.drawing.LineShape"><g fill="none"><rect class="BoundingBox" x="1247" y="2247" width="107" height="3707"/><path d="m1300 5900v-3600" stroke="#000" stroke-linecap="round" stroke-linejoin="miter" stroke-width="106"/></g></g><g class="com.sun.star.drawing.LineShape"><g fill="none"><rect class="BoundingBox" x="2447" y="2247" width="107" height="3707"/><path d="m2500 5900v-3600" stroke="#000" stroke-linecap="round" stroke-linejoin="miter" stroke-width="106"/></g></g><g class="com.sun.star.drawing.LineShape"><g fill="none"><rect class="BoundingBox" x="47" y="3447" width="3707" height="107"/><path d="m100 3500h3600" stroke="#000" stroke-linecap="round" stroke-linejoin="miter" stroke-width="106"/></g></g><g class="com.sun.star.drawing.LineShape"><g fill="none"><rect class="BoundingBox" x="47" y="4647" width="3707" height="107"/><path d="m100 4700h3600" stroke="#000" stroke-linecap="round" stroke-linejoin="miter" stroke-width="106"/></g></g><g class="com.sun.star.drawing.LineShape"><g fill="none"><rect class="BoundingBox" x="673" y="1673" width="3655" height="55"/><path d="m700 1700h3600" stroke="#000" stroke-linecap="round" stroke-linejoin="miter" stroke-width="53"/></g></g><g class="com.sun.star.drawing.LineShape"><g fill="none"><rect class="BoundingBox" x="1173" y="1173" width="3655" height="55"/><path d="m1200 1200h3600" stroke="#000" stroke-linecap="round" stroke-linejoin="miter" stroke-width="53"/></g></g><g class="com.sun.star.drawing.LineShape"><g fill="none"><rect class="BoundingBox" x="1673" y="673" width="3655" height="55"/><path d="m1700 700h3600" stroke="#000" stroke-linecap="round" stroke-linejoin="miter" stroke-width="53"/></g></g><g class="com.sun.star.drawing.LineShape"><g fill="none"><rect class="BoundingBox" x="4273" y="1673" width="55" height="3655"/><path d="m4300.8 5320.7-0.7945-3620.7" stroke="#000" stroke-linecap="round" stroke-linejoin="miter" stroke-width="53"/></g></g><g class="com.sun.star.drawing.LineShape"><g fill="none"><rect class="BoundingBox" x="4773" y="1173" width="55" height="3655"/><path d="m4800 4800v-3600" stroke="#000" stroke-linecap="round" stroke-linejoin="miter" stroke-width="53"/></g></g><g class="com.sun.star.drawing.LineShape"><g fill="none"><rect class="BoundingBox" x="5273" y="673" width="55" height="3655"/><path d="m5300 4300v-3600" stroke="#000" stroke-linecap="round" stroke-linejoin="miter" stroke-width="53"/></g></g><g class="com.sun.star.drawing.LineShape"><g fill="none"><rect class="BoundingBox" x="59" y="673" width="1669" height="1633"/><path d="m86 2278 1614-1578" stroke="#000" stroke-linecap="round" stroke-linejoin="miter" stroke-width="53"/></g></g><g class="com.sun.star.drawing.LineShape"><g fill="none"><rect class="BoundingBox" x="1259" y="673" width="1669" height="1633"/><path d="m1286 2278 1614-1578" stroke="#000" stroke-linecap="round" stroke-linejoin="miter" stroke-width="53"/></g></g><g class="com.sun.star.drawing.LineShape"><g fill="none"><rect class="BoundingBox" x="2459" y="673" width="1669" height="1633"/><path d="m2486 2278 1614-1578" stroke="#000" stroke-linecap="round" stroke-linejoin="miter" stroke-width="53"/></g></g><g class="com.sun.star.drawing.LineShape"><g fill="none"><rect class="BoundingBox" x="3659" y="673" width="1669" height="1664"/><path d="m3686 2309 1614-1609" stroke="#000" stroke-linecap="round" stroke-linejoin="miter" stroke-width="53"/></g></g><g class="com.sun.star.drawing.LineShape"><g fill="none"><rect class="BoundingBox" x="3659" y="1874" width="1669" height="1664"/><path d="m3686 3510 1614-1609" stroke="#000" stroke-linecap="round" stroke-linejoin="miter" stroke-width="53"/></g></g><g class="com.sun.star.drawing.LineShape"><g fill="none"><rect class="BoundingBox" x="3659" y="3075" width="1669" height="1664"/><path d="m3686 4711 1614-1609" stroke="#000" stroke-linecap="round" stroke-linejoin="miter" stroke-width="53"/></g></g><g class="com.sun.star.drawing.LineShape"><g fill="none"><rect class="BoundingBox" x="3694" y="4276" width="1634" height="1670"/><path d="m3721 5918 1579-1615" stroke="#000" stroke-linecap="round" stroke-linejoin="miter" stroke-width="53"/></g></g></g></g></g></g><g class="com.sun.star.drawing.CustomShape" transform="matrix(.48971 0 0 .43351 -1834.5 2309)"><rect class="BoundingBox" x="5064" y="964" width="5374" height="1974" fill="none"/><path d="m5100 1625h4257v-625l1044 950-1044 951v-625h-4257zm0-625zm5301 1901z" fill="#aa00d4"/><path d="m5100 1625h4257v-625l1044 950-1044 951v-625h-4257z" fill="none" stroke="#000" stroke-linejoin="round" stroke-width="71"/></g></svg>
