<svg xmlns="http://www.w3.org/2000/svg" xmlns:xlink="http://www.w3.org/1999/xlink" version="1.1" id="Layer_1" x="0px" y="0px" viewBox="0 0 512 512" style="enable-background:new 0 0 512 512;" xml:space="preserve">
<path style="fill: limegreen;" d="M342.069,32.353l-0.353,0.883l-87.04,33.192l-87.128-33.192L252.91,0.839  c1.995-0.706,4.184-0.706,6.179,0L342.069,32.353z"/>
<polygon style="fill: darkorange;" points="254.676,66.428 173.462,97.412 86.334,64.044 167.548,33.236 "/>
<polygon style="fill: white;" points="422.93,130.604 341.186,161.589 254.676,128.486 335.801,97.412 "/>
<polygon style="fill: #F4DB05;" points="512,96.794 423.371,130.516 423.018,130.604 422.93,130.604 335.801,97.412 422.93,64.044   423.283,63.161 423.371,63.161 "/>
<polygon style="fill: blue;" points="423.283,63.161 422.93,64.044 335.801,97.412 254.676,66.428 341.716,33.236 342.069,32.353   "/>
<polygon style="fill: darkorange;" points="256,406.201 256,511.691 176.552,481.589 176.552,375.835 "/>
<polygon style="fill: #C03A2B;" points="256,300.27 256,406.201 176.552,375.835 176.552,269.903 "/>
<polygon style="fill: limegreen;" points="256,193.898 256,300.27 176.552,269.903 176.552,163.796 253.263,192.839 "/>
<polygon style="fill: limegreen;" points="176.552,375.835 176.552,481.589 88.276,448.044 88.276,342.025 "/>
<polygon style="fill: blue;" points="88.276,342.025 88.276,448.044 0,414.588 0,308.657 1.148,308.657 "/>
<polygon style="fill: darkorange;" points="88.276,236.094 88.276,342.025 1.148,308.657 0,308.657 0,202.726 1.148,202.726 "/>
<polygon style="fill: #C03A2B;" points="88.894,130.516 88.276,132.105 88.276,236.094 1.148,202.726 0,202.726 0,96.794   87.746,130.074 "/>
<polygon style="fill: limegreen;" points="512,96.794 512,202.726 510.852,202.726 423.724,236.094 423.724,131.487 423.018,130.604   423.371,130.516 "/>
<polygon style="fill: blue;" points="423.724,131.487 423.724,236.094 335.448,269.903 335.448,167.415 334.212,164.237   341.186,161.589 422.93,130.604 423.018,130.604 "/>
<polygon style="fill: #F4DB05;" points="335.448,167.415 335.448,269.903 256,300.27 256,193.898 258.737,192.839 334.212,164.237   "/>
<polygon style="fill: #F4DB05;" points="512,202.726 512,308.657 510.852,308.657 423.724,342.025 423.724,236.094 510.852,202.726   "/>
<polygon style="fill: #C03A2B;" points="512,308.657 512,414.588 423.724,448.044 423.724,342.025 510.852,308.657 "/>
<polygon style="fill: blue;" points="423.724,342.025 423.724,448.044 335.448,481.589 335.448,375.835 "/>
<polygon style="fill: #F4DB05;" points="335.448,375.835 335.448,481.589 256,511.691 256,406.201 "/>
<polygon style="fill: blue;" points="173.462,97.412 87.746,130.074 0,96.794 86.246,64.044 86.334,64.044 "/>
<polygon style="fill: white;" points="335.801,97.412 254.676,128.486 173.462,97.412 254.676,66.428 "/>
<polygon style="fill: white;" points="254.676,128.486 169.401,161.059 88.894,130.516 87.746,130.074 173.462,97.412 "/>
<polygon style="fill: #C03A2B;" points="176.552,163.796 176.552,269.903 88.276,236.094 88.276,132.105 88.894,130.516   169.401,161.059 "/>
<polygon style="fill: #C03A2B;" points="176.552,269.903 176.552,375.835 88.276,342.025 88.276,236.094 "/>
<path style="fill: #C03A2B;" d="M341.186,161.589l-6.974,2.648l-75.476,28.601c-1.774,0.618-3.699,0.618-5.473,0l-76.712-29.043  l-7.15-2.737l85.274-32.574L341.186,161.589z"/>
<polygon style="fill: limegreen;" points="335.448,269.903 335.448,375.835 256,406.201 256,300.27 "/>
<polygon style="fill: blue;" points="423.724,236.094 423.724,342.025 335.448,375.835 335.448,269.903 "/>
</svg>
