<?xml version="1.0" standalone="no"?>
<!DOCTYPE svg PUBLIC "-//W3C//DTD SVG 20010904//EN" "http://www.w3.org/TR/2001/REC-SVG-20010904/DTD/svg10.dtd">
<!-- Created using Karbon, part of Calligra: http://www.calligra.org/karbon -->
<svg xmlns="http://www.w3.org/2000/svg" xmlns:xlink="http://www.w3.org/1999/xlink" width="395" height="330">
<defs/>
<g id="layer0">
  <path id="shape0" transform="translate(230.81, 0.582657)" fill="#b9b9b9" d="M95.398 137.235C82.456 137.234 70.7884 129.438 65.8352 117.482C60.882 105.525 63.6186 91.7619 72.769 82.6095L112.369 43.0095C118.615 36.7615 118.615 26.6335 112.369 20.3855C106.038 14.3384 96.071 14.3384 89.74 20.3855L11.314 98.8065L0 87.4955L78.426 9.0705C90.511 -3.0235 111.594 -3.0235 123.679 9.0705C136.173 21.5667 136.173 41.8243 123.679 54.3205L84.079 93.9205C77.8322 100.169 77.8322 110.297 84.079 116.545C90.4104 122.592 100.377 122.592 106.708 116.545L151.997 71.2555L163.309 82.5685L118.02 127.857C112.035 133.88 103.889 137.257 95.398 137.235Z"/>
  <path id="shape1" transform="translate(138.497, 77.8034)" fill="#de4c3b" d="M111.557 36.2838L33.464 114.484L0 80.5518L77.616 2.34279C80.7401 -0.780931 85.8049 -0.780931 88.929 2.34279L111.557 24.9748C114.678 28.0984 114.678 33.1601 111.557 36.2838Z"/>
  <path id="shape2" transform="matrix(0.707 -0.707 0.707 0.707 176.467 153.696)" fill="#bb4033" d="M0 0L15.998 0L15.998 23.997L0 23.997Z"/>
  <path id="shape3" transform="matrix(0.707 -0.707 0.707 0.707 199.105 131.114)" fill="#bb4033" d="M0 0L15.998 0L15.998 24L0 24Z"/>
  <path id="shape4" transform="translate(23.7799, 179.584)" fill="#cdcdcd" d="M16.97 87.238L0 126.836L39.598 109.866L126.937 22.526L104.208 0Z"/>
  <path id="shape5" transform="translate(4.60056, 286.618)" fill="#b1b1b1" d="M39.8653 10.426L13.5213 36.769C10.3777 39.7671 5.41602 39.7087 2.3439 36.6374C-0.728218 33.5661 -0.787963 28.6044 2.20931 25.46L27.6653 0Z"/>
  <rect id="shape6" transform="matrix(0.707 -0.707 0.707 0.707 114.245 170.661)" fill="#f85542" width="25.60000000000pt" height="51.20000000000pt" rx="6.40000000000pt" ry="6.40000000000pt"/>
 </g>
</svg>
