<?xml version="1.0" standalone="no"?>
<!DOCTYPE svg PUBLIC "-//W3C//DTD SVG 20010904//EN" "http://www.w3.org/TR/2001/REC-SVG-20010904/DTD/svg10.dtd">
<!-- Created using Karbon, part of Calligra: http://www.calligra.org/karbon -->
<svg xmlns="http://www.w3.org/2000/svg" xmlns:xlink="http://www.w3.org/1999/xlink" width="20pt" height="20pt">
<defs>
  <linearGradient id="gradient0" gradientTransform="" gradientUnits="objectBoundingBox" x1="0.50000000000" y1="0.00466358418" x2="0.50000000000" y2="0.99677136500" spreadMethod="pad">
   <stop stop-color="#ffdb4a" offset="0.00000000000" stop-opacity="1.00000000000"/>
   <stop stop-color="#ffbb01" offset="1.00000000000" stop-opacity="1.00000000000"/>
  </linearGradient>
 </defs>
<g id="Page-1">
  <g id="Filled" transform="translate(-0.625, -0.625)" fill="none">
   <g id="message" transform="" fill="none">
    <path id="Fill-1" transform="matrix(-1 0 0 1 25.625 0.625)" fill="url(#gradient0)" fill-rule="evenodd" d="M17.5001 13C16.6731 13 16.0001 12.327 16.0001 11.5C16.0001 10.673 16.6731 10 17.5001 10C18.3271 10 19.0001 10.673 19.0001 11.5C19.0001 12.327 18.3271 13 17.5001 13M12.5001 13C11.6731 13 11.0001 12.327 11.0001 11.5C11.0001 10.673 11.6731 10 12.5001 10C13.3271 10 14.0001 10.673 14.0001 11.5C14.0001 12.327 13.3271 13 12.5001 13M7.50005 13C6.67305 13 6.00005 12.327 6.00005 11.5C6.00005 10.673 6.67305 10 7.50005 10C8.32705 10 9.00005 10.673 9.00005 11.5C9.00005 12.327 8.32705 13 7.50005 13M12.5001 0C5.60705 0 5.48349e-5 5.158 5.48349e-5 11.5C5.48349e-5 13.392 0.517055 15.271 1.49405 16.935C2.00205 17.799 2.08105 18.862 1.71005 19.852L0.0320548 24.324C-0.0379452 24.51 0.00905483 24.719 0.150055 24.857C0.245055 24.951 0.372055 25 0.500055 25C0.563055 25 0.626055 24.988 0.686055 24.965L6.58005 22.606C7.29505 22.32 8.08205 22.285 8.86305 22.502C10.0401 22.832 11.2641 23 12.5001 23C19.3931 23 25.0001 17.842 25.0001 11.5C25.0001 5.158 19.3931 0 12.5001 0"/>
   </g>
  </g>
 </g>
</svg>
