<svg id="icons" xmlns="http://www.w3.org/2000/svg" viewBox="0 0 64 64"><title>electric-plug</title><g id="electric-plug"><circle cx="32" cy="32" r="27" fill="#35c99f"/><path d="M32,62a30,30,0,1,1,15.75-4.47" fill="none" stroke="#f9b623" stroke-miterlimit="10" stroke-width="2"/><path d="M49.12,56.66a10.12,10.12,0,0,1-6.18,2.27h-1.9A10.31,10.31,0,0,1,30.93,48.54V43.26" fill="none" stroke="#f9b623" stroke-miterlimit="10" stroke-width="2"/><line x1="37" y1="24" x2="37" y2="16" fill="none" stroke="#ccc" stroke-linecap="round" stroke-linejoin="round" stroke-width="2"/><line x1="25" y1="24" x2="25" y2="16" fill="none" stroke="#ccc" stroke-linecap="round" stroke-linejoin="round" stroke-width="2"/><path d="M20,30v7.46A5.73,5.73,0,0,0,25.9,43H36.1A5.73,5.73,0,0,0,42,37.46V30" fill="#fa6c44" stroke="#e9573f" stroke-miterlimit="10" stroke-width="2"/><rect x="18" y="25" width="26" height="4" fill="#fa6c44" stroke="#e9573f" stroke-miterlimit="10" stroke-width="2"/><line x1="25.79" y1="36.14" x2="36.14" y2="36.14" fill="none" stroke="#ff7c57" stroke-linecap="round" stroke-miterlimit="10" stroke-width="2"/></g></svg>