<?xml version="1.0" encoding="UTF-8" standalone="no"?>
<svg
   xmlns:dc="http://purl.org/dc/elements/1.1/"
   xmlns:cc="http://creativecommons.org/ns#"
   xmlns:rdf="http://www.w3.org/1999/02/22-rdf-syntax-ns#"
   xmlns:svg="http://www.w3.org/2000/svg"
   xmlns="http://www.w3.org/2000/svg"
   xmlns:sodipodi="http://sodipodi.sourceforge.net/DTD/sodipodi-0.dtd"
   xmlns:inkscape="http://www.inkscape.org/namespaces/inkscape"
   version="1.1"
   id="Layer_1"
   x="0px"
   y="0px"
   viewBox="0 0 512 512"
   style="enable-background:new 0 0 512 512;"
   xml:space="preserve"
   sodipodi:docname="rubiks-cube-melange.svg"
   inkscape:version="0.92.3 (2405546, 2018-03-11)"><metadata
   id="metadata61"><rdf:RDF><cc:Work
       rdf:about=""><dc:format>image/svg+xml</dc:format><dc:type
         rdf:resource="http://purl.org/dc/dcmitype/StillImage" /><dc:title></dc:title></cc:Work></rdf:RDF></metadata><defs
   id="defs59" /><sodipodi:namedview
   pagecolor="#ffffff"
   bordercolor="#666666"
   borderopacity="1"
   objecttolerance="10"
   gridtolerance="10"
   guidetolerance="10"
   inkscape:pageopacity="0"
   inkscape:pageshadow="2"
   inkscape:window-width="1613"
   inkscape:window-height="995"
   id="namedview57"
   showgrid="false"
   inkscape:zoom="0.921875"
   inkscape:cx="395.01064"
   inkscape:cy="334.8695"
   inkscape:window-x="67"
   inkscape:window-y="27"
   inkscape:window-maximized="1"
   inkscape:current-layer="Layer_1" />
<path
   style="fill:#3cb400;fill-opacity:1"
   d="M342.069,32.353l-0.353,0.883l-87.04,33.192l-87.128-33.192L252.91,0.839  c1.995-0.706,4.184-0.706,6.179,0L342.069,32.353z"
   id="path2" />
<polygon
   style="fill: #FD8000;"
   points="254.676,66.428 173.462,97.412 86.334,64.044 167.548,33.236 "
   id="polygon4" />
<polygon
   style="fill: white;"
   points="422.93,130.604 341.186,161.589 254.676,128.486 335.801,97.412 "
   id="polygon6" />
<polygon
   style="fill: #F3F300;"
   points="512,96.794 423.371,130.516 423.018,130.604 422.93,130.604 335.801,97.412 422.93,64.044   423.283,63.161 423.371,63.161 "
   id="polygon8" />
<polygon
   style="fill: #0000F7;"
   points="423.283,63.161 422.93,64.044 335.801,97.412 254.676,66.428 341.716,33.236 342.069,32.353   "
   id="polygon10" />
<polygon
   style="fill: #FD8000;"
   points="256,406.201 256,511.691 176.552,481.589 176.552,375.835 "
   id="polygon12" />
<polygon
   style="fill: #E00000;"
   points="256,300.27 256,406.201 176.552,375.835 176.552,269.903 "
   id="polygon14" />
<polygon
   style="fill:#3cb400;fill-opacity:1"
   points="256,193.898 256,300.27 176.552,269.903 176.552,163.796 253.263,192.839 "
   id="polygon16" />
<polygon
   style="fill:#3cb400;fill-opacity:1"
   points="176.552,375.835 176.552,481.589 88.276,448.044 88.276,342.025 "
   id="polygon18" />
<polygon
   style="fill: #0000F7;"
   points="88.276,342.025 88.276,448.044 0,414.588 0,308.657 1.148,308.657 "
   id="polygon20" />
<polygon
   style="fill: #FD8000;"
   points="88.276,236.094 88.276,342.025 1.148,308.657 0,308.657 0,202.726 1.148,202.726 "
   id="polygon22" />
<polygon
   style="fill: #E00000;"
   points="88.894,130.516 88.276,132.105 88.276,236.094 1.148,202.726 0,202.726 0,96.794   87.746,130.074 "
   id="polygon24" />
<polygon
   style="fill:#3cb400;fill-opacity:1"
   points="512,96.794 512,202.726 510.852,202.726 423.724,236.094 423.724,131.487 423.018,130.604   423.371,130.516 "
   id="polygon26" />
<polygon
   style="fill: #0000F7;"
   points="423.724,131.487 423.724,236.094 335.448,269.903 335.448,167.415 334.212,164.237   341.186,161.589 422.93,130.604 423.018,130.604 "
   id="polygon28" />
<polygon
   style="fill: #F3F300;"
   points="335.448,167.415 335.448,269.903 256,300.27 256,193.898 258.737,192.839 334.212,164.237   "
   id="polygon30" />
<polygon
   style="fill: #F3F300;"
   points="512,202.726 512,308.657 510.852,308.657 423.724,342.025 423.724,236.094 510.852,202.726   "
   id="polygon32" />
<polygon
   style="fill: #E00000;"
   points="512,308.657 512,414.588 423.724,448.044 423.724,342.025 510.852,308.657 "
   id="polygon34" />
<polygon
   style="fill: #0000F7;"
   points="423.724,342.025 423.724,448.044 335.448,481.589 335.448,375.835 "
   id="polygon36" />
<polygon
   style="fill: #F3F300;"
   points="335.448,375.835 335.448,481.589 256,511.691 256,406.201 "
   id="polygon38" />
<polygon
   style="fill: #0000F7;"
   points="173.462,97.412 87.746,130.074 0,96.794 86.246,64.044 86.334,64.044 "
   id="polygon40" />
<polygon
   style="fill: white;"
   points="335.801,97.412 254.676,128.486 173.462,97.412 254.676,66.428 "
   id="polygon42" />
<polygon
   style="fill: white;"
   points="254.676,128.486 169.401,161.059 88.894,130.516 87.746,130.074 173.462,97.412 "
   id="polygon44" />
<polygon
   style="fill: #E00000;"
   points="176.552,163.796 176.552,269.903 88.276,236.094 88.276,132.105 88.894,130.516   169.401,161.059 "
   id="polygon46" />
<polygon
   style="fill: #E00000;"
   points="176.552,269.903 176.552,375.835 88.276,342.025 88.276,236.094 "
   id="polygon48" />
<path
   style="fill: #E00000;"
   d="M341.186,161.589l-6.974,2.648l-75.476,28.601c-1.774,0.618-3.699,0.618-5.473,0l-76.712-29.043  l-7.15-2.737l85.274-32.574L341.186,161.589z"
   id="path50" />
<polygon
   style="fill:#3cb400;fill-opacity:1"
   points="335.448,269.903 335.448,375.835 256,406.201 256,300.27 "
   id="polygon52" />
<polygon
   style="fill: #0000F7;"
   points="423.724,236.094 423.724,342.025 335.448,375.835 335.448,269.903 "
   id="polygon54" />
</svg>