<svg enable-background="new 0 0 512 512" version="1.1" viewBox="0 0 512 512" xmlns="http://www.w3.org/2000/svg"><path d="m342.07 32.353-0.353 0.883-87.04 33.192-87.128-33.192 85.362-32.397c1.995-0.706 4.184-0.706 6.179 0l82.98 31.514z" fill="#078230"/><polygon points="254.68 66.428 173.46 97.412 86.334 64.044 167.55 33.236" fill="#FD8000"/><polygon points="422.93 130.6 341.19 161.59 254.68 128.49 335.8 97.412" fill="#fff"/><polygon points="512 96.794 423.37 130.52 423.02 130.6 422.93 130.6 335.8 97.412 422.93 64.044 423.28 63.161 423.37 63.161" fill="#F3F300"/><polygon points="423.28 63.161 422.93 64.044 335.8 97.412 254.68 66.428 341.72 33.236 342.07 32.353" fill="#0000F7"/><polygon points="256 406.2 256 511.69 176.55 481.59 176.55 375.84" fill="#FD8000"/><polygon points="256 300.27 256 406.2 176.55 375.84 176.55 269.9" fill="#E00000"/><polygon points="256 193.9 256 300.27 176.55 269.9 176.55 163.8 253.26 192.84" fill="#078230"/><polygon points="176.55 375.84 176.55 481.59 88.276 448.04 88.276 342.02" fill="#078230"/><polygon points="88.276 342.02 88.276 448.04 0 414.59 0 308.66 1.148 308.66" fill="#0000F7"/><polygon points="88.276 236.09 88.276 342.02 1.148 308.66 0 308.66 0 202.73 1.148 202.73" fill="#FD8000"/><polygon points="88.894 130.52 88.276 132.1 88.276 236.09 1.148 202.73 0 202.73 0 96.794 87.746 130.07" fill="#E00000"/><polygon points="512 96.794 512 202.73 510.85 202.73 423.72 236.09 423.72 131.49 423.02 130.6 423.37 130.52" fill="#078230"/><polygon points="423.72 131.49 423.72 236.09 335.45 269.9 335.45 167.42 334.21 164.24 341.19 161.59 422.93 130.6 423.02 130.6" fill="#0000F7"/><polygon points="335.45 167.42 335.45 269.9 256 300.27 256 193.9 258.74 192.84 334.21 164.24" fill="#F3F300"/><polygon points="512 202.73 512 308.66 510.85 308.66 423.72 342.02 423.72 236.09 510.85 202.73" fill="#F3F300"/><polygon points="512 308.66 512 414.59 423.72 448.04 423.72 342.02 510.85 308.66" fill="#E00000"/><polygon points="423.72 342.02 423.72 448.04 335.45 481.59 335.45 375.84" fill="#0000F7"/><polygon points="335.45 375.84 335.45 481.59 256 511.69 256 406.2" fill="#F3F300"/><polygon points="173.46 97.412 87.746 130.07 0 96.794 86.246 64.044 86.334 64.044" fill="#0000F7"/><polygon points="335.8 97.412 254.68 128.49 173.46 97.412 254.68 66.428" fill="#fff"/><polygon points="254.68 128.49 169.4 161.06 88.894 130.52 87.746 130.07 173.46 97.412" fill="#fff"/><g fill="#E00000"><polygon points="176.55 163.8 176.55 269.9 88.276 236.09 88.276 132.1 88.894 130.52 169.4 161.06"/><polygon points="176.55 269.9 176.55 375.84 88.276 342.02 88.276 236.09"/><path d="m341.19 161.59-6.974 2.648-75.476 28.601c-1.774 0.618-3.699 0.618-5.473 0l-76.712-29.043-7.15-2.737 85.274-32.574 86.511 33.105z"/></g><polygon points="335.45 269.9 335.45 375.84 256 406.2 256 300.27" fill="#078230"/><polygon points="423.72 236.09 423.72 342.02 335.45 375.84 335.45 269.9" fill="#0000F7"/></svg>
