<svg width="60mm" height="60mm" fill-rule="evenodd" stroke-linejoin="round" stroke-width="28.222" preserveAspectRatio="xMidYMid" version="1.2" viewBox="0 0 6e3 6e3" xmlns="http://www.w3.org/2000/svg" xmlns:ooo="http://xml.openoffice.org/svg/export"><defs class="ClipPathGroup"><clipPath id="presentation_clip_path"><rect width="6e3" height="6e3"/></clipPath></defs><defs class="TextShapeIndex"></defs><defs class="EmbeddedBulletChars"></defs><g fill="#f3f300"><g stroke-width="290.08"><path d="m4932 1427.2-866.99 320.83-1020.5-386.79 865.69-318.98z"/><path d="m5684.1 1134.9-719.14 283.07-1011.9-384.25 721.93-277.75z"/><path d="m4653.7 770.02-743.53 272.21-860.48-321.19 725.32-285.05z"/><path d="m3775 436-751.19 280.58-755.33-286.9 726.52-283.68z"/><path d="m3869.3 1034.2-857.67 319.6-863.47-311.64 875.61-325.59z"/><path d="m3007.3 704.54-897.76 320.15-742.49-277.92 872.94-320.77z"/><path d="m2096.7 1033-1046.7 395.02-752.14-286.19 1042.1-385.81z"/><path d="m2973.4 1361.7-1023.4 386.31-874.1-312.51 1048.3-386.51z"/></g><path d="m4046.4 1762.4-1046.4 404.55-1027.7-409.09 1034.3-384.17z" stroke-width="290.08"/></g><g fill="#e00000"><g stroke-width="518.23"><path d="m4915.9 2533.2 728.57-332.8 77.006-1011.1-768 282.1z"/><path d="m3019 3380 975.1-422.7 24.069-1153.6-1001.2 356.28z"/><path d="m4037.3 2930.8 826.2-367.88 47.773-1070.7-848.68 293.2z"/><path d="m4030.8 4163.3 780.41-421.41 40.646-1127.5-811.81 361.55z"/><path d="m4858.6 3724 701.4-400.54 84.022-1080.1-725.32 344.07z"/><path d="m4023 5184 744.47-497.81 39.523-904.46-803.95 441.89z"/><path d="m3033.5 4727.8 934.91-512.42 23.793-1217.9-976.98 428.4z"/><path d="m4823.4 4642 676.57-434.98 56.287-834.7-705.07 378.96z"/></g><path d="m3037.9 5829.5 911.71-598.01 26.665-974.81-951.5 504.77z" stroke-width="518.23"/></g><g fill="#0000f7"><g stroke-width="518.23"><path d="m2980.3 4732.3-940.25-500.74-31.432-1240.2 984.34 441.2z"/><path d="m2988.8 3399.4-968.92-429.58-26.665-1157.5 1006.8 354.71z"/><path d="m1957.8 2916-796.59-331.71-50.5-1089.2 851.4 302.97z"/><path d="m1116.8 2545-765.53-337.42-72.745-995.47 792.61 261.65z"/><path d="m1977.6 4178.2-756.79-408.92-51.294-1165.5 802.14 366.53z"/></g><path d="m1993.2 5179.3-722.21-462.23-34.628-898.46 744.94 411.41z" stroke-width="518.23"/><path d="m1192.7 3736.6-759.17-412.1-75.923-1079.7 779.89 342.69z" stroke-width="518.23"/><path d="m1214.4 4666-714.35-458.98-63.537-846.89 732.22 384z" stroke-width="518.23"/><path d="m2976 5842.6-920.64-604.05-14.015-989.23 952.26 509.59z" stroke-width="746.71"/></g><g class="Master_Slide"></g><g class="SlideGroup" transform="matrix(1,0,0,-1,0,6002)"><g class="Slide" clip-path="url(#presentation_clip_path)"><g class="Page"><g class="Group"><g class="com.sun.star.drawing.LineShape"><g fill="none"><rect class="BoundingBox" x="2947" y="142" width="107" height="3707"/><path d="m3e3 3795v-3600" stroke="#000" stroke-linecap="round" stroke-linejoin="miter" stroke-width="106"/></g></g><g class="com.sun.star.drawing.LineShape"><g fill="none"><rect class="BoundingBox" x="473" y="118" width="2555" height="1705"/><path d="m500 1795 2500-1650" stroke="#000" stroke-linecap="round" stroke-linejoin="miter" stroke-width="53"/></g></g><g class="com.sun.star.drawing.LineShape"><g fill="none"><rect class="BoundingBox" x="243" y="1768" width="285" height="3115"/><path d="m270 4855 230-3060" stroke="#000" stroke-linecap="round" stroke-linejoin="miter" stroke-width="53"/></g></g><g class="com.sun.star.drawing.LineShape"><g fill="none"><rect class="BoundingBox" x="243" y="4837" width="2780" height="1047"/><path d="m2995 5856-2725-992" stroke="#000" stroke-linecap="round" stroke-linejoin="miter" stroke-width="53"/></g></g><g class="com.sun.star.drawing.LineShape"><g fill="none"><rect class="BoundingBox" x="2973" y="4837" width="2780" height="1047"/><path d="m3e3 5856 2725-992" stroke="#000" stroke-linecap="round" stroke-linejoin="miter" stroke-width="53"/></g></g><g class="com.sun.star.drawing.LineShape"><g fill="none"><rect class="BoundingBox" x="247" y="3782" width="2807" height="1099"/><path d="m300 4827 2700-992" stroke="#000" stroke-linecap="round" stroke-linejoin="miter" stroke-width="106"/></g></g><g class="com.sun.star.drawing.LineShape"><g fill="none"><rect class="BoundingBox" x="1313" y="4227" width="2780" height="1047"/><path d="m4065 4254-2725 992" stroke="#000" stroke-linecap="round" stroke-linejoin="miter" stroke-width="53"/></g></g><g class="com.sun.star.drawing.LineShape"><g fill="none"><rect class="BoundingBox" x="1923" y="4227" width="2780" height="1047"/><path d="m1950 4254 2725 992" stroke="#000" stroke-linecap="round" stroke-linejoin="miter" stroke-width="53"/></g></g><g class="com.sun.star.drawing.LineShape"><g fill="none"><rect class="BoundingBox" x="2213" y="4557" width="2780" height="1047"/><path d="m4965 4584-2725 992" stroke="#000" stroke-linecap="round" stroke-linejoin="miter" stroke-width="53"/></g></g><g class="com.sun.star.drawing.LineShape"><g fill="none"><rect class="BoundingBox" x="1023" y="4547" width="2780" height="1047"/><path d="m1050 4574 2725 992" stroke="#000" stroke-linecap="round" stroke-linejoin="miter" stroke-width="53"/></g></g><g class="com.sun.star.drawing.LineShape"><g fill="none"><rect class="BoundingBox" x="2973" y="118" width="2555" height="1705"/><path d="m5500 1795-2500-1650" stroke="#000" stroke-linecap="round" stroke-linejoin="miter" stroke-width="53"/></g></g><g class="com.sun.star.drawing.LineShape"><g fill="none"><rect class="BoundingBox" x="5473" y="1768" width="285" height="3115"/><path d="m5730 4855-230-3060" stroke="#000" stroke-linecap="round" stroke-linejoin="miter" stroke-width="53"/></g></g><g class="com.sun.star.drawing.LineShape"><g fill="none"><rect class="BoundingBox" x="2947" y="3782" width="2807" height="1099"/><path d="m5700 4827-2700-992" stroke="#000" stroke-linecap="round" stroke-linejoin="miter" stroke-width="106"/></g></g><g class="com.sun.star.drawing.CustomShape"><rect class="BoundingBox" x="1039" y="1293" width="248" height="3304" fill="none"/><path d="m1181 1363-141 3228 104-66 141-3227zm3-70zm-43 3303z"/></g><g class="com.sun.star.drawing.CustomShape"><rect class="BoundingBox" x="4740" y="1292" width="248" height="3304" fill="none"/><path d="m4882 4525-141-3228 104 66 141 3227zm3 70zm-43-3303z"/></g><g class="com.sun.star.drawing.CustomShape"><rect class="BoundingBox" x="1919" y="744" width="164" height="3504" fill="none"/><path d="m1979 818-60 3427 103-73 60-3426zm2-74zm39 3503z"/></g><g class="com.sun.star.drawing.CustomShape"><rect class="BoundingBox" x="3920" y="743" width="164" height="3504" fill="none"/><path d="m3980 4172-60-3427 103 73 60 3426zm2 74zm39-3503z"/></g><g class="com.sun.star.drawing.CustomShape"><rect class="BoundingBox" x="342" y="2511" width="2717" height="1320" fill="none"/><path d="m380 3719 2650-1208-11 111-2650 1207zm-37 17zm2714-1132z"/></g><g class="com.sun.star.drawing.CustomShape"><rect class="BoundingBox" x="399" y="1193" width="2625" height="1531" fill="none"/><path d="m433 2613 2560-1419-5 110-2559 1418zm-34 18zm2624-1346z"/></g><g class="com.sun.star.drawing.CustomShape"><rect class="BoundingBox" x="2988" y="1193" width="2627" height="1531" fill="none"/><path d="m5579 2613-2560-1419 5 110 2559 1418zm34 19zm-2624-1348z"/></g><g class="com.sun.star.drawing.CustomShape"><rect class="BoundingBox" x="2952" y="2512" width="2717" height="1320" fill="none"/><path d="m5630 3720-2650-1208 11 111 2650 1207zm37 17zm-2714-1132z"/></g></g></g></g></g></svg>
