<svg width="33.5mm" height="33.5mm" fill-rule="evenodd" stroke-linejoin="round" stroke-width="28.222" preserveAspectRatio="xMidYMid" version="1.2" viewBox="0 0 5317.8 5317.8" xmlns="http://www.w3.org/2000/svg" xmlns:ooo="http://xml.openoffice.org/svg/export"><defs class="ClipPathGroup"><clipPath id="presentation_clip_path"><rect width="6e3" height="6e3"/></clipPath></defs><defs class="TextShapeIndex"></defs><defs class="EmbeddedBulletChars"></defs><g fill="#fd8000"><g stroke-width="439.82"><path d="m50.972 3651.7 485.95 471.9 2.2472-1191.6-493.81-474.15z"/><path d="m556.85 4169.3 474.71 474.15 10.112-1206.2-480.33-475.27z"/><path d="m1049.9 4674 561.23 551.68 5.6179-1212.9-554.49-546.06z"/><path d="m1058.1 3448.2 560.1 557.3 8.9886-1192.7-566.85-552.8z"/><path d="m559.03 2949 476.96 477.52v-1193.8l-473.59-461.79z"/><path d="m44.583 2447.4 491.57 473.03 7.8651-1189.3-498.31-473.03z"/></g><path d="m43.528 1257.3 490.44 458.42 10.112-1171.4-481.45-470.78z" stroke-width="439.82"/><path d="m552.71 1752.6 481.45 457.3 3.3707-1178.1-478.08-470.78z" stroke-width="439.82"/><path d="m1048.5 2247.5 574.71 548.31 3.3707-1180.4-565.72-550.55z" stroke-width="439.82"/></g><g fill="#fff"><path d="m1618.7 1611 1220.3 7.9449-576.8-572.03-1191.7 9.5338z" stroke-width="439.82"/><g stroke-width="439.82"><path d="m2862 1621.5 1159.2-12.11-545.02-552.97-1194.9-6.3559z"/><path d="m4053 1603 1177.4 1.589-552.97-559.32-1175.8 11.123z"/><path d="m2262.2 1043.7 1201.3-1.589-506.89-498.94-1174.3 14.301z"/><path d="m3463.5 1042.1 1196.5-15.89-491-481.46-1191.7 7.9449z"/><path d="m1048 1043.5 1198.3-6.144-463.98-479.87-1234.3-13.983z"/><path d="m548 543.5 1210.5-0.3177-494.17-503.71-1194.9 4.7669z"/><path d="m1758.5 543.18 1172.7-6.356-465.57-495.76-1201.3-1.5889z"/><path d="m2956.6 543.18 1191.4 0.3177-500-500-1182.4-2.4365z"/></g></g><g fill="#078230"><path d="m1666.3 5235.4 1172.7-7.9449 3.1779-1171.1-1180.2-1.9237z" stroke-width="439.82"/><g stroke-width="439.82"><path d="m2866 5221.1 1164.7-4.767-1.589-1164.7-1166.3-1.589z"/><path d="m2862.8 4024.6 1167.9-3.1779 1.589-1155.2-1164.7-11.123z"/><path d="m1672.7 4018.3 1156.8-1.589v-1160l-1167.5-3.2415z"/><path d="m1667.9 2818.6 1164.7 1.589v-1166.3l-1170.6-1.3813z"/><path d="m2853.3 2834.5 1183.8-1.589-1.589-1172.7-1187.5-16.737z"/><path d="m4055.4 2829.8 1178.1-13.483-5.6807-1150.3-1179.8-22.472z"/><path d="m4057.7 4018.3 1182.3-1.8009-6.4618-1158.2-1164.7 3.178z"/><path d="m4067.3 5213.2h1167.9l-4.7669-1153.6-1167.9-4.767z"/></g></g><g transform="translate(-7.3437 -3314.1)"><g class="Master_Slide"></g></g><g class="SlideGroup" transform="matrix(-1 0 0 1 5348 -656.5)"><g class="Slide" clip-path="url(#presentation_clip_path)"><g class="Page"><g class="Group"><g class="com.sun.star.drawing.LineShape"><g fill="none"><rect class="BoundingBox" x="47" y="2247" width="107" height="3707"/><path d="m100 5900v-3600" stroke="#000" stroke-linecap="round" stroke-linejoin="miter" stroke-width="106"/></g></g><g class="com.sun.star.drawing.LineShape"><g fill="none"><rect class="BoundingBox" x="47" y="5847" width="3707" height="107"/><path d="m100 5900h3600" stroke="#000" stroke-linecap="round" stroke-linejoin="miter" stroke-width="106"/></g></g><g class="com.sun.star.drawing.LineShape"><g fill="none"><rect class="BoundingBox" x="3647" y="2247" width="107" height="3707"/><path d="m3700 5900v-3600" stroke="#000" stroke-linecap="round" stroke-linejoin="miter" stroke-width="106"/></g></g><g class="com.sun.star.drawing.LineShape"><g fill="none"><rect class="BoundingBox" x="47" y="2247" width="3707" height="107"/><path d="m100 2300h3600" stroke="#000" stroke-linecap="round" stroke-linejoin="miter" stroke-width="106"/></g></g><g class="com.sun.star.drawing.LineShape"><g fill="none"><rect class="BoundingBox" x="1247" y="2247" width="107" height="3707"/><path d="m1300 5900v-3600" stroke="#000" stroke-linecap="round" stroke-linejoin="miter" stroke-width="106"/></g></g><g class="com.sun.star.drawing.LineShape"><g fill="none"><rect class="BoundingBox" x="2447" y="2247" width="107" height="3707"/><path d="m2500 5900v-3600" stroke="#000" stroke-linecap="round" stroke-linejoin="miter" stroke-width="106"/></g></g><g class="com.sun.star.drawing.LineShape"><g fill="none"><rect class="BoundingBox" x="47" y="3447" width="3707" height="107"/><path d="m100 3500h3600" stroke="#000" stroke-linecap="round" stroke-linejoin="miter" stroke-width="106"/></g></g><g class="com.sun.star.drawing.LineShape"><g fill="none"><rect class="BoundingBox" x="47" y="4647" width="3707" height="107"/><path d="m100 4700h3600" stroke="#000" stroke-linecap="round" stroke-linejoin="miter" stroke-width="106"/></g></g><g class="com.sun.star.drawing.LineShape"><g fill="none"><rect class="BoundingBox" x="673" y="1673" width="3655" height="55"/><path d="m700 1700h3600" stroke="#000" stroke-linecap="round" stroke-linejoin="miter" stroke-width="53"/></g></g><g class="com.sun.star.drawing.LineShape"><g fill="none"><rect class="BoundingBox" x="1173" y="1173" width="3655" height="55"/><path d="m1200 1200h3600" stroke="#000" stroke-linecap="round" stroke-linejoin="miter" stroke-width="53"/></g></g><g class="com.sun.star.drawing.LineShape"><g fill="none"><rect class="BoundingBox" x="1673" y="673" width="3655" height="55"/><path d="m1700 700h3600" stroke="#000" stroke-linecap="round" stroke-linejoin="miter" stroke-width="53"/></g></g><g class="com.sun.star.drawing.LineShape"><g fill="none"><rect class="BoundingBox" x="4273" y="1673" width="55" height="3655"/><path d="m4300.8 5320.7-0.7945-3620.7" stroke="#000" stroke-linecap="round" stroke-linejoin="miter" stroke-width="53"/></g></g><g class="com.sun.star.drawing.LineShape"><g fill="none"><rect class="BoundingBox" x="4773" y="1173" width="55" height="3655"/><path d="m4800 4800v-3600" stroke="#000" stroke-linecap="round" stroke-linejoin="miter" stroke-width="53"/></g></g><g class="com.sun.star.drawing.LineShape"><g fill="none"><rect class="BoundingBox" x="5273" y="673" width="55" height="3655"/><path d="m5300 4300v-3600" stroke="#000" stroke-linecap="round" stroke-linejoin="miter" stroke-width="53"/></g></g><g class="com.sun.star.drawing.LineShape"><g fill="none"><rect class="BoundingBox" x="59" y="673" width="1669" height="1633"/><path d="m86 2278 1614-1578" stroke="#000" stroke-linecap="round" stroke-linejoin="miter" stroke-width="53"/></g></g><g class="com.sun.star.drawing.LineShape"><g fill="none"><rect class="BoundingBox" x="1259" y="673" width="1669" height="1633"/><path d="m1286 2278 1614-1578" stroke="#000" stroke-linecap="round" stroke-linejoin="miter" stroke-width="53"/></g></g><g class="com.sun.star.drawing.LineShape"><g fill="none"><rect class="BoundingBox" x="2459" y="673" width="1669" height="1633"/><path d="m2486 2278 1614-1578" stroke="#000" stroke-linecap="round" stroke-linejoin="miter" stroke-width="53"/></g></g><g class="com.sun.star.drawing.LineShape"><g fill="none"><rect class="BoundingBox" x="3659" y="673" width="1669" height="1664"/><path d="m3686 2309 1614-1609" stroke="#000" stroke-linecap="round" stroke-linejoin="miter" stroke-width="53"/></g></g><g class="com.sun.star.drawing.LineShape"><g fill="none"><rect class="BoundingBox" x="3659" y="1874" width="1669" height="1664"/><path d="m3686 3510 1614-1609" stroke="#000" stroke-linecap="round" stroke-linejoin="miter" stroke-width="53"/></g></g><g class="com.sun.star.drawing.LineShape"><g fill="none"><rect class="BoundingBox" x="3659" y="3075" width="1669" height="1664"/><path d="m3686 4711 1614-1609" stroke="#000" stroke-linecap="round" stroke-linejoin="miter" stroke-width="53"/></g></g><g class="com.sun.star.drawing.LineShape"><g fill="none"><rect class="BoundingBox" x="3694" y="4276" width="1634" height="1670"/><path d="m3721 5918 1579-1615" stroke="#000" stroke-linecap="round" stroke-linejoin="miter" stroke-width="53"/></g></g></g></g></g></g></svg>
