<svg width="19.502mm" height="19.506mm" fill-rule="evenodd" stroke-linejoin="round" stroke-width="28.222" preserveAspectRatio="xMidYMid" version="1.2" viewBox="0 0 1950.2 1950.6" xmlns="http://www.w3.org/2000/svg" xmlns:ooo="http://xml.openoffice.org/svg/export"><defs class="TextShapeIndex"></defs><defs class="EmbeddedBulletChars"></defs><g transform="translate(141.47 76.221)"><g class="Master_Slide"></g></g><g transform="matrix(.50888 0 0 .50888 24.556 24.556)"><g transform="translate(-1704 96.065)"><g class="com.sun.star.drawing.PolyPolygonShape" transform="matrix(3.0297 0 0 3.0343 -10329 -6699)"><rect class="BoundingBox" x="4086" y="2290" width="1003" height="1003" fill="none"/><path d="m5084 3292-995-6-3-994 1002-2z" fill="#fff"/></g><rect class="BoundingBox" x="3076" y="1273" width="994" height="994" fill="none"/><rect class="BoundingBox" x="4096" y="1271" width="992" height="990" fill="none"/><g class="com.sun.star.drawing.PolyPolygonShape"><rect class="BoundingBox" x="2e3" y="200" width="93" height="3146" fill="none"/></g><g class="com.sun.star.drawing.LineShape"><g fill="none"><rect class="BoundingBox" x="2e3" y="200" width="91" height="3144"/><path d="m2045 3298v-3053" stroke="#000" stroke-linecap="round" stroke-linejoin="miter" stroke-width="90"/></g></g><g class="com.sun.star.drawing.PolyPolygonShape"><rect class="BoundingBox" x="1999" y="3253" width="3147" height="93" fill="none"/></g><g class="com.sun.star.drawing.LineShape"><g fill="none"><rect class="BoundingBox" x="2e3" y="3253" width="3144" height="91"/><path d="m2045 3298h3053" stroke="#000" stroke-linecap="round" stroke-linejoin="miter" stroke-width="90"/></g></g><g class="com.sun.star.drawing.PolyPolygonShape"><rect class="BoundingBox" x="5052" y="200" width="94" height="3146" fill="none"/></g><g class="com.sun.star.drawing.LineShape"><g fill="none"><rect class="BoundingBox" x="5053" y="200" width="91" height="3144"/><path d="m5098 3298v-3053" stroke="#000" stroke-linecap="round" stroke-linejoin="miter" stroke-width="90"/></g></g><g class="com.sun.star.drawing.PolyPolygonShape"><rect class="BoundingBox" x="1999" y="200" width="3147" height="93" fill="none"/></g><g class="com.sun.star.drawing.LineShape"><g fill="none"><rect class="BoundingBox" x="2e3" y="200" width="3144" height="91"/><path d="m2045 245h3053" stroke="#000" stroke-linecap="round" stroke-linejoin="miter" stroke-width="90"/></g></g><g class="com.sun.star.drawing.PolyPolygonShape"><rect class="BoundingBox" x="3018" y="200" width="93" height="3146" fill="none"/></g><g class="com.sun.star.drawing.LineShape"><g fill="none"><rect class="BoundingBox" x="3018" y="245" width="91" height="3054"/><path d="m3063 3298v-3053" stroke="#000" stroke-linejoin="miter" stroke-width="90"/></g></g><g class="com.sun.star.drawing.PolyPolygonShape"><rect class="BoundingBox" x="4036" y="200" width="93" height="3146" fill="none"/></g><rect class="BoundingBox" x="4036" y="245" width="91" height="3054" fill="none"/><path d="m4081 3298v-3053" fill="none" stroke="#000" stroke-linejoin="miter" stroke-width="90"/><g class="com.sun.star.drawing.PolyPolygonShape"><rect class="BoundingBox" x="1999" y="1218" width="3147" height="93" fill="none"/></g><g class="com.sun.star.drawing.LineShape"><g fill="none"><rect class="BoundingBox" x="2045" y="1218" width="3054" height="91"/><path d="m2045 1263h3053" stroke="#000" stroke-linejoin="miter" stroke-width="90"/></g></g><g class="com.sun.star.drawing.PolyPolygonShape"><rect class="BoundingBox" x="1999" y="2236" width="3147" height="93" fill="none"/></g><g fill="none"><rect class="BoundingBox" x="2045" y="2236" width="3054" height="91"/><path d="m2045 2281h3053" stroke="#000" stroke-linejoin="miter" stroke-width="90"/></g></g><g class="com.sun.star.drawing.LineShape" transform="translate(-1704 96.065)"><g fill="none"><rect class="BoundingBox" x="1754" y="304" width="93" height="893"/><path d="m1800 350v800" stroke="#000" stroke-linecap="round" stroke-linejoin="round" stroke-width="92"/></g></g><g class="com.sun.star.drawing.LineShape" transform="translate(-1704 2133.4)"><g fill="none"><rect class="BoundingBox" x="1754" y="304" width="93" height="893"/><path d="m1800 350v800" stroke="#000" stroke-linecap="round" stroke-linejoin="round" stroke-width="92"/></g></g><g class="com.sun.star.drawing.LineShape" transform="translate(1838.8 96.065)"><g fill="none"><rect class="BoundingBox" x="1754" y="304" width="93" height="893"/><path d="m1800 350v800" stroke="#000" stroke-linecap="round" stroke-linejoin="round" stroke-width="92"/></g></g><g class="com.sun.star.drawing.LineShape" transform="translate(1838.8 2133.4)"><g fill="none"><rect class="BoundingBox" x="1754" y="304" width="93" height="893"/><path d="m1800 350v800" stroke="#000" stroke-linecap="round" stroke-linejoin="round" stroke-width="92"/></g></g><g class="com.sun.star.drawing.LineShape" transform="rotate(90 2671.2 967.17)"><g fill="none"><rect class="BoundingBox" x="1754" y="304" width="93" height="893"/><path d="m1800 350v800" stroke="#000" stroke-linecap="round" stroke-linejoin="round" stroke-width="92"/></g></g><g class="com.sun.star.drawing.LineShape" transform="rotate(90 1652.5 -51.475)"><g fill="none"><rect class="BoundingBox" x="1754" y="304" width="93" height="893"/><path d="m1800 350v800" stroke="#000" stroke-linecap="round" stroke-linejoin="round" stroke-width="92"/></g></g><g transform="rotate(90 898.29 2737.8)" fill="none"><rect class="BoundingBox" x="1754" y="304" width="93" height="893"/><path d="m1800 350v800" stroke="#000" stroke-linecap="round" stroke-linejoin="round" stroke-width="92"/></g><g class="com.sun.star.drawing.LineShape" transform="rotate(90 386.98 2226.5)"><g fill="none"><rect class="BoundingBox" x="1754" y="304" width="93" height="893"/><path d="m1800 350v800" stroke="#000" stroke-linecap="round" stroke-linejoin="round" stroke-width="92"/></g></g><g class="com.sun.star.drawing.LineShape" transform="rotate(90 -120.36 1719.1)"><g fill="none"><rect class="BoundingBox" x="1754" y="304" width="93" height="893"/><path d="m1800 350v800" stroke="#000" stroke-linecap="round" stroke-linejoin="round" stroke-width="92"/></g></g><g fill-rule="evenodd" stroke-linejoin="round" stroke-width="28.222"><g transform="matrix(1.0118 0 0 1 5391 2474.3)"><path transform="matrix(.57916 0 0 1.0031 -952.24 19.398)" d="m-2179.7-582.65-448.86 259.15v-518.3z" stroke-width="1467.3"/><rect x="-4235.2" y="-617.08" width="1762.8" height="103.99" stroke-width="4775.2"/></g><g transform="rotate(135 -1305 1333.8)"><path transform="matrix(.57916 0 0 1.0031 -952.24 19.398)" d="m-2179.7-582.65-448.86 259.15v-518.3z" stroke-width="1467.3"/><rect x="-3580.9" y="-617.08" width="1108.5" height="103.99" stroke-width="3786.7"/></g><g transform="rotate(225 21.883 -745.57)"><path transform="matrix(.57916 0 0 1.0031 -952.24 19.398)" d="m-2179.7-582.65-448.86 259.15v-518.3z" stroke-width="1467.3"/><rect x="-3580.9" y="-617.08" width="1108.5" height="103.99" stroke-width="3786.7"/></g></g></g></svg>
