<svg width="180.93mm" height="172.57mm" version="1.1" viewBox="0 0 180.93 172.57" xmlns="http://www.w3.org/2000/svg"><defs><clipPath id="presentation_clip_path-3"><rect width="6e3" height="6e3"/></clipPath></defs><g transform="translate(-18.331 -53.822)"><path d="m69.383 55.682a16.152 16.152 0 0 0-1.6857 0.10639l-0.51198 2.9628a13.269 13.269 0 0 0-2.4303 0.65588l-1.926-2.3134a16.152 16.152 0 0 0-2.9282 1.6891l1.0402 2.8278a13.269 13.269 0 0 0-1.7819 1.7745l-2.8256-1.041a16.152 16.152 0 0 0-1.6937 2.9232l2.3253 1.9378a13.269 13.269 0 0 0-0.65129 2.4223l-2.9901 0.51519a16.152 16.152 0 0 0-0.0926 1.6914 16.152 16.152 0 0 0 0.10638 1.6857l2.9628 0.512a13.269 13.269 0 0 0 0.65588 2.4303l-2.3137 1.926a16.152 16.152 0 0 0 1.6892 2.9281l2.8278-1.0402a13.269 13.269 0 0 0 1.7747 1.7821l-1.041 2.8257a16.152 16.152 0 0 0 2.9233 1.6935l1.9377-2.3253a13.269 13.269 0 0 0 2.4222 0.65141l0.51519 2.99a16.152 16.152 0 0 0 1.6914 0.09259 16.152 16.152 0 0 0 1.6857-0.10638l0.51198-2.9626a13.269 13.269 0 0 0 2.4304-0.65589l1.9258 2.3134a16.152 16.152 0 0 0 2.928-1.6889l-1.04-2.8278a13.269 13.269 0 0 0 1.7821-1.7747l2.8256 1.0409a16.152 16.152 0 0 0 1.6937-2.9233l-2.3253-1.9377a13.269 13.269 0 0 0 0.65143-2.4222l2.9898-0.51519a16.152 16.152 0 0 0 0.0928-1.6914 16.152 16.152 0 0 0-0.10638-1.6857l-2.9628-0.51199a13.269 13.269 0 0 0-0.65574-2.4303l2.3134-1.9258a16.152 16.152 0 0 0-1.6891-2.9283l-2.828 1.0402a13.269 13.269 0 0 0-1.7745-1.7821l1.041-2.8256a16.152 16.152 0 0 0-2.9232-1.6935l-1.9378 2.3253a13.269 13.269 0 0 0-2.4223-0.65142l-0.51519-2.99a16.152 16.152 0 0 0-1.6914-0.09272zm1.3e-4 11.246a4.9058 4.9058 0 0 1 4.9059 4.9059 4.9058 4.9058 0 0 1-4.9059 4.9059 4.9058 4.9058 0 0 1-4.9059-4.9059 4.9058 4.9058 0 0 1 4.9059-4.9059z" fill="#ff7000" stroke-width=".10771"/><ellipse cx="102.92" cy="127.61" rx="68.173" ry="0" fill="#00ff59" stroke-width=".26458"/><g transform="matrix(.018028 0 0 .018028 54.144 91.077)"><g><g stroke-width="290.08"><path d="m4932 1427.2-866.99 320.83-1020.5-386.79 865.69-318.98z" fill="#0000f7"/><path d="m5684.1 1134.9-719.14 283.07-1011.9-384.25 721.93-277.75z" fill="#fd8000"/><path d="m4653.7 770.02-743.53 272.21-860.48-321.19 725.32-285.05z" fill="#e00000"/><path d="m3775 436-751.19 280.58-755.33-286.9 726.52-283.68z" fill="#078230"/><path d="m3869.3 1034.2-857.67 319.6-863.47-311.64 875.61-325.59z" fill="#f3f300"/><path d="m3007.3 704.54-897.76 320.15-742.49-277.92 872.94-320.77z" fill="#fff"/><path d="m2096.7 1033-1046.7 395.02-752.14-286.19 1042.1-385.81z" fill="#0000f7"/><path d="m2973.4 1361.7-1023.4 386.31-874.1-312.51 1048.3-386.51z" fill="#fff"/></g><path d="m4046.4 1762.4-1046.4 404.55-1027.7-409.09 1034.3-384.17z" fill="#e00000" stroke-width="290.08"/><path d="m4853 2602.7 785.4-350 83.012-1063.3-827.91 296.67z" fill="#f3f300" stroke-width="551.79"/><path d="m3019 3423 975.1-434.23 24.069-1185-1001.2 366z" fill="#fff" stroke-width="525.25"/><path d="m3987.6 2996.9 873.1-384.79 50.485-1119.9-896.85 306.69z" fill="#fd8000" stroke-width="544.85"/><path d="m3941.5 4193.1 849.57-416.91 44.248-1115.4-883.75 357.69z" fill="#078230" stroke-width="537.81"/><path d="m4799.1 3724 754.56-400.54 90.39-1080.1-780.3 344.07z" fill="#fff" stroke-width="537.51"/><path d="m3945.2 5213.8 802.66-515.42 42.612-936.45-866.79 457.52z" fill="#e00000" stroke-width="547.54"/><path d="m3033.5 4727.8 934.91-512.42 23.793-1217.9-976.98 428.4z" fill="#e00000" stroke-width="518.23"/><path d="m4770.5 4675.1 731.53-466.71 60.859-895.58-762.35 406.6z" fill="#0000f7" stroke-width="558.17"/><path d="m3037.9 5829.5 911.71-615.62 26.665-1003.5-951.5 519.63z" fill="#fff" stroke-width="525.8"/><path d="m2980.3 4732.3-940.25-500.74-31.432-1240.2 984.34 441.2z" fill="#078230" stroke-width="518.23"/><path d="m2998.6 3458.9-978.46-445.69-26.928-1201 1016.7 368.02z" fill="#0000f7" stroke-width="530.46"/><path d="m2008.6 2991.4-844.34-349.3-53.527-1147 902.44 319.03z" fill="#078230" stroke-width="547.5"/><path d="m1169.5 2603.8-813.67-352.32-77.32-1039.4 842.45 273.21z" fill="#f3f300" stroke-width="545.95"/><path d="m2026.4 4161.9-802.54-388.86-54.395-1108.3 850.63 348.54z" fill="#e00000" stroke-width="520.41"/><path d="m2056.3 5228.4-793.17-505.71-38.031-982.97 818.13 450.11z" fill="#f3f300" stroke-width="568.06"/><path d="m1237.2 3710.9-799.56-405-79.963-1061.1 821.39 336.78z" fill="#fd8000" stroke-width="527.23"/><path d="m1257.5 4700-752.94-490.01-66.969-904.14 771.77 409.96z" fill="#078230" stroke-width="549.73"/><path d="m2976.3 5842.6-901.46-615.33-13.722-1007.7 932.42 519.11z" fill="#fd8000" stroke-width="745.76"/></g><g class="SlideGroup" transform="matrix(1,0,0,-1,0,6002)"><g class="Slide" clip-path="url(#presentation_clip_path-3)"><g class="Page"><g class="Group"><g class="com.sun.star.drawing.LineShape"><g fill="none"><rect class="BoundingBox" x="2947" y="142" width="107" height="3707"/><path d="m3e3 3795v-3600" stroke="#000" stroke-linecap="round" stroke-width="106"/></g></g><g class="com.sun.star.drawing.LineShape"><g fill="none"><rect class="BoundingBox" x="473" y="118" width="2555" height="1705"/><path d="m500 1795 2500-1650" stroke="#000" stroke-linecap="round" stroke-width="53"/></g></g><g class="com.sun.star.drawing.LineShape"><g fill="none"><rect class="BoundingBox" x="243" y="1768" width="285" height="3115"/><path d="m270 4855 230-3060" stroke="#000" stroke-linecap="round" stroke-width="53"/></g></g><g class="com.sun.star.drawing.LineShape"><g fill="none"><rect class="BoundingBox" x="243" y="4837" width="2780" height="1047"/><path d="m2995 5856-2725-992" stroke="#000" stroke-linecap="round" stroke-width="53"/></g></g><g class="com.sun.star.drawing.LineShape"><g fill="none"><rect class="BoundingBox" x="2973" y="4837" width="2780" height="1047"/><path d="m3e3 5856 2725-992" stroke="#000" stroke-linecap="round" stroke-width="53"/></g></g><g class="com.sun.star.drawing.LineShape"><g fill="none"><rect class="BoundingBox" x="247" y="3782" width="2807" height="1099"/><path d="m300 4827 2700-992" stroke="#000" stroke-linecap="round" stroke-width="106"/></g></g><g class="com.sun.star.drawing.LineShape"><g fill="none"><rect class="BoundingBox" x="1313" y="4227" width="2780" height="1047"/><path d="m4065 4254-2725 992" stroke="#000" stroke-linecap="round" stroke-width="53"/></g></g><g class="com.sun.star.drawing.LineShape"><g fill="none"><rect class="BoundingBox" x="1923" y="4227" width="2780" height="1047"/><path d="m1950 4254 2725 992" stroke="#000" stroke-linecap="round" stroke-width="53"/></g></g><g class="com.sun.star.drawing.LineShape"><g fill="none"><rect class="BoundingBox" x="2213" y="4557" width="2780" height="1047"/><path d="m4965 4584-2725 992" stroke="#000" stroke-linecap="round" stroke-width="53"/></g></g><g class="com.sun.star.drawing.LineShape"><g fill="none"><rect class="BoundingBox" x="1023" y="4547" width="2780" height="1047"/><path d="m1050 4574 2725 992" stroke="#000" stroke-linecap="round" stroke-width="53"/></g></g><g class="com.sun.star.drawing.LineShape"><g fill="none"><rect class="BoundingBox" x="2973" y="118" width="2555" height="1705"/><path d="m5500 1795-2500-1650" stroke="#000" stroke-linecap="round" stroke-width="53"/></g></g><g class="com.sun.star.drawing.LineShape"><g fill="none"><rect class="BoundingBox" x="5473" y="1768" width="285" height="3115"/><path d="m5730 4855-230-3060" stroke="#000" stroke-linecap="round" stroke-width="53"/></g></g><g class="com.sun.star.drawing.LineShape"><g fill="none"><rect class="BoundingBox" x="2947" y="3782" width="2807" height="1099"/><path d="m5700 4827-2700-992" stroke="#000" stroke-linecap="round" stroke-width="106"/></g></g><g class="com.sun.star.drawing.CustomShape" transform="translate(8.4831 -47.941)"><rect class="BoundingBox" x="1039" y="1293" width="248" height="3304" fill="none"/><path d="m1181 1363-141 3228 104-66 141-3227zm3-70zm-43 3303z"/></g><g class="com.sun.star.drawing.CustomShape" transform="translate(1.4774 -20.245)"><rect class="BoundingBox" x="4740" y="1292" width="248" height="3304" fill="none"/><path d="m4882 4525-141-3228 104 66 141 3227zm3 70zm-43-3303z"/></g><g class="com.sun.star.drawing.CustomShape" transform="translate(10.749 -21.497)"><rect class="BoundingBox" x="1919" y="744" width="164" height="3504" fill="none"/><path d="m1979 818-60 3427 103-73 60-3426zm2-74zm39 3503z"/></g><g class="com.sun.star.drawing.CustomShape" transform="translate(9.1396 -3.058)"><rect class="BoundingBox" x="3920" y="743" width="164" height="3504" fill="none"/><path d="m3980 4172-60-3427 103 73 60 3426zm2 74zm39-3503z"/></g><g class="com.sun.star.drawing.CustomShape" transform="translate(0 -52.917)"><rect class="BoundingBox" x="342" y="2511" width="2717" height="1320" fill="none"/><path d="m380 3719 2650-1208-11 111-2650 1207zm-37 17zm2714-1132z"/></g><g class="com.sun.star.drawing.CustomShape" transform="translate(0 52.917)"><rect class="BoundingBox" x="399" y="1193" width="2625" height="1531" fill="none"/><path d="m433 2613 2560-1419-5 110-2559 1418zm-34 18zm2624-1346z"/></g><g class="com.sun.star.drawing.CustomShape" transform="translate(0 52.917)"><rect class="BoundingBox" x="2988" y="1193" width="2627" height="1531" fill="none"/><path d="m5579 2613-2560-1419 5 110 2559 1418zm34 19zm-2624-1348z"/></g><g class="com.sun.star.drawing.CustomShape" transform="translate(0 -52.917)"><rect class="BoundingBox" x="2952" y="2512" width="2717" height="1320" fill="none"/><path d="m5630 3720-2650-1208 11 111 2650 1207zm37 17zm-2714-1132z"/></g></g></g></g></g></g><g><g stroke-width=".10771"><path d="m140.35 58.652a16.152 16.152 0 0 0-1.6857 0.10639l-0.51198 2.9628a13.269 13.269 0 0 0-2.4303 0.65588l-1.926-2.3134a16.152 16.152 0 0 0-2.9282 1.6891l1.0402 2.8278a13.269 13.269 0 0 0-1.7819 1.7745l-2.8256-1.041a16.152 16.152 0 0 0-1.6937 2.9232l2.3253 1.9378a13.269 13.269 0 0 0-0.65129 2.4223l-2.9901 0.51519a16.152 16.152 0 0 0-0.0926 1.6914 16.152 16.152 0 0 0 0.10638 1.6857l2.9628 0.512a13.269 13.269 0 0 0 0.65588 2.4303l-2.3137 1.926a16.152 16.152 0 0 0 1.6892 2.9281l2.8278-1.0402a13.269 13.269 0 0 0 1.7747 1.7821l-1.041 2.8257a16.152 16.152 0 0 0 2.9233 1.6935l1.9377-2.3253a13.269 13.269 0 0 0 2.4222 0.65141l0.51519 2.99a16.152 16.152 0 0 0 1.6914 0.0926 16.152 16.152 0 0 0 1.6857-0.10639l0.51198-2.9626a13.269 13.269 0 0 0 2.4304-0.65589l1.9258 2.3134a16.152 16.152 0 0 0 2.928-1.6889l-1.04-2.8278a13.269 13.269 0 0 0 1.7821-1.7747l2.8256 1.0409a16.152 16.152 0 0 0 1.6937-2.9233l-2.3253-1.9377a13.269 13.269 0 0 0 0.65143-2.4222l2.9898-0.51519a16.152 16.152 0 0 0 0.0928-1.6914 16.152 16.152 0 0 0-0.10638-1.6857l-2.9628-0.51199a13.269 13.269 0 0 0-0.65574-2.4303l2.3134-1.9258a16.152 16.152 0 0 0-1.6891-2.9283l-2.828 1.0402a13.269 13.269 0 0 0-1.7745-1.7821l1.041-2.8256a16.152 16.152 0 0 0-2.9232-1.6935l-1.9378 2.3253a13.269 13.269 0 0 0-2.4223-0.65142l-0.51519-2.99a16.152 16.152 0 0 0-1.6914-0.09272zm1.3e-4 11.246a4.9058 4.9058 0 0 1 4.9059 4.9059 4.9058 4.9058 0 0 1-4.9059 4.9059 4.9058 4.9058 0 0 1-4.9059-4.9059 4.9058 4.9058 0 0 1 4.9059-4.9059z" fill="#078230"/><path d="m182.11 120.58a16.152 16.152 0 0 0-1.6857 0.10639l-0.51198 2.9628a13.269 13.269 0 0 0-2.4303 0.65589l-1.926-2.3134a16.152 16.152 0 0 0-2.9282 1.6891l1.0402 2.8278a13.269 13.269 0 0 0-1.7819 1.7745l-2.8256-1.041a16.152 16.152 0 0 0-1.6937 2.9232l2.3253 1.9378a13.269 13.269 0 0 0-0.65129 2.4223l-2.9901 0.51519a16.152 16.152 0 0 0-0.0926 1.6914 16.152 16.152 0 0 0 0.10638 1.6857l2.9628 0.51199a13.269 13.269 0 0 0 0.65588 2.4303l-2.3137 1.926a16.152 16.152 0 0 0 1.6892 2.928l2.8278-1.0402a13.269 13.269 0 0 0 1.7747 1.7821l-1.041 2.8257a16.152 16.152 0 0 0 2.9233 1.6935l1.9377-2.3253a13.269 13.269 0 0 0 2.4222 0.65142l0.51519 2.99a16.152 16.152 0 0 0 1.6914 0.0926 16.152 16.152 0 0 0 1.6857-0.10638l0.51198-2.9626a13.269 13.269 0 0 0 2.4304-0.65588l1.9258 2.3134a16.152 16.152 0 0 0 2.928-1.6889l-1.04-2.8278a13.269 13.269 0 0 0 1.7821-1.7747l2.8256 1.0408a16.152 16.152 0 0 0 1.6937-2.9233l-2.3253-1.9377a13.269 13.269 0 0 0 0.65143-2.4222l2.9898-0.51519a16.152 16.152 0 0 0 0.0928-1.6914 16.152 16.152 0 0 0-0.10638-1.6857l-2.9628-0.51198a13.269 13.269 0 0 0-0.65574-2.4303l2.3134-1.9258a16.152 16.152 0 0 0-1.6891-2.9283l-2.828 1.0402a13.269 13.269 0 0 0-1.7745-1.7821l1.041-2.8256a16.152 16.152 0 0 0-2.9232-1.6935l-1.9378 2.3253a13.269 13.269 0 0 0-2.4223-0.65142l-0.51519-2.99a16.152 16.152 0 0 0-1.6914-0.0927zm1.3e-4 11.246a4.9058 4.9058 0 0 1 4.9059 4.9059 4.9058 4.9058 0 0 1-4.9059 4.9059 4.9058 4.9058 0 0 1-4.9059-4.9059 4.9058 4.9058 0 0 1 4.9059-4.9059z" fill="#fed000"/><path d="m148.92 192.94a16.152 16.152 0 0 0-1.6857 0.10639l-0.51198 2.9628a13.269 13.269 0 0 0-2.4303 0.65588l-1.926-2.3134a16.152 16.152 0 0 0-2.9282 1.6891l1.0402 2.8278a13.269 13.269 0 0 0-1.7819 1.7745l-2.8256-1.041a16.152 16.152 0 0 0-1.6937 2.9232l2.3253 1.9378a13.269 13.269 0 0 0-0.65129 2.4223l-2.9901 0.51519a16.152 16.152 0 0 0-0.0926 1.6914 16.152 16.152 0 0 0 0.10638 1.6857l2.9628 0.51199a13.269 13.269 0 0 0 0.65588 2.4303l-2.3137 1.926a16.152 16.152 0 0 0 1.6892 2.9281l2.8278-1.0402a13.269 13.269 0 0 0 1.7747 1.7821l-1.041 2.8257a16.152 16.152 0 0 0 2.9233 1.6935l1.9377-2.3253a13.269 13.269 0 0 0 2.4222 0.65142l0.51519 2.99a16.152 16.152 0 0 0 1.6914 0.0926 16.152 16.152 0 0 0 1.6857-0.10638l0.51198-2.9626a13.269 13.269 0 0 0 2.4304-0.65588l1.9258 2.3134a16.152 16.152 0 0 0 2.928-1.6889l-1.04-2.8278a13.269 13.269 0 0 0 1.7821-1.7747l2.8256 1.0408a16.152 16.152 0 0 0 1.6937-2.9233l-2.3253-1.9377a13.269 13.269 0 0 0 0.65143-2.4222l2.9898-0.51519a16.152 16.152 0 0 0 0.0928-1.6914 16.152 16.152 0 0 0-0.10638-1.6857l-2.9628-0.51199a13.269 13.269 0 0 0-0.65574-2.4303l2.3134-1.9258a16.152 16.152 0 0 0-1.6891-2.9283l-2.828 1.0402a13.269 13.269 0 0 0-1.7745-1.7821l1.041-2.8256a16.152 16.152 0 0 0-2.9232-1.6935l-1.9378 2.3253a13.269 13.269 0 0 0-2.4223-0.65142l-0.51519-2.99a16.152 16.152 0 0 0-1.6914-0.0927zm1.3e-4 11.246a4.9058 4.9058 0 0 1 4.9059 4.9059 4.9058 4.9058 0 0 1-4.9059 4.9059 4.9058 4.9058 0 0 1-4.9059-4.9059 4.9058 4.9058 0 0 1 4.9059-4.9059z"/><path d="m70.016 189.2a16.152 16.152 0 0 0-1.6857 0.10639l-0.51198 2.9628a13.269 13.269 0 0 0-2.4303 0.65588l-1.926-2.3134a16.152 16.152 0 0 0-2.9282 1.6891l1.0402 2.8278a13.269 13.269 0 0 0-1.7819 1.7745l-2.8256-1.041a16.152 16.152 0 0 0-1.6937 2.9232l2.3253 1.9378a13.269 13.269 0 0 0-0.65129 2.4223l-2.9901 0.51519a16.152 16.152 0 0 0-0.0926 1.6914 16.152 16.152 0 0 0 0.10638 1.6857l2.9628 0.51199a13.269 13.269 0 0 0 0.65588 2.4303l-2.3137 1.926a16.152 16.152 0 0 0 1.6892 2.9281l2.8278-1.0402a13.269 13.269 0 0 0 1.7747 1.7821l-1.041 2.8257a16.152 16.152 0 0 0 2.9233 1.6935l1.9377-2.3253a13.269 13.269 0 0 0 2.4222 0.65142l0.51519 2.99a16.152 16.152 0 0 0 1.6914 0.0926 16.152 16.152 0 0 0 1.6857-0.10638l0.51198-2.9626a13.269 13.269 0 0 0 2.4304-0.65588l1.9258 2.3134a16.152 16.152 0 0 0 2.928-1.6889l-1.04-2.8278a13.269 13.269 0 0 0 1.7821-1.7747l2.8256 1.0408a16.152 16.152 0 0 0 1.6937-2.9233l-2.3253-1.9377a13.269 13.269 0 0 0 0.65143-2.4222l2.9898-0.51519a16.152 16.152 0 0 0 0.0928-1.6914 16.152 16.152 0 0 0-0.10638-1.6857l-2.9628-0.51199a13.269 13.269 0 0 0-0.65573-2.4303l2.3134-1.9258a16.152 16.152 0 0 0-1.6891-2.9283l-2.828 1.0402a13.269 13.269 0 0 0-1.7745-1.7821l1.041-2.8256a16.152 16.152 0 0 0-2.9232-1.6935l-1.9378 2.3253a13.269 13.269 0 0 0-2.4223-0.65142l-0.51519-2.99a16.152 16.152 0 0 0-1.6914-0.0927zm1.3e-4 11.246a4.9058 4.9058 0 0 1 4.9059 4.9059 4.9058 4.9058 0 0 1-4.9059 4.9059 4.9058 4.9058 0 0 1-4.9059-4.9059 4.9058 4.9058 0 0 1 4.9059-4.9059z" fill="#e00000"/><path d="m35.483 119.22a16.152 16.152 0 0 0-1.6857 0.10638l-0.51198 2.9628a13.269 13.269 0 0 0-2.4303 0.65589l-1.926-2.3134a16.152 16.152 0 0 0-2.9282 1.6891l1.0402 2.8278a13.269 13.269 0 0 0-1.7819 1.7745l-2.8256-1.041a16.152 16.152 0 0 0-1.6937 2.9232l2.3253 1.9378a13.269 13.269 0 0 0-0.65129 2.4223l-2.9901 0.51519a16.152 16.152 0 0 0-0.0926 1.6914 16.152 16.152 0 0 0 0.10638 1.6857l2.9628 0.51199a13.269 13.269 0 0 0 0.65588 2.4303l-2.3137 1.926a16.152 16.152 0 0 0 1.6892 2.928l2.8278-1.0402a13.269 13.269 0 0 0 1.7747 1.7821l-1.041 2.8257a16.152 16.152 0 0 0 2.9233 1.6935l1.9377-2.3253a13.269 13.269 0 0 0 2.4222 0.65142l0.51519 2.99a16.152 16.152 0 0 0 1.6914 0.0926 16.152 16.152 0 0 0 1.6857-0.10638l0.51198-2.9626a13.269 13.269 0 0 0 2.4304-0.65588l1.9258 2.3134a16.152 16.152 0 0 0 2.928-1.6889l-1.04-2.8278a13.269 13.269 0 0 0 1.7821-1.7747l2.8256 1.0409a16.152 16.152 0 0 0 1.6937-2.9233l-2.3253-1.9377a13.269 13.269 0 0 0 0.65143-2.4222l2.9898-0.51519a16.152 16.152 0 0 0 0.0928-1.6914 16.152 16.152 0 0 0-0.10638-1.6857l-2.9628-0.51198a13.269 13.269 0 0 0-0.65573-2.4303l2.3134-1.9258a16.152 16.152 0 0 0-1.6891-2.9283l-2.828 1.0402a13.269 13.269 0 0 0-1.7745-1.7821l1.041-2.8256a16.152 16.152 0 0 0-2.9232-1.6935l-1.9378 2.3253a13.269 13.269 0 0 0-2.4223-0.65142l-0.51519-2.99a16.152 16.152 0 0 0-1.6914-0.0927zm1.3e-4 11.246a4.9058 4.9058 0 0 1 4.9059 4.9059 4.9058 4.9058 0 0 1-4.9059 4.9059 4.9058 4.9058 0 0 1-4.9059-4.9059 4.9058 4.9058 0 0 1 4.9059-4.9059z" fill="#00f"/></g><g font-family="sans-serif" font-size="13.107px" letter-spacing="0px" stroke-width=".32769" word-spacing="0px"><text x="99.632423" y="72.168854" fill="#000000" style="line-height:1.25" xml:space="preserve"><tspan x="99.632423" y="72.168854" fill="#000000" font-family="Ubuntu" font-size="24.467px" font-weight="500" stroke-width=".32769" style="line-height:1.25">?</tspan></text><text transform="rotate(30)" x="192.71725" y="-4.5272055" fill="#ff0000" style="line-height:1.25" xml:space="preserve"><tspan x="192.71725" y="-4.5272055" fill="#ff0000" font-family="Ubuntu" font-size="24.467px" font-weight="500" stroke-width=".32769" style="line-height:1.25">?</tspan></text><text transform="rotate(120)" x="62.95623" y="-238.81052" fill="#0000ff" style="line-height:1.25" xml:space="preserve"><tspan x="62.95623" y="-238.81052" fill="#0000ff" font-family="Ubuntu" font-size="24.467px" font-weight="500" stroke-width=".32769" style="line-height:1.25">?</tspan></text><text transform="scale(-1)" x="-109.88636" y="-208.0491" fill="#ff7000" style="line-height:1.25" xml:space="preserve"><tspan x="-109.88636" y="-208.0491" fill="#ff7000" font-family="Ubuntu" font-size="24.467px" font-weight="500" stroke-width=".32769" style="line-height:1.25">?</tspan></text><text transform="rotate(240)" x="-183.91199" y="-44.805599" fill="#078230" style="line-height:1.25" xml:space="preserve"><tspan x="-183.91199" y="-44.805599" fill="#078230" font-family="Ubuntu" font-size="24.467px" font-weight="500" stroke-width=".32769" style="line-height:1.25">?</tspan></text><text transform="rotate(-30)" x="-16.14645" y="110.10325" fill="#fed000" style="line-height:1.25" xml:space="preserve"><tspan x="-16.14645" y="110.10325" fill="#fed000" font-family="Ubuntu" font-size="24.467px" font-weight="500" stroke-width=".32769" style="line-height:1.25">?</tspan></text></g></g></g></svg>
