<svg width="204" height="227" version="1.1" viewBox="0 0 204 227" xmlns="http://www.w3.org/2000/svg"><g transform="translate(240.47 -8.6568)"><path d="m-222.75 113.08-0.34007-36.047 12.923-28.226 22.105-15.983 29.586-7.8216 33.327-1.3603 28.226 6.1213 18.364 15.983 11.902 22.785-1.3603 21.765-18.704 29.246-53.051 8.5018-30.946 23.465-37.748-8.5018z" fill="#030303" stroke="#000" stroke-width="1px"/><g transform="translate(-240.47 8.6568)"><path d="m0 113.5v-113.5h204v227h-204zm134.63 107.16c-2.8714-11.44-1.2773-22.891 3.5643-25.604 2.5112-1.4068 3.3749-1.2812 12.664 1.8419 11.351 3.8162 15.082 3.7006 20.225-0.62694 3.1425-2.6442 3.1425-2.6442 2.4726-10.324l-0.66987-7.6793 3.3068-2.7608c5.2503-4.3835 5.3017-5.0203 0.79902-9.9052-4.5404-4.9258-4.4625-5.124 2.9936-7.6163 4.4106-1.4743 4.5092-1.6005 4.3003-5.5-0.37045-6.9146 0.36764-8.2841 5.9808-11.097 11.542-5.7838 11.354-7.6116-3.0037-29.22l-5.7633-8.6737-0.03606-17.5c-0.04068-19.745-1.2602-26.419-7.0658-38.672-1.869-3.9445-3.3982-7.9044-3.3982-8.7997 0-4.9248-6.1212-12.786-14.074-18.076-24.256-16.132-62.869-18.828-94.426-6.5916-19.982 7.748-38.572 23.21-45.856 38.139-14.432 29.58-9.1617 75.184 11.758 101.75 6.1894 7.859 9.0282 13.458 10.058 19.836 0.98133 6.0788 3.9555 10.416 7.1424 10.416h2.6322l-0.67889 7.75c-0.90212 10.298-3.2835 25.403-4.5162 28.645l-0.99041 2.605h93.167z" fill-opacity="0"/><path d="m52.233 134.87c-14.506-2.3734-27.233-14.19-27.233-25.284 0-1.9112-0.85021-4.9632-1.8894-6.7821-2.5749-4.5071-3.3254-9.6297-2.0242-13.814 0.59733-1.921 1.2924-6.8677 1.5446-10.993 0.87025-14.235 6.2533-25.657 15.835-33.602 2.5857-2.1439 5.3633-5.1611 6.1726-6.7049 2.0227-3.8587 9.6717-8.4846 15.241-9.2171 2.5411-0.33424 6.2922-1.4982 8.3358-2.5865 2.0436-1.0883 6.9936-2.3608 11-2.8277s8.5511-1.3468 10.099-1.9553c4.0991-1.6111 18.49-1.3535 24.526 0.4389 2.862 0.84993 5.6026 1.2987 6.0903 0.99737 1.7107-1.0573 16.62 1.6138 21.569 3.864 6.0554 2.7535 11.148 6.9089 12.085 9.8609 0.3805 1.1989 2.6139 4.0478 4.963 6.3309 7.4941 7.2835 8.6782 11.34 8.4352 28.901-0.0624 4.5106-0.75269 8.4225-1.9411 11-1.0143 2.2-2.5801 5.6138-3.4794 7.5863-5.5497 12.171-22.043 20.043-38.667 18.453-5.6186-0.53728-7.6172-0.25035-13.389 1.9223-3.7317 1.4046-9.3097 2.8319-12.396 3.1718-4.194 0.46189-6.3681 1.3154-8.6106 3.3804-1.65 1.5194-4.4625 3.4994-6.25 4.4001s-3.25 2.2861-3.25 3.0786c0 2.2462-6.5048 8.1984-10.184 9.3188-5.3402 1.6262-10.943 1.9851-16.583 1.0622zm13.171-3.9534c4.8134-1.212 9.2882-4.8445 10.138-8.2296 0.33862-1.3492 2.3934-3.2203 5.1314-4.6728 2.5116-1.3324 5.4973-3.6814 6.6349-5.2201 1.7916-2.4233 2.7462-2.7975 7.1368-2.7975 5.292 0 7.6133-0.54617 16.286-3.8318 4.2224-1.5996 6.7498-1.8776 13.11-1.4416 16.348 1.1205 32.123-6.7639 34.789-17.388 0.38367-1.5287 1.5348-4.1983 2.558-5.9325 2.576-4.366 3.2317-15.279 1.0622-17.68-1.2287-1.3597-1.3282-2.0482-0.42639-2.95 3.007-3.007 0.40273-9.599-6.2432-15.803-2.0462-1.9102-4.3284-4.9057-5.0716-6.6568-2.6175-6.1666-12.976-11.017-25.472-11.927-4.1454-0.30181-10.858-1.246-14.916-2.0983-8.2057-1.7232-16.843-1.2702-22.737 1.1925-1.9955 0.83378-5.6812 1.516-8.1904 1.516-2.5092 0-6.3917 0.86349-8.6279 1.9189-2.2361 1.0554-6.7657 2.46-10.066 3.1213-6.0435 1.2111-6.5014 1.5463-15.655 11.46-0.50784 0.55-3.2682 3.2684-6.1342 6.0409-8.1841 7.9171-10.7 13.538-12.457 27.829-2.1894 17.807-2.1322 20.593 0.49859 24.285 1.5552 2.1823 2.2478 4.5858 2.2478 7.7997 0 14.064 19.69 25.675 36.404 21.466zm-27.954-21.69c0.73022-3.3247-1.3057-6.2296-4.366-6.2296-3.4911 0-5.3495-3.4568-4.6743-8.6949 0.34065-2.6428 0.72544-5.8176 0.85508-7.0551 0.32711-3.1225 1.2193-2.8216 3.7435 1.2626 1.194 1.932 3.0614 3.9892 4.1496 4.5716 1.8416 0.98559 1.87 1.2248 0.41062 3.4522-2.2561 3.4433-1.9883 4.2611 1.9319 5.8991 4.4056 1.8408 4.5424 4.4176 0.39729 7.4823l-3.1027 2.2939zm54.079-5.7709c-1.5788-2.4977-3.356-4.36-3.9494-4.1384-0.59338 0.22161-1.9789 0.070821-3.0789-0.3351-1.1-0.40592-2.5224-0.32179-3.161 0.18694-2.5367 2.0211-2.3559-2.9675 0.21792-6.0103 0.15732-0.18599 2.3925 0.8963 4.967 2.4051 5.1114 2.9955 7.1931 2.5518 13.134-2.7992 2.2362-2.0141 2.826-16.415 0.86176-21.043-1.1701-2.757-3.52-0.15473-3.52 3.898 0 3.9703-0.55717 4.1422-3.7388 1.1532-1.3022-1.2234-4.9312-3.5859-8.0645-5.25-6.7475-3.5837-7.6813-6.132-3.7043-10.109 2.3033-2.3033 3.1565-2.5464 6.9434-1.9785 6.8118 1.0215 7.6113-4.2774 0.97576-6.4673-4.4624-1.4727-4.3034-2.9675 0.83843-7.8848 6.6336-6.344 12.598-5.304 17.768 3.0978 3.8612 6.2753 3.7815 7.0149-1.1797 10.944-4.1616 3.2961-4.1616 3.2961-3.513 0.71165 0.37877-1.5091 0.0557-3.7817-0.77655-5.462-0.78386-1.5827-2.337-5.0151-3.4515-7.6276-3.6252-8.4981-6.1937-4.9412-3.0883 4.2768 2.8551 8.4752 2.6579 10.845-1.009 12.123-5.6416 1.9667-3.2574 4.8502 4.0104 4.8502 5.8662 0 6.8166 1.4111 8.5026 12.623 0.674 4.4823-1.0349 9.9081-3.858 12.249-0.91019 0.75484-1.6549 2.6673-1.6549 4.25 0 3.4662-0.59679 3.5903-3.0187 0.62756-2.7664-3.3841-4.6183-1.1537-2.9266 3.5247 2.6216 7.2499-0.4021 8.7088-4.5264 2.184zm-21.302-5.4624c-1.8008-1.0979-3.7904-1.9963-4.4213-1.9963s-2.0069-0.77813-3.0578-1.7292c-1.811-1.6389-1.9612-1.6389-2.8784 0-1.9727 3.525-5.8683 1.5539-5.8683-2.9692 0-1.1421 0.57574-1.3474 2.25-0.80221 1.2375 0.40295 3.9123 0.67141 5.9441 0.59659 3.0607-0.11271 4.5667 0.63899 8.7834 4.384 5.2918 4.6999 4.9125 5.9697-0.7516 2.5163zm63.774-42.75c0-0.41429 1.296-1.9765 2.88-3.4715 5.439-5.1335 22.022-4.2485 16.873 0.90048-1.3608 1.3608-2.032 1.2935-6.3868-0.64095l-4.8661-2.1616-2.5728 3.0634c-2.3331 2.778-5.9272 4.1788-5.9272 2.3102z" fill="#edc50a"/><path d="m44.849 95.781c-0.78224-1.2547-1.9585-3.5187-2.614-5.0312-0.65547-1.5125-1.5989-2.75-2.0966-2.75s-1.1311-0.86517-1.4076-1.9226c-0.31791-1.2157-1.5558-2.043-3.3666-2.25-2.5821-0.2952-2.8468-0.67063-2.6905-3.8158 0.09535-1.9186-0.27988-3.7685-0.83385-4.1108-0.58374-0.36077-0.34131-0.87803 0.57663-1.2303 0.87112-0.33428 1.5838-0.13038 1.5838 0.45311 0 1.6394 3.7952 6.0798 6.6961 7.8344 1.9449 1.1764 3.0609 3.2273 4.3816 8.052 1.9549 7.1416 1.9044 8.193-0.22902 4.7711zm42.151-6.7812c-0.825-0.53316-3.1875-0.97626-5.25-0.98469-5.0379-0.020572-4.7306-1.6661 0.75-4.0153 6.117-2.622 5.9814-4.4782-0.25-3.4219-12.328 2.0897-19.539-2.9091-14.747-10.223 2.2176-3.3845 2.0414-3.4356-6.014-1.7419-9.8333 2.0675-11.964 1.0403-11.012-5.3088 0.38258-2.5512 1.3705-5.6686 2.1955-6.9277 1.8691-2.8526 1.2358-3.9222-3.1864-5.3817-3.5907-1.185-4.3491-2.7324-2.3292-4.7523 0.87585-0.87585 1.8662-0.56004 4.0767 1.3 1.6059 1.3513 3.5603 2.4569 4.3431 2.4569 2.1557 0 1.7134 3.4939-1.16 9.1643-2.2864 4.512-2.4123 5.2687-1.096 6.5851 2.1131 2.1131 3.6792 0.70482 3.6792-3.3084 0-3.3717 2.8928-5.0415 4.4287-2.5564 0.3007 0.48654 2.6898 1.1966 5.309 1.5779 8.7223 1.2698 11.924 6.2928 7.7807 12.208-2.3034 3.2886 0.09342 4.7806 5.3889 3.3547 5.0796-1.3678 8.3452 0.11561 13.492 6.1288 4.7923 5.5987 4.2868 8.1927-0.84076 4.3144-2.8286-2.1395-4.9002-1.8814-4.2691 0.5318 0.28766 1.1 0.45264 1.9931 0.36663 1.9847-0.086009-0.008422-0.83138-0.45153-1.6564-0.98469zm-8.3758-39.035c-3.5369-4.2034-3.3156-7.1942 0.87582-11.834 5.7398-6.3533 3.7129-7.1657-4.0708-1.6317-5.6968 4.0503-7.8998 4.3578-9.5206 1.3292-1.4787-2.763 1.1969-5.0918 4.8085-4.1853 1.6598 0.41659 3.0845-0.04818 4.6468-1.516 1.2392-1.1642 4.2518-2.5463 6.6946-3.0713 2.4428-0.52504 7.493-1.7421 11.223-2.7046 5.998-1.5479 7.7303-1.6034 15-0.48026 4.5204 0.69838 10.665 1.4715 13.655 1.7181 3.1078 0.25629 8.9082 1.9394 13.541 3.9293 8.3788 3.5988 10.005 4.0705 9.1253 2.6476-0.28327-0.45833 0.14017-0.83333 0.94098-0.83333 0.8008 0 1.2721 0.18387 1.0474 0.40861-0.22473 0.22473-0.0412 1.6897 0.40788 3.2555 0.80804 2.8175 0.77864 2.8412-2.8414 2.2945-2.0118-0.30383-4.0854-0.94381-4.6079-1.4222s-3.0288-0.86976-5.5695-0.86976c-4.2286 0-4.7406 0.27001-6.05 3.1906-2.4484 5.4611-4.2676 4.8961-3.447-1.0705 0.76101-5.5332-0.04082-6.3717-2.9835-3.1201-2.6512 2.9295-3.2407 2.5208-3.9658-2.75l-0.65351-4.75-4.4694-0.09658c-2.4582-0.05312-5.5904-0.69652-6.9605-1.4298-3.2813-1.7561-5.1593-0.16609-3.4894 2.9542 0.95638 1.787 1.7192 2.0351 4.597 1.4952 3.8276-0.71806 8.4416 1.5229 8.4416 4.1 0 1.9386-1.4214 1.8791-3.0882-0.12936-1.0453-1.2595-2.3131-1.4549-5.8724-0.90484-2.4966 0.3858-5.8893 0.8306-7.5393 0.98843-1.65 0.15783-3.5509 0.34001-4.2243 0.40484s-1.8897 1.4045-2.7028 2.977c-1.7355 3.356-6.5079 5.6249-9.9921 4.7505-4.5138-1.1329-4.4703 3.2084 0.05286 5.2693 1.3879 0.63239 2.3476 1.6777 2.1325 2.323-0.75901 2.277-2.5472 1.847-5.1419-1.2366zm10.376-12.259c0-0.57685 0.78153-1.9124 1.7367-2.9679 2.0999-2.3204-0.23875-4.7384-4.5828-4.7384-2.3388 0-2.3784 0.09444-0.78045 1.8601 1.2451 1.3758 1.453 2.4824 0.79857 4.25-1.2157 3.2836-0.4399 5.3571 1.4252 3.8091 0.77152-0.6403 1.4028-1.6361 1.4028-2.213zm41-3.6496c0-2.3519-3.5958-5.0567-6.7225-5.0567-3.3112 0-2.7983 1.574 1.4546 4.4639 4.4833 3.0465 5.2679 3.1348 5.2679 0.59276zm-32-2.4343c0-3.2852-2.4906-5.2901-4.5-3.6224-1.8109 1.5029-1.9159 3.1841-0.3 4.8 2.1024 2.1024 4.8 1.4406 4.8-1.1776z" fill="#f26e08"/><path d="m112.05 98.637c-0.49419-1.2998-1.833-2.6077-2.9752-2.9064-2.0572-0.53797-3.0684-4.7303-1.141-4.7303 0.51465 0 3.3801-2.4837 6.3677-5.5194 6.3059-6.4074 10.28-6.3364 12.776 0.22829 1.4326 3.7681 3.5451 2.641 5.5453-2.9589 2.0791-5.8207 5.1999-7.9971 13.125-9.1535 3.7972-0.55405 4.25-0.40576 4.25 1.3917 0 1.1065-0.64286 2.0118-1.4286 2.0118-1.8934 0-4.7442 2.9114-4.0115 4.0969 0.31806 0.51463 0.99719 0.67679 1.5092 0.36036 0.51199-0.31643 0.9309-0.1146 0.9309 0.4485 0 0.56311-0.85267 1.4802-1.8948 2.0379-1.0422 0.55774-2.3805 2.4073-2.9741 4.1102-1.5564 4.4646-3.364 2.6871-2.9632-2.9137 0.44888-6.2715-1.2851-6.1869-3.3554 0.16372-3.3094 10.152-11.835 12.841-15.019 4.7371-0.94302-2.3996-1.1456-2.1653-3.6381 4.2089-2.8523 7.2944-3.7154 8.0363-5.103 4.3867zm-41.465-8.3001c-2.147-1.8583-3.6363-2.3767-5.6628-1.9714-1.757 0.3514-3.1863 0.02374-3.9593-0.90763-1.6256-1.9588-3.6519-1.839-4.8412 0.28615-0.90547 1.618-1.148 1.5819-3.3641-0.5-1.3136-1.234-2.9218-2.2437-3.5739-2.2437s-1.1855-0.43247-1.1855-0.96104c0-1.6206-4.3504-5.1185-5.7149-4.5949-1.9199 0.73675-1.5547-1.2568 0.84869-4.632 2.2995-3.2293 1.4275-3.1507 14.049-1.2663 4.3931 0.6559 5.0631 1.1893 10.817 8.6118 6.4808 8.3609 7.8694 12.751 2.5871 8.179zm-4.3316-33.482c-3.9862-1.1167-6.5699-4.7526-5.7365-8.0728 0.73238-2.918-1.3848-5.0317-5.04-5.0317-1.3833 0-2.7404-0.36442-3.0157-0.80982-0.6502-1.052 5.7548-5.9402 7.7835-5.9402 1.5966 0 3.7534 4.7498 3.7534 8.2659 0 1.5802 0.44278 1.8302 2.25 1.27 5.6937-1.7647 6.75-1.7851 6.75-0.13013 0 0.90141 1.8 3.5917 4 5.9784s4 4.5305 4 4.7639c0 0.83022-11.554 0.60013-14.745-0.29363zm64.396-8.6102c-0.25688-0.41563-0.22019-2.0471 0.0815-3.6254 0.53891-2.8191 0.64218-2.86 5.8586-2.3217 2.9205 0.30142 6.1198 1.0602 7.1095 1.6862 1.532 0.969 1.3608 1.0697-1.1512 0.67766-2.0317-0.31709-4.0506 0.28688-6.4821 1.9392-3.7725 2.5635-4.6781 2.8383-5.4162 1.644z" fill="#052aea"/><path d="m61.411 123.5c-1.1505-1.756-1.4396-3.5381-0.97529-6.013 1.1779-6.279-2.4931-5.9915-6.4964 0.50864-0.99596 1.6172-6.217-3.4752-7.5087-7.3237-1.045-3.1133 1.6014-7.6519 5.6728-9.729 5.2191-2.6626 7.4026-2.45 9.8286 0.95708 2.6266 3.6887 2.5979 4.2578-0.18191 3.6067-2.7826-0.65179-14.016 2.788-14.575 4.4627-0.3131 0.93929 1.5824 1.0593 8.124 0.51439 8.4418-0.70319 8.5359-0.68566 8.8665 1.6505 0.54296 3.837 3.2202 2.8534 3.918-1.4396 0.3398-2.0905 1.0724-4.2555 1.6281-4.8111 1.8782-1.8782 12.102-2.0703 15.837-0.29754 6.2931 2.9863 3.8591 4.3279-6.0467 3.333-8.6728-0.87108-11.861 1.0099-5.4814 3.2338l3.0213 1.0532-3.2713 3.7959c-1.7992 2.0878-4.0798 4.9654-5.068 6.3948-2.2684 3.2811-5.1831 3.3224-7.2924 0.10323zm63.171-21.371c-1.5862-2.5665 2.7058-5.1182 11.918-7.0854 7.204-1.5385 10.59-3.1874 16.237-7.9076 4.3384-3.6264 5.4696-6.1402 2.7633-6.1402-0.825 0-1.5-0.675-1.5-1.5s0.675-1.5 1.5-1.5 1.5 0.675 1.5 1.5 0.585 1.5 1.3 1.5c0.82117 0 1.3-1.3003 1.3-3.5302 0-2.0525-0.43952-3.363-1.05-3.1308-0.64252 0.24444-1.0522-1.463-1.0556-4.3999-5e-3 -4.1565 0.28977-4.8558 2.1999-5.221 2.7384-0.52348 3.8932 1.895 1.2365 2.5897-1.1698 0.30592-1.9308 1.3722-1.9308 2.7055 0 1.5453 0.44671 2.0292 1.5 1.625 2.2566-0.86594 1.9879 6.4621-0.34751 9.4768-1.0161 1.3117-2.1564 3.649-2.5339 5.194-1.0361 4.2404-8.0318 11.192-13.729 13.643-5.8883 2.5331-18.228 3.927-19.307 2.1809z" fill="#f00505"/><path d="m46.59 127.52c-5.6336-2.316-12.598-7.9149-14.75-11.858-1.6404-3.0056-0.13781-3.0889 2.5917-0.14376 1.432 1.5452 4.2949 3.1223 6.5554 3.6113 2.2072 0.47746 5.7006 1.2393 7.7631 1.693 6.2872 1.383 13.868 6.3655 12.66 8.3204-1.021 1.6521-8.9726 0.78151-14.82-1.6226zm69.91-53.321c-7.5349-2.6683-10.051-5.6694-6.9269-8.2621 1.8253-1.5149 5.4289-8.2595 5.4227-10.15-8e-3 -2.5023-5.0481-11.317-7.716-13.496-3.8302-3.1271-2.3899-3.7226 5.4217-2.2419 8.3851 1.5894 9.3569 2.349 5.5346 4.3256-5.2642 2.7222-5.038 8.2197 0.23936 5.8152 3.6915-1.682 10.025-1.5004 11.545 0.33102 0.69572 0.83829 1.0883 1.6424 0.87244 1.7868-1.7511 1.1719-8.7865 5.452-10.379 6.3143-1.0925 0.59156-2.0762 2.2436-2.1859 3.6712-0.10973 1.4276-0.67955 3.4926-1.2663 4.5889-0.70656 1.3202-0.72819 2.2025-0.0641 2.613 1.2326 0.76177 2.2738 0.15718 8.0671-4.684 5.6995-4.7629 7.6149-4.8262 9.5001-0.31429 1.737 4.1573 2.8763 4.5859 2.1546 0.81068-0.38548-2.0165 0.27333-3.6381 2.6334-6.482 3.8716-4.6652 4.293-4.68 9.3765-0.3287 2.2489 1.925 4.5248 3.5 5.0576 3.5 0.53272 0 1.5862 0.74863 2.341 1.6636 1.2557 1.5221 0.99781 1.6041-3.0322 0.96346-5.6058-0.89111-6.314-1.3631-5.5687-3.7112 1.0377-3.2695-3.2261-2.3979-4.994 1.0208-2.0309 3.9273-1.1128 6.1144 2.3077 5.4974 1.4628-0.26386 4.6846 0.19073 7.1596 1.0102l4.5 1.49-5 0.068c-10.32 0.14036-12.013 0.26057-12.5 0.88754-1.5803 2.0335-18.908 4.5838-22.5 3.3117zm-75.862-3.9785c-0.5548-0.89768-0.81654-10.236-0.40272-14.368 0.34069-3.4018 3.7314-7.2882 5.1344-5.8851 0.68902 0.68902 0.28025 2.0129-1.2681 4.1072l-2.2849 3.0905 2.3417-0.19428c4.0849-0.3389 4.8417-0.022019 4.8417 2.0271 0 1.887-0.44338 2.1585-3.9291 2.4062-1.5217 0.10812-3.3654 5.2735-2.6098 7.3118 0.52057 1.4042-1.0728 2.7194-1.8234 1.505z" fill="#076b30"/><path d="m86.648 109.77c-1.2272-0.78564 1.0776-1.1347 5.2147-0.78971 1.2993 0.10834 2.1198-0.19543 1.8234-0.67503-0.29641-0.4796 0.295-0.872 1.3142-0.872s1.6536 0.32295 1.4096 0.71766c-0.24394 0.39471 0.80159 0.88402 2.3234 1.0874s-0.31661 0.57146-4.0854 0.81806c-3.7688 0.24659-7.3688 0.11774-8-0.28634zm62.352-11.201c0-0.46261 1.7848-2.7773 3.9661-5.1438 2.1814-2.3665 4.2684-5.5668 4.6379-7.1118 0.36948-1.545 1.034-3.2742 1.4767-3.8426 0.4427-0.56845 0.44327-1.6187 1e-3 -2.3338-0.63136-1.0216-0.93392-0.96079-1.4114 0.28354-0.33401 0.87112-1.1038 1.5838-1.7103 1.5838-0.60655 0-0.39567-0.70714 0.46861-1.5714 0.86429-0.86428 1.5874-2.1018 1.6069-2.75 0.0195-0.64821 0.62608-0.11327 1.348 1.1888 1.5871 2.8625 2.6166 1.1243 2.6166-4.4177 0-2.7733-0.31699-3.2849-1.75-2.8239-1.4771 0.47517-1.5161 0.3947-0.25-0.51607 0.825-0.59346 1.8375-1.0859 2.25-1.0943 1.5079-0.03079 0.69689 8.3139-1.1516 11.849-1.0459 1.9999-2.424 5.0348-3.0626 6.7443-1.1098 2.971-9.0358 11.705-9.0358 9.9566zm-98.782-60.768c4.0557-3.7886 8.0043-5.7964 11.399-5.7964 3.6259 0 2.2595 1.2265-1.7147 1.5392-3.5668 0.28059-8.4023 3.4854-8.4023 5.5688 0 0.76564-0.99333 1.4422-2.2074 1.5035-2.0425 0.1031-1.9733-0.10726 0.92532-2.815zm97.094-1.7452c-0.91772-1.0718-2.0423-1.7178-2.4992-1.4355-1.7438 1.0777-4.7216-0.68874-4.0744-2.417 0.55823-1.4906 0.42662-1.5283-1.0739-0.30736-1.5189 1.2359-1.6307 1.18-1-0.5 0.62731-1.6709 0.51336-1.7314-0.97711-0.519-1.0468 0.85147-1.6872 0.95828-1.6872 0.28138 0-0.60679-0.73859-0.80764-1.664-0.45251-1.216 0.46664-1.4411 0.27782-0.83596-0.70132s0.38009-1.168-0.83596-0.70132c-1.0865 0.41695-1.664 0.12888-1.664-0.83006 0-1.8134-0.0916-1.8155 5.6321 0.12776 5.4454 1.8487 11.974 5.9347 12.761 7.9868 0.76258 1.9873-0.11718 1.7624-2.0817-0.53199zm-71.972-4.7919c0.35682-0.57735 0.0054-1.2966-0.78088-1.5983-0.78631-0.30173-1.6275-0.01139-1.8693 0.64522-0.33895 0.92048-0.73448 0.91612-1.7274-0.01902-1.0349-0.97468-0.75216-1.4165 1.4401-2.25 3.6199-1.3763 4.4641-1.3137 6.2406 0.46284 1.8031 1.8031 0.33297 2.0343-1.59 0.25-1.0987-1.0194-1.2359-0.93312-0.74367 0.46798 0.33193 0.94489 0.10363 2.0269-0.50733 2.4045-0.63308 0.39127-0.83181 0.23506-0.46207-0.36319zm40.66-3.1496c1.2474-0.89734 1.1212-1.0816-0.75-1.0943-1.2375-0.0084-2.251-0.35281-2.2523-0.76531-1e-3 -0.4125 3.4118-0.60062 7.5847-0.41803 8.0467 0.35208 9.3184 1.3321 2.1819 1.6816-2.3454 0.11484-5.1643 0.53873-6.2643 0.94197-1.601 0.58689-1.7007 0.51789-0.5-0.34586z" fill="#5a260d"/><path d="m43 222.07c0-0.5142 0.4317-2.0704 0.95933-3.4581 1.0042-2.6413 3.5655-19.998 4.4061-29.858 0.47713-5.5968 0.42872-5.7355-1.8057-5.1747-3.1937 0.80158-6.1366-3.2107-7.6171-10.385-1.4927-7.2334-3.3977-10.892-10.511-20.189-19.963-26.089-25.377-70.661-12.076-99.41 10.096-21.822 36.991-39.629 68.03-45.042 38.194-6.6605 79.732 7.3164 85.778 28.863 0.63108 2.2488 2.4124 6.8215 3.9584 10.162 5.494 11.87 6.2748 16.361 6.3653 36.621l0.0836 18.694 4.5673 6.8055c14.533 21.655 15.729 26.329 7.6331 29.829-7.2506 3.1345-8.7715 5.0717-8.7715 11.172 0 5.7379-0.5443 6.3174-7.2928 7.7648-4.3297 0.92864-4.4348 3.2099-0.34124 7.4021 4.5321 4.6413 4.5251 4.7791-0.47944 9.3536-4.436 4.0549-4.3062 3.2213-2.182 14.013 0.42873 2.1781-0.17377 3.4401-2.9836 6.25-4.4331 4.4331-9.5672 4.6907-19.439 0.97509-13.774-5.1846-18.278-2.0923-18.281 12.552-8.5e-4 4.1286 0.41704 8.9661 0.92864 10.75l0.9302 3.2434h-45.93c-27.821 0-45.93-0.3686-45.93-0.9349zm29.17-89.319c2.4619-1.4428 5.2768-4.1605 6.3248-6.1067 1.0387-1.9288 3.0398-4.0769 4.4469-4.7737s3.9084-2.4693 5.5584-3.939c1.9854-1.7684 4.6313-2.8812 7.8233-3.2905 2.6528-0.34011 8.0528-1.8013 12-3.247 5.9909-2.1943 8.6348-2.5953 16.001-2.4272 15.097 0.34461 24.823-3.1365 32.905-11.776 2.5792-2.7574 5.0064-6.2764 5.3939-7.8201s1.5413-4.225 2.564-5.9585c2.349-3.9813 3.9651-16.132 2.5146-18.908-0.57484-1.1-0.9471-3.9132-0.82725-6.2516 0.27706-5.4054-1.7042-9.5441-7.6447-15.969-2.6014-2.8136-5.6297-6.5786-6.7297-8.3668-3.9023-6.3437-17.748-11.912-29.618-11.912-2.6314 0-7.3759-0.675-10.543-1.5-7.885-2.0538-17.649-1.8532-24.339 0.5-3.025 1.0641-7.7567 1.9494-10.515 1.9674-2.8951 0.01885-6.4879 0.81378-8.5 1.8807-1.9169 1.0164-5.4846 2.1606-7.9283 2.5427-6.5061 1.0172-13.801 5.3777-17.157 10.255-1.5974 2.3217-4.2729 5.1958-5.9456 6.3868-8.6628 6.1684-13.94 17.399-15.96 33.967-2.3241 19.062-2.3267 18.481 0.10495 23.652 1.2536 2.6661 2.1692 6.0562 2.0346 7.5334-0.66861 7.3374 8.1394 18.825 17.69 23.071 10.489 4.6639 22.881 4.8636 30.346 0.48913zm-23.67-3.1386c-12.073-3.7984-20.934-14.045-18.957-21.921 0.41214-1.6421-0.20391-3.5723-1.9715-6.177-2.6997-3.9782-3.424-10.047-1.6048-13.446 0.53138-0.9929 1.0939-5.2309 1.25-9.4178 0.15612-4.1869 0.43385-7.1699 0.61718-6.629 0.68149 2.0107 2.0296 0.8821 2.7072-2.2665 0.56929-2.6453 2.8378-7.981 7.287-17.139 0.23759-0.48906-0.1889-0.55244-0.94775-0.14084-0.75885 0.4116 1.5453-2.0789 5.1203-5.5344s6.8668-6.1949 7.3151-6.0874c0.44833 0.10743 2.0233-0.64356 3.5-1.6689 1.4767-1.0253 5.1599-3.1104 8.1849-4.6336s6.3058-3.1843 7.2907-3.6914c0.98487-0.50708 2.1707-0.68711 2.6351-0.40006 1.1632 0.71892 7.0742-1.4336 7.0742-2.5761 0-0.50948 1.6875-0.86261 3.75-0.78472 2.0625 0.07789 5.55-0.56649 7.75-1.432 2.5057-0.98574 6.8017-1.5337 11.5-1.4668l7.5 0.10678-9 0.68064c-5.2011 0.39334-10.351 1.385-12.2 2.3493-1.7602 0.91778-4.5942 1.6687-6.2977 1.6687-2.0244 0-3.9049 0.87133-5.4284 2.5152-1.4667 1.5826-2.933 2.2842-3.9545 1.8922-4.8376-1.8564-8.2311 2.0059-5.2929 6.0241 1.6447 2.2492 4.1176 1.5867 9.2236-2.471 2.0489-1.6283 4.6241-2.9605 5.7226-2.9605 1.7632 0 1.6742 0.25419-0.75868 2.1679-3.2578 2.5626-5.756 7.9793-4.8547 10.526 1.5603 4.409 7.426 8.1809 8.5077 5.4708 0.70278-1.7606 8.8333 2.845 8.8333 5.0038 0 1.841-0.42946 2.0233-3.5671 1.5142-4.2577-0.69093-7.8301 0.74811-9.9718 4.0169-2.2819 3.4826-0.97158 6.0079 4.5759 8.819 2.689 1.3626 6.5178 3.9075 8.5084 5.6552 4.0908 3.5918 5.4119 2.8816 5.4393-2.924 0.01564-3.3182 1.3676-4.3802 2.3424-1.84 0.94471 2.4619 0.99695 17.194 0.0664 18.727-1.1179 1.8424-7.6528 5.8628-9.5294 5.8628-0.76991 0-3.0554-1.125-5.0789-2.5-4.5761-3.1096-4.3204-3.138-6.2321 0.6941-1.4644 2.9354-1.4606 3.3201 0.04666 4.75 0.99462 0.94357 1.7959 1.1437 2.036 0.50854 0.72556-1.9195 7.426-0.39638 8.4237 1.9149 0.50626 1.1729 1.6549 3.145 2.5525 4.3825 2.4071 3.3185-1.2745 3.0982-4.4668-0.26728-2.0899-2.2032-3.1793-2.4827-9.6786-2.4827-8.2282 0-10.466 1.2722-10.466 5.949 0 4.3845-2.5862 5.8699-3.3728 1.9371-0.68506-3.4253-1.2131-3.478-13.011-1.2984-6.091 1.1252-4.1134-1.5914 2.4337-3.3433 6.3048-1.687 6.8498-1.7318 9.2005-0.75648 2.5518 1.0588 2.1904-1.044-0.86869-5.0546-3.0676-4.0218-4.0508-4.1527-9.6678-1.2871-7.4276 3.7893-8.6794 8.4096-4.0775 15.05 3.1185 4.4999 4.526 4.7251 7.1365 1.1415 2.6129-3.5869 5.8021-2.693 4.057 1.1371-0.90864 1.9942-0.86198 3.096 0.2165 5.1111 2.9975 5.6009 7.0642 5.2079 10.936-1.0569 1.1884-1.9229 3.2914-4.3856 4.6732-5.4725 2.9694-2.3358 2.462-3.6522-1.7656-4.5808-1.6981-0.37295-2.7054-1.0349-2.2385-1.4709 1.0641-0.99388 16.349-0.02367 16.349 1.0378 0 1.2519-6.2339 6.143-9.1053 7.144-1.742 0.60724-3.1588 2.2581-4.1891 4.8811-2.7479 6.9954-15.022 10.059-26.206 6.54zm12.91-0.46233c1.2082-1.9549-6.373-6.9374-12.66-8.3204-2.0625-0.4537-5.5559-1.2156-7.7631-1.693-2.2605-0.48899-5.1234-2.0661-6.5554-3.6113-2.7295-2.9452-4.2321-2.8618-2.5917 0.14376 2.1523 3.9435 9.1164 9.5424 14.75 11.858 5.8478 2.4041 13.799 3.2746 14.82 1.6226zm-19.967-20.086c3.4-3.5489 2.9042-5.4432-1.8775-7.1722-3.946-1.4269-4.2777-2.0513-2.0653-3.8874 1.913-1.5877 1.9372-4.6182 0.0427-5.3452-0.80152-0.30757-2.6072-2.3807-4.0125-4.607-3.023-4.7888-4.5302-5.157-4.5302-1.1068 0 1.6175-0.37369 3.1719-0.83041 3.4542-0.45673 0.28227-0.7449 2.5661-0.64037 5.0752 0.21833 5.2408 2.415 8.2705 6.3247 8.7232 2.3609 0.27337 2.6338 0.71049 2.532 4.0564-0.13896 4.5684 1.2437 4.7898 5.0569 0.8097zm30.057-13.562c-4.7831-4.3834-6.5276-5.4082-8.6013-5.0529-2.8256 0.48412-6.908-0.29368-6.8834-1.3115 0.06187-2.5592 1.8943-3.423 4.1493-1.956 1.2844 0.8356 3.8502 1.5589 5.7018 1.6074 2.1342 0.05584 4.1446 0.92336 5.4924 2.37 4.768 5.1179 2.6218-1.1596-3.0525-8.928-5.6201-7.6943-5.9668-7.9726-10.806-8.6738-11.087-1.6065-12.69-1.3592-15.199 2.3449-2.5596 3.7793-3.051 5.9693-0.94796 4.2239 1.0442-0.86661 2.0148-0.4949 4.25 1.6276 1.5932 1.5129 4.004 3.4496 5.3574 4.3039 1.8538 1.1702 2.4931 2.4881 2.5923 5.3435 0.17946 5.168 2.9134 6.9941 5.9399 3.9675 1.2208-1.2208 1.9238-1.3476 2.7714-0.5 0.62464 0.62464 1.7446 1.1357 2.4888 1.1357 0.74418 0 3.0086 1.125 5.0321 2.5 7.1636 4.8678 8.2421 2.9796 1.7148-3.0022zm-24.923-1.2478c-0.77367-2.0625-1.7062-5.0975-2.0723-6.7444-0.82775-3.7238-2.2555-5.5056-4.4117-5.5056-2.6193 0-5.361-5.5041-4.5595-9.1534 0.47231-2.1504 0.34188-2.8877-0.42676-2.4127-0.60881 0.37627-1.1069 1.3326-1.1069 2.1251s-0.675 1.441-1.5 1.441-1.5 0.675-1.5 1.5 0.44035 1.5 0.97856 1.5c0.59841 0 0.54129 0.95971-0.14702 2.4704-1.4925 3.2757 0.50518 5.9129 3.8443 5.0748 1.5814-0.39692 2.3242-0.14742 2.3242 0.78073 0 0.75024 0.9 2.1786 2 3.174s2 2.3545 2 3.0201c0 1.5487 3.8541 6.4799 5.0645 6.4799 0.50563 0 0.28632-1.6875-0.48735-3.75zm42.497-5.661c-1.862-2.2436 0.44393-2.8001 3.006-0.72542 2.1655 1.7535 5.9201 1.8237 5.9201 0.11075 0-0.43581-2.433-3.3652-5.4067-6.5099l-5.4067-5.7175-6.5933 0.70608c-6.8982 0.73874-8.6848-0.47248-5.0933-3.4531 4.1473-3.4419 0.37548-10.444-6.1942-11.5-2.0932-0.33627-5.316-1.2769-7.1619-2.0902-4.1339-1.8215-6.6069-0.39094-5.6836 3.2878 0.40286 1.6051 0.093685 2.5362-0.97884 2.9477-2.8254 1.0842-2.8314-0.5279-0.026806-7.127 2.8667-6.7451 2.835-9.5185-0.10879-9.5185-0.94431 0-2.7787-0.99744-4.0763-2.2165-2.5994-2.442-5.8981-1.5083-5.6324 1.5942 0.0754 0.88047-0.19668 1.3946-0.60464 1.1424-1.1461-0.70832-5.3264 4.1953-4.591 5.3852 0.35806 0.57935 0.24981 1.8502-0.24054 2.824-1.0574 2.1001-0.084228 12.771 1.1648 12.771 0.47613 0 1.018-1.697 1.2041-3.7712 0.38318-4.2703 1.1791-6.002 2.4091-5.2419 1.5257 0.94293 4.0211-0.66682 4.0211-2.5939 0-1.945-0.7857-2.2566-4.8417-1.9201l-2.3417 0.19428 2.2798-3.0836c4.2359-5.7294 10.078-3.1382 7.396 3.2805-0.87896 2.1036-1.4618 5.6948-1.2952 7.9804l0.30288 4.1556 5 0.08732c2.75 0.04803 6.5624-0.2646 8.4719-0.69474 4.3-0.9686 4.5985-0.69278 2.5814 2.3857-4.7662 7.2741 5.4501 12.721 17.197 9.1689 3.7817-1.1436 2.5761 1.3898-1.465 3.0782-5.5961 2.3382-7.457 6.1106-2.4745 5.0162 1.5458-0.33952 3.9083-0.1788 5.25 0.35716 3.7969 1.5167 5.4249 1.3911 4.0133-0.30974zm-10.008-30.554c3.0609 1.6382 2.4338-1.1825-0.99282-4.4654-1.61-1.5425-3.4808-4.1406-4.1572-5.7736-1.2648-3.0534-1.6665-3.1194-7.6655-1.2601-1.9305 0.59834-2.25 0.33249-2.25-1.8722 0-7.0989-3.2389-9.1187-8.6813-5.4137-4.3312 2.9486-4.1907 4.5571 0.43129 4.9396 3.5973 0.29773 3.7733 0.48485 4.3221 4.5967 0.31463 2.3575 1.3333 5.0476 2.2636 5.9779 2.2609 2.2609 9.5821 4.0433 12.48 3.0384 1.3359-0.46328 3.1339-0.36498 4.25 0.23234zm17.731 47.579c0.21742-1.8624-0.09915-4.3101-0.7035-5.4393-1.6375-3.0598 0.7737-4.0569 3.0406-1.2574 2.2231 2.7454 3.866 1.9275 3.866-1.9247 0-1.6961 1.0325-4.0036 2.5-5.587 2.1241-2.2919 2.5-3.6578 2.5-9.0836 0-11.107-3.008-15.322-10.934-15.322-4.891 0-5.4764-2.0291-1.0657-3.6939 3.5896-1.3549 3.7299-2.8714 1-10.806-1.1-3.1972-2-6.6427-2-7.6566 0-2.3417 1.8903-2.4097 2.5956-0.09345 0.29307 0.9625 1.6521 4.1697 3.0201 7.1272 1.7262 3.7318 2.2942 6.2563 1.8563 8.25-0.79674 3.6275-0.25763 3.5984 4.5248-0.24487 5.1591-4.146 5.4381-5.2841 2.5168-10.269-6.287-10.728-12.42-12.063-20.248-4.4093-4.6337 4.5302-4.8409 4.6183-7.5151 3.1953-4.2395-2.256-3.5557-4.3995 1.4036-4.3995 3.5637 0 4.678-0.56805 7.8464-4 2.8681-3.1067 4.427-4 6.9804-4 1.8082 0 4.9918-0.51059 7.0747-1.1346 3.3492-1.0034 4.0989-0.88939 6.4836 0.98638 1.483 1.1666 3.0936 1.8756 3.5789 1.5756 3.5676-2.2049-3.3512-7.5882-8.648-6.7287-2.679 0.43473-3.4957 0.12112-4.4815-1.7209-1.1473-2.1437-1.0674-2.2183 1.6532-1.5439 1.5723 0.38972 3.8679 0.82328 5.1015 0.96346s2.5378 0.54993 2.8985 0.91056 1.6174 0.4143 2.7929 0.11927c1.552-0.38952 2.1948-0.04221 2.3472 1.2682 0.81628 7.0161 1.0568 7.7835 2.3436 7.4759 0.75628-0.18082 2.1653-1.0406 3.1312-1.9105 2.2076-1.9884 3.2524-1.0794 1.8249 1.5879-0.59456 1.1109-1.081 3.2075-1.081 4.659 0 3.8925 3.077 2.8583 5.3521-1.7989 1.8847-3.8581 4.714-4.5133 10.648-2.4658 7.2192 2.491 9.2051 2.6495 8.6938 0.69422-0.72542-2.774 1.1802-2.3988 2.2615 0.44531 0.4982 1.3104 2.2082 3.3098 3.7999 4.4432s4.149 3.8715 5.6827 6.0847c2.7678 3.9939 2.8989 5.2568 1.3073 12.59-0.54657 2.5181-3.0291 3.0678-4.7096 1.0429-0.70426-0.84859-1.7164-1.5429-2.2491-1.5429-0.53273 0-2.8086-1.575-5.0576-3.5-5.0835-4.3513-5.5048-4.3365-9.3765 0.3287-2.3601 2.8438-3.0189 4.4655-2.6334 6.482 0.72168 3.7752-0.4176 3.3466-2.1546-0.81068-1.8852-4.5119-3.8006-4.4486-9.5001 0.31429-5.7932 4.8412-6.8345 5.4458-8.0671 4.684-0.66413-0.41045-0.6425-1.2928 0.0641-2.613 0.58672-1.0963 1.1565-3.1613 1.2663-4.5889 0.10972-1.4276 1.0934-3.0796 2.1859-3.6712 1.5924-0.86223 8.6278-5.1424 10.379-6.3143 0.21588-0.14447-0.17672-0.94855-0.87244-1.7868-1.5199-1.8314-7.8531-2.013-11.545-0.33102-5.2773 2.4045-5.5036-3.093-0.23936-5.8152 3.8224-1.9766 2.8506-2.7361-5.5346-4.3256-7.8116-1.4807-9.2518-0.88516-5.4217 2.2419 2.6679 2.1781 7.7078 10.993 7.716 13.496 6e-3 1.89-3.5974 8.6346-5.4227 10.15-4.1036 3.4057 2.5755 8.3642 11.427 8.4832 5.8066 0.07805 18-2.332 18-3.5577 0-0.71131 1.0579-0.78917 12-0.88328l5.5-0.0473-4.5-1.49c-2.475-0.81948-5.6968-1.2741-7.1596-1.0102-3.4205 0.61701-4.3386-1.5701-2.3077-5.4974 1.8471-3.5718 5.5729-4.1167 5.2054-0.76128-0.19815 1.8096 0.51847 2.3652 4.2618 3.3042l4.5 1.1288v5.2089c0 3.3301 0.39074 5.0582 1.0833 4.7912 0.61985-0.23901 1.0833 0.78432 1.0833 2.3919 0 2.7821-0.0164 2.7894-1.6714 0.74555-0.93446-1.154-2.1837-1.7474-2.8333-1.3459-1.8254 1.1282-1.3606 3.4023 0.83805 4.1001 2.7369 0.86867 2.51 1.6305-1.2624 4.2374-1.7807 1.2305-4.4133 3.1848-5.8503 4.3427-1.437 1.158-6.5147 3.1469-11.284 4.4199-15.175 4.0505-17.675 7.6083-6.025 8.5735 5.456 0.452 6.0746 0.64703 2.9216 0.92105-6.5137 0.56609-8.7894 0.54304-12.868-0.13032-2.9268-0.48325-5.7921 0.0637-11.779 2.2486-10.798 3.9409-12.566 3.8678-12.057-0.49892zm20.224-10.676 2.3584-7.062 1.4558 2.812c3.9305 7.5921 11.652 4.6893 15.17-5.703 2.1852-6.4549 3.6316-6.3844 3.1612 0.15417-0.34072 4.7362 1.312 7.5117 2.4854 4.1742 0.35068-0.99736 2.0108-3.2759 3.6891-5.0634 2.3691-2.5232 2.6722-3.25 1.3554-3.25-2.5048 0-2.0595-1.8773 0.74882-3.1569 2.391-1.0894 4.0968-3.6347 3.1024-4.6291-0.94024-0.94024-12.044 1.7965-14.418 3.5536-1.3036 0.96497-3.1036 3.7373-4 6.1608-1.9238 5.2014-3.7985 6.2393-4.71 2.6077-1.7109-6.8167-8.826-6.5344-14.061 0.55809-1.5721 2.1297-3.6458 4.1351-4.6083 4.4564-2.6 0.8679-2.141 4.3141 0.75 5.6314 1.375 0.62649 2.5 1.9293 2.5 2.8952 0 0.96589 0.5625 1.9831 1.25 2.2605s1.2865 0.53991 1.3311 0.58333c0.0446 0.0434 1.1424-3.0989 2.4396-6.983zm42.46-41.608-1.6847-2.5712-2.0926 2.0926c-1.1509 1.1509-1.8926 2.2175-1.6481 2.3703 6.38 3.9875 8.7387 3.1651 5.4253-1.8917zm-19.464 0.4797c2.663-3.1898 2.663-3.1898 6.224-1.5 6 2.8472 11.691 0.97738 9.1738-3.0139-1.0648-1.688-8.1475-2.5382-9.0452-1.0858-0.30817 0.49863-1.755 0.66582-3.2151 0.37152-3.0692-0.61861-10.968 5.2925-9.7364 7.2859 1.2494 2.0215 3.8776 1.202 6.5989-2.0577zm-3.7816-7.1954c2.448-1.6613 4.3873-2.2302 6.3896-1.8747 2.0188 0.3585 2.577 0.19093 1.8748-0.56278-1.0198-1.0945-12.489-3.2752-13.625-2.5905-0.71694 0.4321-0.8728 5.5385-0.20337 6.6632 0.72458 1.2174 1.8464 0.88768 5.564-1.6352zm-49.857-9.758c0.36556-1.8278 0.14899-3.7211-0.5175-4.5242-1.6733-2.0162-0.25449-2.8329 2.6346-1.5166 2.8288 1.2889 3.2261 3.3399 1.0042 5.1839-0.825 0.68469-1.5 1.8648-1.5 2.6224 0 0.75766-0.50625 1.3776-1.125 1.3776-0.72805 0-0.90319-1.109-0.49637-3.1432zm38.373-3.6983c-2.227-1.344-3.852-4.1586-2.401-4.1586 2.5081 0 6.6492 2.5521 6.6492 4.0978 0 2.2542-0.59954 2.2628-4.2482 0.06075z" fill="#020101"/></g></g></svg>
