<svg width="62.596mm" height="59.719mm" version="1.1" viewBox="0 0 62.596 59.719" xmlns="http://www.w3.org/2000/svg"><defs><clipPath id="presentation_clip_path-3"><rect width="6e3" height="6e3"/></clipPath></defs><g transform="translate(-18.831 -54.322)"><path d="m36.561 55.118a5.5601 5.5601 0 0 0-0.5803 0.03662l-0.17624 1.0199a4.5677 4.5677 0 0 0-0.8366 0.22578l-0.663-0.79638a5.5601 5.5601 0 0 0-1.008 0.58144l0.35806 0.97344a4.5677 4.5677 0 0 0-0.61342 0.61087l-0.97267-0.35835a5.5601 5.5601 0 0 0-0.58303 1.0063l0.80046 0.66707a4.5677 4.5677 0 0 0-0.2242 0.83387l-1.0293 0.17735a5.5601 5.5601 0 0 0-0.03188 0.58226 5.5601 5.5601 0 0 0 0.03662 0.58029l1.0199 0.17625a4.5677 4.5677 0 0 0 0.22578 0.8366l-0.79648 0.66299a5.5601 5.5601 0 0 0 0.58149 1.008l0.97345-0.35806a4.5677 4.5677 0 0 0 0.61092 0.61346l-0.35835 0.97272a5.5601 5.5601 0 0 0 1.0063 0.58298l0.66703-0.80046a4.5677 4.5677 0 0 0 0.83383 0.22425l0.17735 1.0293a5.5601 5.5601 0 0 0 0.58226 0.03187 5.5601 5.5601 0 0 0 0.58029-0.03662l0.17624-1.0199a4.5677 4.5677 0 0 0 0.83665-0.22578l0.66294 0.79638a5.5601 5.5601 0 0 0 1.008-0.5814l-0.35802-0.97344a4.5677 4.5677 0 0 0 0.61346-0.61092l0.97268 0.35831a5.5601 5.5601 0 0 0 0.58303-1.0063l-0.80046-0.66702a4.5677 4.5677 0 0 0 0.22425-0.83382l1.0292-0.17735a5.5601 5.5601 0 0 0 0.03195-0.58226 5.5601 5.5601 0 0 0-0.03662-0.5803l-1.0199-0.17625a4.5677 4.5677 0 0 0-0.22573-0.8366l0.79638-0.66295a5.5601 5.5601 0 0 0-0.58145-1.008l-0.97349 0.35806a4.5677 4.5677 0 0 0-0.61087-0.61346l0.35835-0.97268a5.5601 5.5601 0 0 0-1.0063-0.58298l-0.66707 0.80046a4.5677 4.5677 0 0 0-0.83387-0.22424l-0.17735-1.0293a5.5601 5.5601 0 0 0-0.58226-0.03191zm4.5e-5 3.8713a1.6888 1.6888 0 0 1 1.6888 1.6888 1.6888 1.6888 0 0 1-1.6888 1.6888 1.6888 1.6888 0 0 1-1.6888-1.6888 1.6888 1.6888 0 0 1 1.6888-1.6888z" fill="#ff7000" stroke-width=".037079"/><ellipse cx="102.92" cy="127.61" rx="68.173" ry="0" fill="#00ff59" stroke-width=".26458"/><g transform="matrix(.0062061 0 0 .0062061 31.315 67.302)"><g><g stroke-width="290.08"><path d="m4932 1427.2-866.99 320.83-1020.5-386.79 865.69-318.98z" fill="#0000f7"/><path d="m5684.1 1134.9-719.14 283.07-1011.9-384.25 721.93-277.75z" fill="#fd8000"/><path d="m4653.7 770.02-743.53 272.21-860.48-321.19 725.32-285.05z" fill="#e00000"/><path d="m3775 436-751.19 280.58-755.33-286.9 726.52-283.68z" fill="#078230"/><path d="m3869.3 1034.2-857.67 319.6-863.47-311.64 875.61-325.59z" fill="#f3f300"/><path d="m3007.3 704.54-897.76 320.15-742.49-277.92 872.94-320.77z" fill="#fff"/><path d="m2096.7 1033-1046.7 395.02-752.14-286.19 1042.1-385.81z" fill="#0000f7"/><path d="m2973.4 1361.7-1023.4 386.31-874.1-312.51 1048.3-386.51z" fill="#fff"/></g><path d="m4046.4 1762.4-1046.4 404.55-1027.7-409.09 1034.3-384.17z" fill="#e00000" stroke-width="290.08"/><path d="m4853 2602.7 785.4-350 83.012-1063.3-827.91 296.67z" fill="#f3f300" stroke-width="551.79"/><path d="m3019 3423 975.1-434.23 24.069-1185-1001.2 366z" fill="#fff" stroke-width="525.25"/><path d="m3987.6 2996.9 873.1-384.79 50.485-1119.9-896.85 306.69z" fill="#fd8000" stroke-width="544.85"/><path d="m3941.5 4193.1 849.57-416.91 44.248-1115.4-883.75 357.69z" fill="#078230" stroke-width="537.81"/><path d="m4799.1 3724 754.56-400.54 90.39-1080.1-780.3 344.07z" fill="#fff" stroke-width="537.51"/><path d="m3945.2 5213.8 802.66-515.42 42.612-936.45-866.79 457.52z" fill="#e00000" stroke-width="547.54"/><path d="m3033.5 4727.8 934.91-512.42 23.793-1217.9-976.98 428.4z" fill="#e00000" stroke-width="518.23"/><path d="m4770.5 4675.1 731.53-466.71 60.859-895.58-762.35 406.6z" fill="#0000f7" stroke-width="558.17"/><path d="m3037.9 5829.5 911.71-615.62 26.665-1003.5-951.5 519.63z" fill="#fff" stroke-width="525.8"/><path d="m2980.3 4732.3-940.25-500.74-31.432-1240.2 984.34 441.2z" fill="#078230" stroke-width="518.23"/><path d="m2998.6 3458.9-978.46-445.69-26.928-1201 1016.7 368.02z" fill="#0000f7" stroke-width="530.46"/><path d="m2027.6 3016.6-862.23-355.19-54.661-1166.3 921.56 324.41z" fill="#078230" stroke-width="557.91"/><path d="m1169.5 2603.8-813.67-352.32-77.32-1039.4 842.45 273.21z" fill="#f3f300" stroke-width="545.95"/><path d="m2050.1 4161.9-824.68-389.29-55.896-1109.5 874.1 348.93z" fill="#e00000" stroke-width="527.83"/><path d="m2056.3 5228.4-793.17-505.71-38.031-982.97 818.13 450.11z" fill="#f3f300" stroke-width="568.06"/><path d="m1237.2 3710.9-799.56-405-79.963-1061.1 821.39 336.78z" fill="#fd8000" stroke-width="527.23"/><path d="m1257.5 4700-752.94-490.01-66.969-904.14 771.77 409.96z" fill="#078230" stroke-width="549.73"/><path d="m2976.3 5842.6-901.46-615.33-13.722-1007.7 932.42 519.11z" fill="#fd8000" stroke-width="745.76"/></g><g class="SlideGroup" transform="matrix(1,0,0,-1,0,6002)"><g class="Slide" clip-path="url(#presentation_clip_path-3)"><g class="Page"><g class="Group"><g class="com.sun.star.drawing.LineShape"><g fill="none"><rect class="BoundingBox" x="2947" y="142" width="107" height="3707"/><path d="m3e3 3795v-3600" stroke="#000" stroke-linecap="round" stroke-width="106"/></g></g><g class="com.sun.star.drawing.LineShape"><g fill="none"><rect class="BoundingBox" x="473" y="118" width="2555" height="1705"/><path d="m500 1795 2500-1650" stroke="#000" stroke-linecap="round" stroke-width="53"/></g></g><g class="com.sun.star.drawing.LineShape"><g fill="none"><rect class="BoundingBox" x="243" y="1768" width="285" height="3115"/><path d="m270 4855 230-3060" stroke="#000" stroke-linecap="round" stroke-width="53"/></g></g><g class="com.sun.star.drawing.LineShape"><g fill="none"><rect class="BoundingBox" x="243" y="4837" width="2780" height="1047"/><path d="m2995 5856-2725-992" stroke="#000" stroke-linecap="round" stroke-width="53"/></g></g><g class="com.sun.star.drawing.LineShape"><g fill="none"><rect class="BoundingBox" x="2973" y="4837" width="2780" height="1047"/><path d="m3e3 5856 2725-992" stroke="#000" stroke-linecap="round" stroke-width="53"/></g></g><g class="com.sun.star.drawing.LineShape"><g fill="none"><rect class="BoundingBox" x="247" y="3782" width="2807" height="1099"/><path d="m300 4827 2700-992" stroke="#000" stroke-linecap="round" stroke-width="106"/></g></g><g class="com.sun.star.drawing.LineShape"><g fill="none"><rect class="BoundingBox" x="1313" y="4227" width="2780" height="1047"/><path d="m4065 4254-2725 992" stroke="#000" stroke-linecap="round" stroke-width="53"/></g></g><g class="com.sun.star.drawing.LineShape"><g fill="none"><rect class="BoundingBox" x="1923" y="4227" width="2780" height="1047"/><path d="m1950 4254 2725 992" stroke="#000" stroke-linecap="round" stroke-width="53"/></g></g><g class="com.sun.star.drawing.LineShape"><g fill="none"><rect class="BoundingBox" x="2213" y="4557" width="2780" height="1047"/><path d="m4965 4584-2725 992" stroke="#000" stroke-linecap="round" stroke-width="53"/></g></g><g class="com.sun.star.drawing.LineShape"><g fill="none"><rect class="BoundingBox" x="1023" y="4547" width="2780" height="1047"/><path d="m1050 4574 2725 992" stroke="#000" stroke-linecap="round" stroke-width="53"/></g></g><g class="com.sun.star.drawing.LineShape"><g fill="none"><rect class="BoundingBox" x="2973" y="118" width="2555" height="1705"/><path d="m5500 1795-2500-1650" stroke="#000" stroke-linecap="round" stroke-width="53"/></g></g><g class="com.sun.star.drawing.LineShape"><g fill="none"><rect class="BoundingBox" x="5473" y="1768" width="285" height="3115"/><path d="m5730 4855-230-3060" stroke="#000" stroke-linecap="round" stroke-width="53"/></g></g><g class="com.sun.star.drawing.LineShape"><g fill="none"><rect class="BoundingBox" x="2947" y="3782" width="2807" height="1099"/><path d="m5700 4827-2700-992" stroke="#000" stroke-linecap="round" stroke-width="106"/></g></g><g class="com.sun.star.drawing.CustomShape" transform="translate(8.4831 -47.941)"><rect class="BoundingBox" x="1039" y="1293" width="248" height="3304" fill="none"/><path d="m1181 1363-141 3228 104-66 141-3227zm3-70zm-43 3303z"/></g><g class="com.sun.star.drawing.CustomShape" transform="translate(1.4774 -20.245)"><rect class="BoundingBox" x="4740" y="1292" width="248" height="3304" fill="none"/><path d="m4882 4525-141-3228 104 66 141 3227zm3 70zm-43-3303z"/></g><g class="com.sun.star.drawing.CustomShape" transform="translate(10.749 -21.497)"><rect class="BoundingBox" x="1919" y="744" width="164" height="3504" fill="none"/><path d="m1979 818-60 3427 103-73 60-3426zm2-74zm39 3503z"/></g><g class="com.sun.star.drawing.CustomShape" transform="translate(9.1396 -3.058)"><rect class="BoundingBox" x="3920" y="743" width="164" height="3504" fill="none"/><path d="m3980 4172-60-3427 103 73 60 3426zm2 74zm39-3503z"/></g><g class="com.sun.star.drawing.CustomShape" transform="translate(0 -52.917)"><rect class="BoundingBox" x="342" y="2511" width="2717" height="1320" fill="none"/><path d="m380 3719 2650-1208-11 111-2650 1207zm-37 17zm2714-1132z"/></g><g class="com.sun.star.drawing.CustomShape" transform="translate(0 52.917)"><rect class="BoundingBox" x="399" y="1193" width="2625" height="1531" fill="none"/><path d="m433 2613 2560-1419-5 110-2559 1418zm-34 18zm2624-1346z"/></g><g class="com.sun.star.drawing.CustomShape" transform="translate(0 52.917)"><rect class="BoundingBox" x="2988" y="1193" width="2627" height="1531" fill="none"/><path d="m5579 2613-2560-1419 5 110 2559 1418zm34 19zm-2624-1348z"/></g><g class="com.sun.star.drawing.CustomShape" transform="translate(0 -52.917)"><rect class="BoundingBox" x="2952" y="2512" width="2717" height="1320" fill="none"/><path d="m5630 3720-2650-1208 11 111 2650 1207zm37 17zm-2714-1132z"/></g></g></g></g></g></g><g><g stroke-width=".037079"><path d="m60.991 56.14a5.5601 5.5601 0 0 0-0.5803 0.03662l-0.17624 1.0199a4.5677 4.5677 0 0 0-0.8366 0.22578l-0.663-0.79638a5.5601 5.5601 0 0 0-1.008 0.58144l0.35806 0.97344a4.5677 4.5677 0 0 0-0.61342 0.61087l-0.97267-0.35835a5.5601 5.5601 0 0 0-0.58303 1.0063l0.80046 0.66707a4.5677 4.5677 0 0 0-0.2242 0.83387l-1.0293 0.17735a5.5601 5.5601 0 0 0-0.03188 0.58226 5.5601 5.5601 0 0 0 0.03662 0.58029l1.0199 0.17625a4.5677 4.5677 0 0 0 0.22578 0.8366l-0.79648 0.66299a5.5601 5.5601 0 0 0 0.58149 1.008l0.97345-0.35806a4.5677 4.5677 0 0 0 0.61092 0.61346l-0.35835 0.97272a5.5601 5.5601 0 0 0 1.0063 0.58298l0.66703-0.80046a4.5677 4.5677 0 0 0 0.83382 0.22424l0.17735 1.0293a5.5601 5.5601 0 0 0 0.58227 0.03188 5.5601 5.5601 0 0 0 0.58029-0.03663l0.17625-1.0199a4.5677 4.5677 0 0 0 0.83665-0.22578l0.66295 0.79638a5.5601 5.5601 0 0 0 1.008-0.5814l-0.35802-0.97344a4.5677 4.5677 0 0 0 0.61346-0.61092l0.97268 0.35831a5.5601 5.5601 0 0 0 0.58303-1.0063l-0.80046-0.66702a4.5677 4.5677 0 0 0 0.22425-0.83382l1.0292-0.17735a5.5601 5.5601 0 0 0 0.03194-0.58226 5.5601 5.5601 0 0 0-0.03662-0.58029l-1.0199-0.17625a4.5677 4.5677 0 0 0-0.22573-0.8366l0.79638-0.66294a5.5601 5.5601 0 0 0-0.58144-1.0081l-0.9735 0.35806a4.5677 4.5677 0 0 0-0.61087-0.61346l0.35835-0.97268a5.5601 5.5601 0 0 0-1.0063-0.58298l-0.66707 0.80046a4.5677 4.5677 0 0 0-0.83387-0.22425l-0.17735-1.0293a5.5601 5.5601 0 0 0-0.58226-0.03191zm4.4e-5 3.8713a1.6888 1.6888 0 0 1 1.6888 1.6888 1.6888 1.6888 0 0 1-1.6888 1.6888 1.6888 1.6888 0 0 1-1.6888-1.6888 1.6888 1.6888 0 0 1 1.6888-1.6888z" fill="#078230"/><path d="m75.366 77.458a5.5601 5.5601 0 0 0-0.5803 0.03663l-0.17624 1.0199a4.5677 4.5677 0 0 0-0.8366 0.22578l-0.663-0.79638a5.5601 5.5601 0 0 0-1.008 0.58144l0.35806 0.97345a4.5677 4.5677 0 0 0-0.61342 0.61087l-0.97267-0.35836a5.5601 5.5601 0 0 0-0.58303 1.0063l0.80046 0.66707a4.5677 4.5677 0 0 0-0.2242 0.83387l-1.0293 0.17735a5.5601 5.5601 0 0 0-0.03187 0.58226 5.5601 5.5601 0 0 0 0.03662 0.58029l1.0199 0.17625a4.5677 4.5677 0 0 0 0.22578 0.8366l-0.79648 0.66299a5.5601 5.5601 0 0 0 0.58149 1.008l0.97345-0.35806a4.5677 4.5677 0 0 0 0.61092 0.61346l-0.35835 0.97272a5.5601 5.5601 0 0 0 1.0063 0.58298l0.66703-0.80046a4.5677 4.5677 0 0 0 0.83382 0.22424l0.17735 1.0293a5.5601 5.5601 0 0 0 0.58227 0.03187 5.5601 5.5601 0 0 0 0.58029-0.03662l0.17624-1.0199a4.5677 4.5677 0 0 0 0.83665-0.22578l0.66294 0.79638a5.5601 5.5601 0 0 0 1.008-0.5814l-0.35802-0.97344a4.5677 4.5677 0 0 0 0.61346-0.61092l0.97268 0.3583a5.5601 5.5601 0 0 0 0.58303-1.0063l-0.80046-0.66702a4.5677 4.5677 0 0 0 0.22425-0.83382l1.0292-0.17735a5.5601 5.5601 0 0 0 0.03195-0.58226 5.5601 5.5601 0 0 0-0.03662-0.5803l-1.0199-0.17624a4.5677 4.5677 0 0 0-0.22573-0.8366l0.79638-0.66294a5.5601 5.5601 0 0 0-0.58145-1.008l-0.97349 0.35806a4.5677 4.5677 0 0 0-0.61087-0.61346l0.35835-0.97268a5.5601 5.5601 0 0 0-1.0063-0.58298l-0.66707 0.80046a4.5677 4.5677 0 0 0-0.83387-0.22424l-0.17735-1.0293a5.5601 5.5601 0 0 0-0.58226-0.03191zm4.4e-5 3.8713a1.6888 1.6888 0 0 1 1.6888 1.6888 1.6888 1.6888 0 0 1-1.6888 1.6888 1.6888 1.6888 0 0 1-1.6888-1.6888 1.6888 1.6888 0 0 1 1.6888-1.6888z" fill="#fed000"/><path d="m63.942 102.37a5.5601 5.5601 0 0 0-0.5803 0.0366l-0.17624 1.0199a4.5677 4.5677 0 0 0-0.8366 0.22577l-0.663-0.79637a5.5601 5.5601 0 0 0-1.008 0.58145l0.35806 0.97344a4.5677 4.5677 0 0 0-0.61342 0.61087l-0.97267-0.35836a5.5601 5.5601 0 0 0-0.58303 1.0063l0.80046 0.66708a4.5677 4.5677 0 0 0-0.2242 0.83387l-1.0293 0.17736a5.5601 5.5601 0 0 0-0.03188 0.58225 5.5601 5.5601 0 0 0 0.03662 0.58029l1.0199 0.17625a4.5677 4.5677 0 0 0 0.22578 0.83661l-0.79648 0.66299a5.5601 5.5601 0 0 0 0.58149 1.0079l0.97345-0.35806a4.5677 4.5677 0 0 0 0.61092 0.61346l-0.35835 0.97273a5.5601 5.5601 0 0 0 1.0063 0.58298l0.66703-0.80045a4.5677 4.5677 0 0 0 0.83382 0.22424l0.17735 1.0293a5.5601 5.5601 0 0 0 0.58226 0.0319 5.5601 5.5601 0 0 0 0.58029-0.0365l0.17624-1.0198a4.5677 4.5677 0 0 0 0.83665-0.22578l0.66294 0.79638a5.5601 5.5601 0 0 0 1.008-0.5814l-0.35801-0.97345a4.5677 4.5677 0 0 0 0.61346-0.6109l0.97268 0.3583a5.5601 5.5601 0 0 0 0.58303-1.0063l-0.80046-0.66703a4.5677 4.5677 0 0 0 0.22425-0.83383l1.0292-0.17735a5.5601 5.5601 0 0 0 0.03195-0.58226 5.5601 5.5601 0 0 0-0.03662-0.58029l-1.0199-0.17625a4.5677 4.5677 0 0 0-0.22573-0.8366l0.79638-0.66295a5.5601 5.5601 0 0 0-0.58144-1.008l-0.9735 0.35806a4.5677 4.5677 0 0 0-0.61087-0.61346l0.35835-0.97268a5.5601 5.5601 0 0 0-1.0063-0.58298l-0.66707 0.80046a4.5677 4.5677 0 0 0-0.83387-0.22424l-0.17735-1.0293a5.5601 5.5601 0 0 0-0.58226-0.0319zm4.5e-5 3.8713a1.6888 1.6888 0 0 1 1.6888 1.6888 1.6888 1.6888 0 0 1-1.6888 1.6888 1.6888 1.6888 0 0 1-1.6888-1.6888 1.6888 1.6888 0 0 1 1.6888-1.6888z"/><path d="m36.779 101.08a5.5601 5.5601 0 0 0-0.5803 0.0367l-0.17624 1.0199a4.5677 4.5677 0 0 0-0.8366 0.22579l-0.663-0.79638a5.5601 5.5601 0 0 0-1.008 0.58144l0.35806 0.97344a4.5677 4.5677 0 0 0-0.61341 0.61087l-0.97267-0.35836a5.5601 5.5601 0 0 0-0.58303 1.0063l0.80046 0.66706a4.5677 4.5677 0 0 0-0.2242 0.83388l-1.0293 0.17734a5.5601 5.5601 0 0 0-0.03188 0.58227 5.5601 5.5601 0 0 0 0.03662 0.58029l1.0199 0.17625a4.5677 4.5677 0 0 0 0.22578 0.8366l-0.79648 0.66298a5.5601 5.5601 0 0 0 0.58149 1.008l0.97345-0.35806a4.5677 4.5677 0 0 0 0.61092 0.61346l-0.35835 0.97273a5.5601 5.5601 0 0 0 1.0063 0.58298l0.66703-0.80047a4.5677 4.5677 0 0 0 0.83382 0.22426l0.17735 1.0292a5.5601 5.5601 0 0 0 0.58226 0.0319 5.5601 5.5601 0 0 0 0.58029-0.0366l0.17624-1.0199a4.5677 4.5677 0 0 0 0.83665-0.22577l0.66295 0.79638a5.5601 5.5601 0 0 0 1.008-0.58141l-0.35801-0.97343a4.5677 4.5677 0 0 0 0.61346-0.61092l0.97268 0.35829a5.5601 5.5601 0 0 0 0.58303-1.0063l-0.80046-0.66703a4.5677 4.5677 0 0 0 0.22425-0.83383l1.0292-0.17733a5.5601 5.5601 0 0 0 0.03195-0.58228 5.5601 5.5601 0 0 0-0.03662-0.58028l-1.0199-0.17626a4.5677 4.5677 0 0 0-0.22573-0.8366l0.79638-0.66294a5.5601 5.5601 0 0 0-0.58145-1.008l-0.9735 0.35806a4.5677 4.5677 0 0 0-0.61087-0.61345l0.35835-0.97268a5.5601 5.5601 0 0 0-1.0063-0.58298l-0.66707 0.80045a4.5677 4.5677 0 0 0-0.83387-0.22421l-0.17735-1.0293a5.5601 5.5601 0 0 0-0.58226-0.0319zm4.5e-5 3.8713a1.6888 1.6888 0 0 1 1.6888 1.6888 1.6888 1.6888 0 0 1-1.6888 1.6888 1.6888 1.6888 0 0 1-1.6888-1.6888 1.6888 1.6888 0 0 1 1.6888-1.6888z" fill="#e00000"/><path d="m24.891 76.989a5.5601 5.5601 0 0 0-0.5803 0.03662l-0.17624 1.0199a4.5677 4.5677 0 0 0-0.8366 0.22578l-0.663-0.79638a5.5601 5.5601 0 0 0-1.008 0.58144l0.35806 0.97345a4.5677 4.5677 0 0 0-0.61342 0.61087l-0.97267-0.35835a5.5601 5.5601 0 0 0-0.58303 1.0063l0.80046 0.66707a4.5677 4.5677 0 0 0-0.2242 0.83387l-1.0293 0.17735a5.5601 5.5601 0 0 0-0.03188 0.58226 5.5601 5.5601 0 0 0 0.03662 0.58029l1.0199 0.17625a4.5677 4.5677 0 0 0 0.22578 0.8366l-0.79648 0.66299a5.5601 5.5601 0 0 0 0.58149 1.008l0.97345-0.35806a4.5677 4.5677 0 0 0 0.61092 0.61346l-0.35835 0.97272a5.5601 5.5601 0 0 0 1.0063 0.58298l0.66703-0.80046a4.5677 4.5677 0 0 0 0.83382 0.22425l0.17735 1.0293a5.5601 5.5601 0 0 0 0.58227 0.03188 5.5601 5.5601 0 0 0 0.58029-0.03662l0.17624-1.0199a4.5677 4.5677 0 0 0 0.83665-0.22578l0.66294 0.79638a5.5601 5.5601 0 0 0 1.008-0.5814l-0.35801-0.97344a4.5677 4.5677 0 0 0 0.61346-0.61092l0.97268 0.35831a5.5601 5.5601 0 0 0 0.58303-1.0063l-0.80046-0.66702a4.5677 4.5677 0 0 0 0.22425-0.83382l1.0292-0.17735a5.5601 5.5601 0 0 0 0.03195-0.58226 5.5601 5.5601 0 0 0-0.03662-0.5803l-1.0199-0.17625a4.5677 4.5677 0 0 0-0.22573-0.8366l0.79638-0.66294a5.5601 5.5601 0 0 0-0.58145-1.008l-0.9735 0.35806a4.5677 4.5677 0 0 0-0.61087-0.61346l0.35835-0.97268a5.5601 5.5601 0 0 0-1.0063-0.58298l-0.66707 0.80046a4.5677 4.5677 0 0 0-0.83387-0.22425l-0.17735-1.0293a5.5601 5.5601 0 0 0-0.58226-0.03191zm4.5e-5 3.8713a1.6888 1.6888 0 0 1 1.6888 1.6888 1.6888 1.6888 0 0 1-1.6888 1.6888 1.6888 1.6888 0 0 1-1.6888-1.6888 1.6888 1.6888 0 0 1 1.6888-1.6888z" fill="#00f"/></g><g font-family="sans-serif" font-size="4.5121px" letter-spacing="0px" stroke-width=".1128" word-spacing="0px"><text x="46.973824" y="60.793255" fill="#000000" style="line-height:1.25" xml:space="preserve"><tspan x="46.973824" y="60.793255" fill="#000000" font-family="Ubuntu" font-size="8.4226px" font-weight="500" stroke-width=".1128" style="line-height:1.25">?</tspan></text><text transform="rotate(30)" x="95.293991" y="23.236847" fill="#ff0000" style="line-height:1.25" xml:space="preserve"><tspan x="95.293991" y="23.236847" fill="#ff0000" font-family="Ubuntu" font-size="8.4226px" font-weight="500" stroke-width=".1128" style="line-height:1.25">?</tspan></text><text transform="rotate(120)" x="46.467381" y="-111.16116" fill="#0000ff" style="line-height:1.25" xml:space="preserve"><tspan x="46.467381" y="-111.16116" fill="#0000ff" font-family="Ubuntu" font-size="8.4226px" font-weight="500" stroke-width=".1128" style="line-height:1.25">?</tspan></text><text transform="scale(-1)" x="-50.503643" y="-107.56873" fill="#ff7000" style="line-height:1.25" xml:space="preserve"><tspan x="-50.503643" y="-107.56873" fill="#ff7000" font-family="Ubuntu" font-size="8.4226px" font-weight="500" stroke-width=".1128" style="line-height:1.25">?</tspan></text><text transform="rotate(240)" x="-100.78156" y="-22.420805" fill="#078230" style="line-height:1.25" xml:space="preserve"><tspan x="-100.78156" y="-22.420805" fill="#078230" font-family="Ubuntu" font-size="8.4226px" font-weight="500" stroke-width=".1128" style="line-height:1.25">?</tspan></text><text transform="rotate(-30)" x="-12.555163" y="75.373604" fill="#fed000" style="line-height:1.25" xml:space="preserve"><tspan x="-12.555163" y="75.373604" fill="#fed000" font-family="Ubuntu" font-size="8.4226px" font-weight="500" stroke-width=".1128" style="line-height:1.25">?</tspan></text></g></g></g></svg>
