<svg version="1.1" preserveAspectRatio="xMinYMin slice" xmlns="http://www.w3.org/2000/svg" width="468" height="540" viewBox="0 0 468 540"><!--{"isLandscape":false,"mapWidth":18,"mapHeight":18,"palette":["#11aaff","#F30000","#FFFFFF","#F3F300","#0000F7","#00E600","#FD8100","#F4DB05"]}--><path d="M0 135 L26 120 L26 150 Z" fill="#0000F7" rel="8"></path><path d="M0 135 L26 150 L0 165 Z" fill="#F30000" rel="9"></path><path d="M0 165 L26 150 L26 180 Z" fill="#F30000" rel="10"></path><path d="M0 165 L26 180 L0 195 Z" fill="#F30000" rel="11"></path><path d="M0 195 L26 180 L26 210 Z" fill="#F30000" rel="12"></path><path d="M0 195 L26 210 L0 225 Z" fill="#F30000" rel="13"></path><path d="M0 225 L26 210 L26 240 Z" fill="#F30000" rel="14"></path><path d="M0 225 L26 240 L0 255 Z" fill="#FD8100" rel="15"></path><path d="M0 255 L26 240 L26 270 Z" fill="#FD8100" rel="16"></path><path d="M0 255 L26 270 L0 285 Z" fill="#FD8100" rel="17"></path><path d="M0 285 L26 270 L26 300 Z" fill="#FD8100" rel="18"></path><path d="M0 285 L26 300 L0 315 Z" fill="#FD8100" rel="19"></path><path d="M0 315 L26 300 L26 330 Z" fill="#FD8100" rel="20"></path><path d="M0 315 L26 330 L0 345 Z" fill="#0000F7" rel="21"></path><path d="M0 345 L26 330 L26 360 Z" fill="#0000F7" rel="22"></path><path d="M0 345 L26 360 L0 375 Z" fill="#0000F7" rel="23"></path><path d="M0 375 L26 360 L26 390 Z" fill="#0000F7" rel="24"></path><path d="M0 375 L26 390 L0 405 Z" fill="#0000F7" rel="25"></path><path d="M0 405 L26 390 L26 420 Z" fill="#0000F7" rel="26"></path><path d="M26 120 L52 105 L52 135 Z" fill="#0000F7" rel="42"></path><path d="M26 120 L52 135 L26 150 Z" fill="#0000F7" rel="43"></path><path d="M26 150 L52 135 L52 165 Z" fill="#0000F7" rel="44"></path><path d="M26 150 L52 165 L26 180 Z" fill="#F30000" rel="45"></path><path d="M26 180 L52 165 L52 195 Z" fill="#F30000" rel="46"></path><path d="M26 180 L52 195 L26 210 Z" fill="#F30000" rel="47"></path><path d="M26 210 L52 195 L52 225 Z" fill="#F30000" rel="48"></path><path d="M26 210 L52 225 L26 240 Z" fill="#F30000" rel="49"></path><path d="M26 240 L52 225 L52 255 Z" fill="#F30000" rel="50"></path><path d="M26 240 L52 255 L26 270 Z" fill="#FD8100" rel="51"></path><path d="M26 270 L52 255 L52 285 Z" fill="#FD8100" rel="52"></path><path d="M26 270 L52 285 L26 300 Z" fill="#FD8100" rel="53"></path><path d="M26 300 L52 285 L52 315 Z" fill="#FD8100" rel="54"></path><path d="M26 300 L52 315 L26 330 Z" fill="#FD8100" rel="55"></path><path d="M26 330 L52 315 L52 345 Z" fill="#FD8100" rel="56"></path><path d="M26 330 L52 345 L26 360 Z" fill="#0000F7" rel="57"></path><path d="M26 360 L52 345 L52 375 Z" fill="#0000F7" rel="58"></path><path d="M26 360 L52 375 L26 390 Z" fill="#0000F7" rel="59"></path><path d="M26 390 L52 375 L52 405 Z" fill="#0000F7" rel="60"></path><path d="M26 390 L52 405 L26 420 Z" fill="#0000F7" rel="61"></path><path d="M26 420 L52 405 L52 435 Z" fill="#0000F7" rel="62"></path><path d="M52 105 L78 90 L78 120 Z" fill="#0000F7" rel="76"></path><path d="M52 105 L78 120 L52 135 Z" fill="#0000F7" rel="77"></path><path d="M52 135 L78 120 L78 150 Z" fill="#0000F7" rel="78"></path><path d="M52 135 L78 150 L52 165 Z" fill="#0000F7" rel="79"></path><path d="M52 165 L78 150 L78 180 Z" fill="#0000F7" rel="80"></path><path d="M52 165 L78 180 L52 195 Z" fill="#F30000" rel="81"></path><path d="M52 195 L78 180 L78 210 Z" fill="#F30000" rel="82"></path><path d="M52 195 L78 210 L52 225 Z" fill="#F30000" rel="83"></path><path d="M52 225 L78 210 L78 240 Z" fill="#F30000" rel="84"></path><path d="M52 225 L78 240 L52 255 Z" fill="#F30000" rel="85"></path><path d="M52 255 L78 240 L78 270 Z" fill="#F30000" rel="86"></path><path d="M52 255 L78 270 L52 285 Z" fill="#FD8100" rel="87"></path><path d="M52 285 L78 270 L78 300 Z" fill="#FD8100" rel="88"></path><path d="M52 285 L78 300 L52 315 Z" fill="#FD8100" rel="89"></path><path d="M52 315 L78 300 L78 330 Z" fill="#FD8100" rel="90"></path><path d="M52 315 L78 330 L52 345 Z" fill="#FD8100" rel="91"></path><path d="M52 345 L78 330 L78 360 Z" fill="#FD8100" rel="92"></path><path d="M52 345 L78 360 L52 375 Z" fill="#0000F7" rel="93"></path><path d="M52 375 L78 360 L78 390 Z" fill="#0000F7" rel="94"></path><path d="M52 375 L78 390 L52 405 Z" fill="#0000F7" rel="95"></path><path d="M52 405 L78 390 L78 420 Z" fill="#0000F7" rel="96"></path><path d="M52 405 L78 420 L52 435 Z" fill="#0000F7" rel="97"></path><path d="M52 435 L78 420 L78 450 Z" fill="#0000F7" rel="98"></path><path d="M78 90 L104 75 L104 105 Z" fill="#FD8100" rel="110"></path><path d="M78 90 L104 105 L78 120 Z" fill="#0000F7" rel="111"></path><path d="M78 120 L104 105 L104 135 Z" fill="#0000F7" rel="112"></path><path d="M78 120 L104 135 L78 150 Z" fill="#0000F7" rel="113"></path><path d="M78 150 L104 135 L104 165 Z" fill="#0000F7" rel="114"></path><path d="M78 150 L104 165 L78 180 Z" fill="#0000F7" rel="115"></path><path d="M78 180 L104 195 L78 210 Z" fill="#F30000" rel="117"></path><path d="M78 210 L104 195 L104 225 Z" fill="#F30000" rel="118"></path><path d="M78 210 L104 225 L78 240 Z" fill="#F30000" rel="119"></path><path d="M78 240 L104 225 L104 255 Z" fill="#F30000" rel="120"></path><path d="M78 240 L104 255 L78 270 Z" fill="#F30000" rel="121"></path><path d="M78 270 L104 255 L104 285 Z" fill="#F30000" rel="122"></path><path d="M78 270 L104 285 L78 300 Z" fill="#F30000" rel="123"></path><path d="M78 300 L104 285 L104 315 Z" fill="#F30000" rel="124"></path><path d="M78 300 L104 315 L78 330 Z" fill="#F30000" rel="125"></path><path d="M78 330 L104 315 L104 345 Z" fill="#F30000" rel="126"></path><path d="M78 330 L104 345 L78 360 Z" fill="#F30000" rel="127"></path><path d="M78 360 L104 345 L104 375 Z" fill="#F30000" rel="128"></path><path d="M78 360 L104 375 L78 390 Z" fill="#00E600" rel="129"></path><path d="M78 390 L104 375 L104 405 Z" fill="#00E600" rel="130"></path><path d="M78 390 L104 405 L78 420 Z" fill="#00E600" rel="131"></path><path d="M78 420 L104 405 L104 435 Z" fill="#00E600" rel="132"></path><path d="M78 420 L104 435 L78 450 Z" fill="#00E600" rel="133"></path><path d="M78 450 L104 435 L104 465 Z" fill="#00E600" rel="134"></path><path d="M104 75 L130 60 L130 90 Z" fill="#FD8100" rel="144"></path><path d="M104 75 L130 90 L104 105 Z" fill="#FD8100" rel="145"></path><path d="M104 105 L130 90 L130 120 Z" fill="#FD8100" rel="146"></path><path d="M104 105 L130 120 L104 135 Z" fill="#0000F7" rel="147"></path><path d="M104 135 L130 120 L130 150 Z" fill="#0000F7" rel="148"></path><path d="M104 135 L130 150 L104 165 Z" fill="#0000F7" rel="149"></path><path d="M104 195 L130 210 L104 225 Z" fill="#F30000" rel="153"></path><path d="M104 225 L130 210 L130 240 Z" fill="#F30000" rel="154"></path><path d="M104 225 L130 240 L104 255 Z" fill="#F30000" rel="155"></path><path d="M104 255 L130 240 L130 270 Z" fill="#F30000" rel="156"></path><path d="M104 255 L130 270 L104 285 Z" fill="#F30000" rel="157"></path><path d="M104 285 L130 270 L130 300 Z" fill="#F30000" rel="158"></path><path d="M104 285 L130 300 L104 315 Z" fill="#F30000" rel="159"></path><path d="M104 315 L130 300 L130 330 Z" fill="#F30000" rel="160"></path><path d="M104 315 L130 330 L104 345 Z" fill="#F30000" rel="161"></path><path d="M104 345 L130 330 L130 360 Z" fill="#F30000" rel="162"></path><path d="M104 345 L130 360 L104 375 Z" fill="#F30000" rel="163"></path><path d="M104 375 L130 360 L130 390 Z" fill="#F30000" rel="164"></path><path d="M104 375 L130 390 L104 405 Z" fill="#00E600" rel="165"></path><path d="M104 405 L130 390 L130 420 Z" fill="#00E600" rel="166"></path><path d="M104 405 L130 420 L104 435 Z" fill="#00E600" rel="167"></path><path d="M104 435 L130 420 L130 450 Z" fill="#00E600" rel="168"></path><path d="M104 435 L130 450 L104 465 Z" fill="#00E600" rel="169"></path><path d="M104 465 L130 450 L130 480 Z" fill="#00E600" rel="170"></path><path d="M130 60 L156 45 L156 75 Z" fill="#FD8100" rel="178"></path><path d="M130 60 L156 75 L130 90 Z" fill="#FD8100" rel="179"></path><path d="M130 90 L156 75 L156 105 Z" fill="#FD8100" rel="180"></path><path d="M130 90 L156 105 L130 120 Z" fill="#FD8100" rel="181"></path><path d="M130 120 L156 105 L156 135 Z" fill="#FD8100" rel="182"></path><path d="M130 120 L156 135 L130 150 Z" fill="#0000F7" rel="183"></path><path d="M130 210 L156 225 L130 240 Z" fill="#F30000" rel="189"></path><path d="M130 240 L156 225 L156 255 Z" fill="#F30000" rel="190"></path><path d="M130 240 L156 255 L130 270 Z" fill="#F30000" rel="191"></path><path d="M130 270 L156 255 L156 285 Z" fill="#F30000" rel="192"></path><path d="M130 270 L156 285 L130 300 Z" fill="#F30000" rel="193"></path><path d="M130 300 L156 285 L156 315 Z" fill="#F30000" rel="194"></path><path d="M130 300 L156 315 L130 330 Z" fill="#F30000" rel="195"></path><path d="M130 330 L156 315 L156 345 Z" fill="#F30000" rel="196"></path><path d="M130 330 L156 345 L130 360 Z" fill="#F30000" rel="197"></path><path d="M130 360 L156 345 L156 375 Z" fill="#F30000" rel="198"></path><path d="M130 360 L156 375 L130 390 Z" fill="#F30000" rel="199"></path><path d="M130 390 L156 375 L156 405 Z" fill="#F30000" rel="200"></path><path d="M130 390 L156 405 L130 420 Z" fill="#00E600" rel="201"></path><path d="M130 420 L156 405 L156 435 Z" fill="#00E600" rel="202"></path><path d="M130 420 L156 435 L130 450 Z" fill="#00E600" rel="203"></path><path d="M130 450 L156 435 L156 465 Z" fill="#00E600" rel="204"></path><path d="M130 450 L156 465 L130 480 Z" fill="#00E600" rel="205"></path><path d="M130 480 L156 465 L156 495 Z" fill="#00E600" rel="206"></path><path d="M156 45 L182 30 L182 60 Z" fill="#00E600" rel="212"></path><path d="M156 45 L182 60 L156 75 Z" fill="#FD8100" rel="213"></path><path d="M156 75 L182 60 L182 90 Z" fill="#FD8100" rel="214"></path><path d="M156 75 L182 90 L156 105 Z" fill="#FD8100" rel="215"></path><path d="M156 105 L182 90 L182 120 Z" fill="#FD8100" rel="216"></path><path d="M156 105 L182 120 L156 135 Z" fill="#FD8100" rel="217"></path><path d="M156 225 L182 210 L182 240 Z" fill="#F30000" rel="224"></path><path d="M156 225 L182 240 L156 255 Z" fill="#00E600" rel="225"></path><path d="M156 255 L182 240 L182 270 Z" fill="#00E600" rel="226"></path><path d="M156 255 L182 270 L156 285 Z" fill="#00E600" rel="227"></path><path d="M156 285 L182 270 L182 300 Z" fill="#00E600" rel="228"></path><path d="M156 285 L182 300 L156 315 Z" fill="#00E600" rel="229"></path><path d="M156 315 L182 300 L182 330 Z" fill="#00E600" rel="230"></path><path d="M156 315 L182 330 L156 345 Z" fill="#F30000" rel="231"></path><path d="M156 345 L182 330 L182 360 Z" fill="#F30000" rel="232"></path><path d="M156 345 L182 360 L156 375 Z" fill="#F30000" rel="233"></path><path d="M156 375 L182 360 L182 390 Z" fill="#F30000" rel="234"></path><path d="M156 375 L182 390 L156 405 Z" fill="#F30000" rel="235"></path><path d="M156 405 L182 390 L182 420 Z" fill="#F30000" rel="236"></path><path d="M156 405 L182 420 L156 435 Z" fill="#FD8100" rel="237"></path><path d="M156 435 L182 420 L182 450 Z" fill="#FD8100" rel="238"></path><path d="M156 435 L182 450 L156 465 Z" fill="#FD8100" rel="239"></path><path d="M156 465 L182 450 L182 480 Z" fill="#FD8100" rel="240"></path><path d="M156 465 L182 480 L156 495 Z" fill="#FD8100" rel="241"></path><path d="M156 495 L182 480 L182 510 Z" fill="#FD8100" rel="242"></path><path d="M182 30 L208 15 L208 45 Z" fill="#00E600" rel="246"></path><path d="M182 30 L208 45 L182 60 Z" fill="#00E600" rel="247"></path><path d="M182 60 L208 45 L208 75 Z" fill="#00E600" rel="248"></path><path d="M182 60 L208 75 L182 90 Z" fill="#FD8100" rel="249"></path><path d="M182 90 L208 75 L208 105 Z" fill="#FD8100" rel="250"></path><path d="M182 90 L208 105 L182 120 Z" fill="#FD8100" rel="251"></path><path d="M182 210 L208 195 L208 225 Z" fill="#F30000" rel="258"></path><path d="M182 210 L208 225 L182 240 Z" fill="#F30000" rel="259"></path><path d="M182 240 L208 225 L208 255 Z" fill="#F30000" rel="260"></path><path d="M182 240 L208 255 L182 270 Z" fill="#00E600" rel="261"></path><path d="M182 270 L208 255 L208 285 Z" fill="#00E600" rel="262"></path><path d="M182 270 L208 285 L182 300 Z" fill="#00E600" rel="263"></path><path d="M182 300 L208 285 L208 315 Z" fill="#00E600" rel="264"></path><path d="M182 300 L208 315 L182 330 Z" fill="#00E600" rel="265"></path><path d="M182 330 L208 315 L208 345 Z" fill="#00E600" rel="266"></path><path d="M182 330 L208 345 L182 360 Z" fill="#F30000" rel="267"></path><path d="M182 360 L208 345 L208 375 Z" fill="#F30000" rel="268"></path><path d="M182 360 L208 375 L182 390 Z" fill="#F30000" rel="269"></path><path d="M182 390 L208 375 L208 405 Z" fill="#F30000" rel="270"></path><path d="M182 390 L208 405 L182 420 Z" fill="#F30000" rel="271"></path><path d="M182 420 L208 405 L208 435 Z" fill="#F30000" rel="272"></path><path d="M182 420 L208 435 L182 450 Z" fill="#FD8100" rel="273"></path><path d="M182 450 L208 435 L208 465 Z" fill="#FD8100" rel="274"></path><path d="M182 450 L208 465 L182 480 Z" fill="#FD8100" rel="275"></path><path d="M182 480 L208 465 L208 495 Z" fill="#FD8100" rel="276"></path><path d="M182 480 L208 495 L182 510 Z" fill="#FD8100" rel="277"></path><path d="M182 510 L208 495 L208 525 Z" fill="#FD8100" rel="278"></path><path d="M208 15 L234 0 L234 30 Z" fill="#00E600" rel="280"></path><path d="M208 15 L234 30 L208 45 Z" fill="#00E600" rel="281"></path><path d="M208 45 L234 30 L234 60 Z" fill="#00E600" rel="282"></path><path d="M208 45 L234 60 L208 75 Z" fill="#00E600" rel="283"></path><path d="M208 75 L234 60 L234 90 Z" fill="#00E600" rel="284"></path><path d="M208 75 L234 90 L208 105 Z" fill="#FD8100" rel="285"></path><path d="M208 195 L234 180 L234 210 Z" fill="#F30000" rel="292"></path><path d="M208 195 L234 210 L208 225 Z" fill="#F30000" rel="293"></path><path d="M208 225 L234 210 L234 240 Z" fill="#F30000" rel="294"></path><path d="M208 225 L234 240 L208 255 Z" fill="#F30000" rel="295"></path><path d="M208 255 L234 240 L234 270 Z" fill="#F30000" rel="296"></path><path d="M208 255 L234 270 L208 285 Z" fill="#00E600" rel="297"></path><path d="M208 285 L234 270 L234 300 Z" fill="#00E600" rel="298"></path><path d="M208 285 L234 300 L208 315 Z" fill="#00E600" rel="299"></path><path d="M208 315 L234 300 L234 330 Z" fill="#00E600" rel="300"></path><path d="M208 315 L234 330 L208 345 Z" fill="#00E600" rel="301"></path><path d="M208 345 L234 330 L234 360 Z" fill="#00E600" rel="302"></path><path d="M208 345 L234 360 L208 375 Z" fill="#F30000" rel="303"></path><path d="M208 375 L234 360 L234 390 Z" fill="#F30000" rel="304"></path><path d="M208 375 L234 390 L208 405 Z" fill="#F30000" rel="305"></path><path d="M208 405 L234 390 L234 420 Z" fill="#F30000" rel="306"></path><path d="M208 405 L234 420 L208 435 Z" fill="#F30000" rel="307"></path><path d="M208 435 L234 420 L234 450 Z" fill="#F30000" rel="308"></path><path d="M208 435 L234 450 L208 465 Z" fill="#FD8100" rel="309"></path><path d="M208 465 L234 450 L234 480 Z" fill="#FD8100" rel="310"></path><path d="M208 465 L234 480 L208 495 Z" fill="#FD8100" rel="311"></path><path d="M208 495 L234 480 L234 510 Z" fill="#FD8100" rel="312"></path><path d="M208 495 L234 510 L208 525 Z" fill="#FD8100" rel="313"></path><path d="M208 525 L234 510 L234 540 Z" fill="#FD8100" rel="314"></path><path d="M234 0 L260 15 L234 30 Z" fill="#00E600" rel="315"></path><path d="M234 30 L260 15 L260 45 Z" fill="#00E600" rel="316"></path><path d="M234 30 L260 45 L234 60 Z" fill="#00E600" rel="317"></path><path d="M234 60 L260 45 L260 75 Z" fill="#00E600" rel="318"></path><path d="M234 60 L260 75 L234 90 Z" fill="#00E600" rel="319"></path><path d="M234 90 L260 75 L260 105 Z" fill="#0000F7" rel="320"></path><path d="M234 180 L260 195 L234 210 Z" fill="#F30000" rel="327"></path><path d="M234 210 L260 195 L260 225 Z" fill="#F30000" rel="328"></path><path d="M234 210 L260 225 L234 240 Z" fill="#F30000" rel="329"></path><path d="M234 240 L260 225 L260 255 Z" fill="#F30000" rel="330"></path><path d="M234 240 L260 255 L234 270 Z" fill="#F30000" rel="331"></path><path d="M234 270 L260 255 L260 285 Z" fill="#F3F300" rel="332"></path><path d="M234 270 L260 285 L234 300 Z" fill="#F3F300" rel="333"></path><path d="M234 300 L260 285 L260 315 Z" fill="#F3F300" rel="334"></path><path d="M234 300 L260 315 L234 330 Z" fill="#F3F300" rel="335"></path><path d="M234 330 L260 315 L260 345 Z" fill="#F3F300" rel="336"></path><path d="M234 330 L260 345 L234 360 Z" fill="#F3F300" rel="337"></path><path d="M234 360 L260 345 L260 375 Z" fill="#00E600" rel="338"></path><path d="M234 360 L260 375 L234 390 Z" fill="#00E600" rel="339"></path><path d="M234 390 L260 375 L260 405 Z" fill="#00E600" rel="340"></path><path d="M234 390 L260 405 L234 420 Z" fill="#00E600" rel="341"></path><path d="M234 420 L260 405 L260 435 Z" fill="#00E600" rel="342"></path><path d="M234 420 L260 435 L234 450 Z" fill="#00E600" rel="343"></path><path d="M234 450 L260 435 L260 465 Z" fill="#F3F300" rel="344"></path><path d="M234 450 L260 465 L234 480 Z" fill="#F3F300" rel="345"></path><path d="M234 480 L260 465 L260 495 Z" fill="#F3F300" rel="346"></path><path d="M234 480 L260 495 L234 510 Z" fill="#F3F300" rel="347"></path><path d="M234 510 L260 495 L260 525 Z" fill="#F3F300" rel="348"></path><path d="M234 510 L260 525 L234 540 Z" fill="#F3F300" rel="349"></path><path d="M260 15 L286 30 L260 45 Z" fill="#00E600" rel="351"></path><path d="M260 45 L286 30 L286 60 Z" fill="#00E600" rel="352"></path><path d="M260 45 L286 60 L260 75 Z" fill="#00E600" rel="353"></path><path d="M260 75 L286 60 L286 90 Z" fill="#0000F7" rel="354"></path><path d="M260 75 L286 90 L260 105 Z" fill="#0000F7" rel="355"></path><path d="M260 105 L286 90 L286 120 Z" fill="#0000F7" rel="356"></path><path d="M260 195 L286 210 L260 225 Z" fill="#F30000" rel="363"></path><path d="M260 225 L286 210 L286 240 Z" fill="#F30000" rel="364"></path><path d="M260 225 L286 240 L260 255 Z" fill="#F30000" rel="365"></path><path d="M260 255 L286 240 L286 270 Z" fill="#F3F300" rel="366"></path><path d="M260 255 L286 270 L260 285 Z" fill="#F3F300" rel="367"></path><path d="M260 285 L286 270 L286 300 Z" fill="#F3F300" rel="368"></path><path d="M260 285 L286 300 L260 315 Z" fill="#F3F300" rel="369"></path><path d="M260 315 L286 300 L286 330 Z" fill="#F3F300" rel="370"></path><path d="M260 315 L286 330 L260 345 Z" fill="#F3F300" rel="371"></path><path d="M260 345 L286 330 L286 360 Z" fill="#00E600" rel="372"></path><path d="M260 345 L286 360 L260 375 Z" fill="#00E600" rel="373"></path><path d="M260 375 L286 360 L286 390 Z" fill="#00E600" rel="374"></path><path d="M260 375 L286 390 L260 405 Z" fill="#00E600" rel="375"></path><path d="M260 405 L286 390 L286 420 Z" fill="#00E600" rel="376"></path><path d="M260 405 L286 420 L260 435 Z" fill="#00E600" rel="377"></path><path d="M260 435 L286 420 L286 450 Z" fill="#F3F300" rel="378"></path><path d="M260 435 L286 450 L260 465 Z" fill="#F3F300" rel="379"></path><path d="M260 465 L286 450 L286 480 Z" fill="#F3F300" rel="380"></path><path d="M260 465 L286 480 L260 495 Z" fill="#F3F300" rel="381"></path><path d="M260 495 L286 480 L286 510 Z" fill="#F3F300" rel="382"></path><path d="M260 495 L286 510 L260 525 Z" fill="#F3F300" rel="383"></path><path d="M286 30 L312 45 L286 60 Z" fill="#00E600" rel="387"></path><path d="M286 60 L312 45 L312 75 Z" fill="#0000F7" rel="388"></path><path d="M286 60 L312 75 L286 90 Z" fill="#0000F7" rel="389"></path><path d="M286 90 L312 75 L312 105 Z" fill="#0000F7" rel="390"></path><path d="M286 90 L312 105 L286 120 Z" fill="#0000F7" rel="391"></path><path d="M286 120 L312 105 L312 135 Z" fill="#0000F7" rel="392"></path><path d="M286 210 L312 225 L286 240 Z" fill="#F30000" rel="399"></path><path d="M286 240 L312 225 L312 255 Z" fill="#F3F300" rel="400"></path><path d="M286 240 L312 255 L286 270 Z" fill="#F3F300" rel="401"></path><path d="M286 270 L312 255 L312 285 Z" fill="#F3F300" rel="402"></path><path d="M286 270 L312 285 L286 300 Z" fill="#F3F300" rel="403"></path><path d="M286 300 L312 285 L312 315 Z" fill="#F3F300" rel="404"></path><path d="M286 300 L312 315 L286 330 Z" fill="#F3F300" rel="405"></path><path d="M286 330 L312 315 L312 345 Z" fill="#00E600" rel="406"></path><path d="M286 330 L312 345 L286 360 Z" fill="#00E600" rel="407"></path><path d="M286 360 L312 345 L312 375 Z" fill="#00E600" rel="408"></path><path d="M286 360 L312 375 L286 390 Z" fill="#00E600" rel="409"></path><path d="M286 390 L312 375 L312 405 Z" fill="#00E600" rel="410"></path><path d="M286 390 L312 405 L286 420 Z" fill="#00E600" rel="411"></path><path d="M286 420 L312 405 L312 435 Z" fill="#F3F300" rel="412"></path><path d="M286 420 L312 435 L286 450 Z" fill="#F3F300" rel="413"></path><path d="M286 450 L312 435 L312 465 Z" fill="#F3F300" rel="414"></path><path d="M286 450 L312 465 L286 480 Z" fill="#F3F300" rel="415"></path><path d="M286 480 L312 465 L312 495 Z" fill="#F3F300" rel="416"></path><path d="M286 480 L312 495 L286 510 Z" fill="#F3F300" rel="417"></path><path d="M312 45 L338 60 L312 75 Z" fill="#0000F7" rel="423"></path><path d="M312 75 L338 60 L338 90 Z" fill="#0000F7" rel="424"></path><path d="M312 75 L338 90 L312 105 Z" fill="#0000F7" rel="425"></path><path d="M312 105 L338 90 L338 120 Z" fill="#0000F7" rel="426"></path><path d="M312 105 L338 120 L312 135 Z" fill="#0000F7" rel="427"></path><path d="M312 135 L338 120 L338 150 Z" fill="#F4DB05" rel="428"></path><path d="M312 225 L338 210 L338 240 Z" fill="#0000F7" rel="434"></path><path d="M312 225 L338 240 L312 255 Z" fill="#0000F7" rel="435"></path><path d="M312 255 L338 240 L338 270 Z" fill="#0000F7" rel="436"></path><path d="M312 255 L338 270 L312 285 Z" fill="#0000F7" rel="437"></path><path d="M312 285 L338 270 L338 300 Z" fill="#0000F7" rel="438"></path><path d="M312 285 L338 300 L312 315 Z" fill="#0000F7" rel="439"></path><path d="M312 315 L338 300 L338 330 Z" fill="#0000F7" rel="440"></path><path d="M312 315 L338 330 L312 345 Z" fill="#0000F7" rel="441"></path><path d="M312 345 L338 330 L338 360 Z" fill="#0000F7" rel="442"></path><path d="M312 345 L338 360 L312 375 Z" fill="#0000F7" rel="443"></path><path d="M312 375 L338 360 L338 390 Z" fill="#0000F7" rel="444"></path><path d="M312 375 L338 390 L312 405 Z" fill="#0000F7" rel="445"></path><path d="M312 405 L338 390 L338 420 Z" fill="#0000F7" rel="446"></path><path d="M312 405 L338 420 L312 435 Z" fill="#0000F7" rel="447"></path><path d="M312 435 L338 420 L338 450 Z" fill="#0000F7" rel="448"></path><path d="M312 435 L338 450 L312 465 Z" fill="#0000F7" rel="449"></path><path d="M312 465 L338 450 L338 480 Z" fill="#0000F7" rel="450"></path><path d="M312 465 L338 480 L312 495 Z" fill="#0000F7" rel="451"></path><path d="M338 60 L364 75 L338 90 Z" fill="#0000F7" rel="459"></path><path d="M338 90 L364 75 L364 105 Z" fill="#0000F7" rel="460"></path><path d="M338 90 L364 105 L338 120 Z" fill="#0000F7" rel="461"></path><path d="M338 120 L364 105 L364 135 Z" fill="#F4DB05" rel="462"></path><path d="M338 120 L364 135 L338 150 Z" fill="#F4DB05" rel="463"></path><path d="M338 150 L364 135 L364 165 Z" fill="#F4DB05" rel="464"></path><path d="M338 210 L364 195 L364 225 Z" fill="#0000F7" rel="468"></path><path d="M338 210 L364 225 L338 240 Z" fill="#0000F7" rel="469"></path><path d="M338 240 L364 225 L364 255 Z" fill="#0000F7" rel="470"></path><path d="M338 240 L364 255 L338 270 Z" fill="#0000F7" rel="471"></path><path d="M338 270 L364 255 L364 285 Z" fill="#0000F7" rel="472"></path><path d="M338 270 L364 285 L338 300 Z" fill="#0000F7" rel="473"></path><path d="M338 300 L364 285 L364 315 Z" fill="#0000F7" rel="474"></path><path d="M338 300 L364 315 L338 330 Z" fill="#0000F7" rel="475"></path><path d="M338 330 L364 315 L364 345 Z" fill="#0000F7" rel="476"></path><path d="M338 330 L364 345 L338 360 Z" fill="#0000F7" rel="477"></path><path d="M338 360 L364 345 L364 375 Z" fill="#0000F7" rel="478"></path><path d="M338 360 L364 375 L338 390 Z" fill="#0000F7" rel="479"></path><path d="M338 390 L364 375 L364 405 Z" fill="#0000F7" rel="480"></path><path d="M338 390 L364 405 L338 420 Z" fill="#0000F7" rel="481"></path><path d="M338 420 L364 405 L364 435 Z" fill="#0000F7" rel="482"></path><path d="M338 420 L364 435 L338 450 Z" fill="#0000F7" rel="483"></path><path d="M338 450 L364 435 L364 465 Z" fill="#0000F7" rel="484"></path><path d="M338 450 L364 465 L338 480 Z" fill="#0000F7" rel="485"></path><path d="M364 75 L390 90 L364 105 Z" fill="#0000F7" rel="495"></path><path d="M364 105 L390 90 L390 120 Z" fill="#F4DB05" rel="496"></path><path d="M364 105 L390 120 L364 135 Z" fill="#F4DB05" rel="497"></path><path d="M364 135 L390 120 L390 150 Z" fill="#F4DB05" rel="498"></path><path d="M364 135 L390 150 L364 165 Z" fill="#F4DB05" rel="499"></path><path d="M364 165 L390 150 L390 180 Z" fill="#F4DB05" rel="500"></path><path d="M364 195 L390 180 L390 210 Z" fill="#0000F7" rel="502"></path><path d="M364 195 L390 210 L364 225 Z" fill="#0000F7" rel="503"></path><path d="M364 225 L390 210 L390 240 Z" fill="#0000F7" rel="504"></path><path d="M364 225 L390 240 L364 255 Z" fill="#0000F7" rel="505"></path><path d="M364 255 L390 240 L390 270 Z" fill="#0000F7" rel="506"></path><path d="M364 255 L390 270 L364 285 Z" fill="#0000F7" rel="507"></path><path d="M364 285 L390 270 L390 300 Z" fill="#0000F7" rel="508"></path><path d="M364 285 L390 300 L364 315 Z" fill="#0000F7" rel="509"></path><path d="M364 315 L390 300 L390 330 Z" fill="#0000F7" rel="510"></path><path d="M364 315 L390 330 L364 345 Z" fill="#0000F7" rel="511"></path><path d="M364 345 L390 330 L390 360 Z" fill="#0000F7" rel="512"></path><path d="M364 345 L390 360 L364 375 Z" fill="#0000F7" rel="513"></path><path d="M364 375 L390 360 L390 390 Z" fill="#0000F7" rel="514"></path><path d="M364 375 L390 390 L364 405 Z" fill="#0000F7" rel="515"></path><path d="M364 405 L390 390 L390 420 Z" fill="#0000F7" rel="516"></path><path d="M364 405 L390 420 L364 435 Z" fill="#0000F7" rel="517"></path><path d="M364 435 L390 420 L390 450 Z" fill="#0000F7" rel="518"></path><path d="M364 435 L390 450 L364 465 Z" fill="#0000F7" rel="519"></path><path d="M390 90 L416 105 L390 120 Z" fill="#F4DB05" rel="531"></path><path d="M390 120 L416 105 L416 135 Z" fill="#F4DB05" rel="532"></path><path d="M390 120 L416 135 L390 150 Z" fill="#F4DB05" rel="533"></path><path d="M390 150 L416 135 L416 165 Z" fill="#F4DB05" rel="534"></path><path d="M390 150 L416 165 L390 180 Z" fill="#F4DB05" rel="535"></path><path d="M390 180 L416 165 L416 195 Z" fill="#00E600" rel="536"></path><path d="M390 180 L416 195 L390 210 Z" fill="#00E600" rel="537"></path><path d="M390 210 L416 195 L416 225 Z" fill="#00E600" rel="538"></path><path d="M390 210 L416 225 L390 240 Z" fill="#00E600" rel="539"></path><path d="M390 240 L416 225 L416 255 Z" fill="#00E600" rel="540"></path><path d="M390 240 L416 255 L390 270 Z" fill="#00E600" rel="541"></path><path d="M390 270 L416 255 L416 285 Z" fill="#F3F300" rel="542"></path><path d="M390 270 L416 285 L390 300 Z" fill="#F3F300" rel="543"></path><path d="M390 300 L416 285 L416 315 Z" fill="#F3F300" rel="544"></path><path d="M390 300 L416 315 L390 330 Z" fill="#F3F300" rel="545"></path><path d="M390 330 L416 315 L416 345 Z" fill="#F3F300" rel="546"></path><path d="M390 330 L416 345 L390 360 Z" fill="#F3F300" rel="547"></path><path d="M390 360 L416 345 L416 375 Z" fill="#F30000" rel="548"></path><path d="M390 360 L416 375 L390 390 Z" fill="#F30000" rel="549"></path><path d="M390 390 L416 375 L416 405 Z" fill="#F30000" rel="550"></path><path d="M390 390 L416 405 L390 420 Z" fill="#F30000" rel="551"></path><path d="M390 420 L416 405 L416 435 Z" fill="#F30000" rel="552"></path><path d="M390 420 L416 435 L390 450 Z" fill="#F30000" rel="553"></path><path d="M416 105 L442 120 L416 135 Z" fill="#F4DB05" rel="567"></path><path d="M416 135 L442 120 L442 150 Z" fill="#F4DB05" rel="568"></path><path d="M416 135 L442 150 L416 165 Z" fill="#F4DB05" rel="569"></path><path d="M416 165 L442 150 L442 180 Z" fill="#00E600" rel="570"></path><path d="M416 165 L442 180 L416 195 Z" fill="#00E600" rel="571"></path><path d="M416 195 L442 180 L442 210 Z" fill="#00E600" rel="572"></path><path d="M416 195 L442 210 L416 225 Z" fill="#00E600" rel="573"></path><path d="M416 225 L442 210 L442 240 Z" fill="#00E600" rel="574"></path><path d="M416 225 L442 240 L416 255 Z" fill="#00E600" rel="575"></path><path d="M416 255 L442 240 L442 270 Z" fill="#F3F300" rel="576"></path><path d="M416 255 L442 270 L416 285 Z" fill="#F3F300" rel="577"></path><path d="M416 285 L442 270 L442 300 Z" fill="#F3F300" rel="578"></path><path d="M416 285 L442 300 L416 315 Z" fill="#F3F300" rel="579"></path><path d="M416 315 L442 300 L442 330 Z" fill="#F3F300" rel="580"></path><path d="M416 315 L442 330 L416 345 Z" fill="#F3F300" rel="581"></path><path d="M416 345 L442 330 L442 360 Z" fill="#F30000" rel="582"></path><path d="M416 345 L442 360 L416 375 Z" fill="#F30000" rel="583"></path><path d="M416 375 L442 360 L442 390 Z" fill="#F30000" rel="584"></path><path d="M416 375 L442 390 L416 405 Z" fill="#F30000" rel="585"></path><path d="M416 405 L442 390 L442 420 Z" fill="#F30000" rel="586"></path><path d="M416 405 L442 420 L416 435 Z" fill="#F30000" rel="587"></path><path d="M442 120 L468 135 L442 150 Z" fill="#F4DB05" rel="603"></path><path d="M442 150 L468 135 L468 165 Z" fill="#00E600" rel="604"></path><path d="M442 150 L468 165 L442 180 Z" fill="#00E600" rel="605"></path><path d="M442 180 L468 165 L468 195 Z" fill="#00E600" rel="606"></path><path d="M442 180 L468 195 L442 210 Z" fill="#00E600" rel="607"></path><path d="M442 210 L468 195 L468 225 Z" fill="#00E600" rel="608"></path><path d="M442 210 L468 225 L442 240 Z" fill="#00E600" rel="609"></path><path d="M442 240 L468 225 L468 255 Z" fill="#F3F300" rel="610"></path><path d="M442 240 L468 255 L442 270 Z" fill="#F3F300" rel="611"></path><path d="M442 270 L468 255 L468 285 Z" fill="#F3F300" rel="612"></path><path d="M442 270 L468 285 L442 300 Z" fill="#F3F300" rel="613"></path><path d="M442 300 L468 285 L468 315 Z" fill="#F3F300" rel="614"></path><path d="M442 300 L468 315 L442 330 Z" fill="#F3F300" rel="615"></path><path d="M442 330 L468 315 L468 345 Z" fill="#F30000" rel="616"></path><path d="M442 330 L468 345 L442 360 Z" fill="#F30000" rel="617"></path><path d="M442 360 L468 345 L468 375 Z" fill="#F30000" rel="618"></path><path d="M442 360 L468 375 L442 390 Z" fill="#F30000" rel="619"></path><path d="M442 390 L468 375 L468 405 Z" fill="#F30000" rel="620"></path><path d="M442 390 L468 405 L442 420 Z" fill="#F30000" rel="621"></path></svg>