<svg version="1.1" preserveAspectRatio="xMinYMin slice" xmlns="http://www.w3.org/2000/svg" width="630" height="520" viewBox="0 0 630 520"><!--{"isLandscape":true,"mapWidth":21,"mapHeight":20,"palette":["#11aaff","#0000F7","#F3F300","#F30000","#00E600","#EC7700","#000000"]}--><path d="M165 0 L150 26 L180 26 Z" rel="10"></path><path d="M165 0 L180 26 L195 0 Z" fill="#F3F300" rel="11"></path><path d="M195 0 L180 26 L210 26 Z" fill="#F3F300" rel="12"></path><path d="M195 0 L210 26 L225 0 Z" fill="#F3F300" rel="13"></path><path d="M225 0 L210 26 L240 26 Z" fill="#F3F300" rel="14"></path><path d="M225 0 L240 26 L255 0 Z" fill="#F3F300" rel="15"></path><path d="M255 0 L240 26 L270 26 Z" fill="#F3F300" rel="16"></path><path d="M255 0 L270 26 L285 0 Z" fill="#F3F300" rel="17"></path><path d="M285 0 L270 26 L300 26 Z" fill="#F3F300" rel="18"></path><path d="M285 0 L300 26 L315 0 Z" fill="#F3F300" rel="19"></path><path d="M315 0 L300 26 L330 26 Z" fill="#F3F300" rel="20"></path><path d="M315 0 L330 26 L345 0 Z" fill="#F3F300" rel="21"></path><path d="M345 0 L330 26 L360 26 Z" fill="#F3F300" rel="22"></path><path d="M345 0 L360 26 L375 0 Z" fill="#F3F300" rel="23"></path><path d="M375 0 L360 26 L390 26 Z" fill="#F3F300" rel="24"></path><path d="M375 0 L390 26 L405 0 Z" fill="#F3F300" rel="25"></path><path d="M405 0 L390 26 L420 26 Z" fill="#F3F300" rel="26"></path><path d="M405 0 L420 26 L435 0 Z" fill="#F3F300" rel="27"></path><path d="M435 0 L420 26 L450 26 Z" fill="#F3F300" rel="28"></path><path d="M435 0 L450 26 L465 0 Z" fill="#F3F300" rel="29"></path><path d="M465 0 L450 26 L480 26 Z" fill="#F3F300" rel="30"></path><path d="M150 26 L135 52 L165 52 Z" rel="50"></path><path d="M150 26 L165 52 L180 26 Z" rel="51"></path><path d="M180 26 L165 52 L195 52 Z" rel="52"></path><path d="M180 26 L195 52 L210 26 Z" fill="#F3F300" rel="53"></path><path d="M210 26 L195 52 L225 52 Z" fill="#F3F300" rel="54"></path><path d="M210 26 L225 52 L240 26 Z" fill="#F3F300" rel="55"></path><path d="M240 26 L225 52 L255 52 Z" fill="#F3F300" rel="56"></path><path d="M240 26 L255 52 L270 26 Z" fill="#F3F300" rel="57"></path><path d="M270 26 L255 52 L285 52 Z" fill="#F3F300" rel="58"></path><path d="M270 26 L285 52 L300 26 Z" fill="#F3F300" rel="59"></path><path d="M300 26 L285 52 L315 52 Z" fill="#F3F300" rel="60"></path><path d="M300 26 L315 52 L330 26 Z" fill="#F3F300" rel="61"></path><path d="M330 26 L315 52 L345 52 Z" fill="#F3F300" rel="62"></path><path d="M330 26 L345 52 L360 26 Z" fill="#F3F300" rel="63"></path><path d="M360 26 L345 52 L375 52 Z" fill="#F3F300" rel="64"></path><path d="M360 26 L375 52 L390 26 Z" fill="#F3F300" rel="65"></path><path d="M390 26 L375 52 L405 52 Z" fill="#F3F300" rel="66"></path><path d="M390 26 L405 52 L420 26 Z" fill="#F3F300" rel="67"></path><path d="M420 26 L405 52 L435 52 Z" fill="#F3F300" rel="68"></path><path d="M420 26 L435 52 L450 26 Z" fill="#F3F300" rel="69"></path><path d="M450 26 L435 52 L465 52 Z" fill="#F3F300" rel="70"></path><path d="M450 26 L465 52 L480 26 Z" fill="#F3F300" rel="71"></path><path d="M480 26 L465 52 L495 52 Z" fill="#F3F300" rel="72"></path><path d="M135 52 L120 78 L150 78 Z" rel="90"></path><path d="M135 52 L150 78 L165 52 Z" rel="91"></path><path d="M165 52 L150 78 L180 78 Z" rel="92"></path><path d="M165 52 L180 78 L195 52 Z" rel="93"></path><path d="M195 52 L180 78 L210 78 Z" fill="#0000F7" rel="94"></path><path d="M195 52 L210 78 L225 52 Z" fill="#F3F300" rel="95"></path><path d="M225 52 L210 78 L240 78 Z" fill="#F3F300" rel="96"></path><path d="M225 52 L240 78 L255 52 Z" fill="#F3F300" rel="97"></path><path d="M255 52 L240 78 L270 78 Z" fill="#F3F300" rel="98"></path><path d="M255 52 L270 78 L285 52 Z" fill="#F3F300" rel="99"></path><path d="M285 52 L270 78 L300 78 Z" fill="#F3F300" rel="100"></path><path d="M285 52 L300 78 L315 52 Z" fill="#F3F300" rel="101"></path><path d="M315 52 L300 78 L330 78 Z" fill="#F3F300" rel="102"></path><path d="M315 52 L330 78 L345 52 Z" fill="#F3F300" rel="103"></path><path d="M345 52 L330 78 L360 78 Z" fill="#F3F300" rel="104"></path><path d="M345 52 L360 78 L375 52 Z" fill="#F3F300" rel="105"></path><path d="M375 52 L360 78 L390 78 Z" fill="#F3F300" rel="106"></path><path d="M375 52 L390 78 L405 52 Z" fill="#F3F300" rel="107"></path><path d="M405 52 L390 78 L420 78 Z" rel="108"></path><path d="M405 52 L420 78 L435 52 Z" rel="109"></path><path d="M435 52 L420 78 L450 78 Z" rel="110"></path><path d="M435 52 L450 78 L465 52 Z" fill="#F3F300" rel="111"></path><path d="M465 52 L450 78 L480 78 Z" fill="#F3F300" rel="112"></path><path d="M465 52 L480 78 L495 52 Z" fill="#F3F300" rel="113"></path><path d="M495 52 L480 78 L510 78 Z" fill="#F3F300" rel="114"></path><path d="M120 78 L105 104 L135 104 Z" rel="130"></path><path d="M120 78 L135 104 L150 78 Z" rel="131"></path><path d="M150 78 L135 104 L165 104 Z" rel="132"></path><path d="M150 78 L165 104 L180 78 Z" rel="133"></path><path d="M180 78 L165 104 L195 104 Z" fill="#0000F7" rel="134"></path><path d="M180 78 L195 104 L210 78 Z" fill="#0000F7" rel="135"></path><path d="M210 78 L195 104 L225 104 Z" fill="#0000F7" rel="136"></path><path d="M210 78 L225 104 L240 78 Z" fill="#F3F300" rel="137"></path><path d="M240 78 L225 104 L255 104 Z" fill="#F3F300" rel="138"></path><path d="M240 78 L255 104 L270 78 Z" fill="#F3F300" rel="139"></path><path d="M270 78 L255 104 L285 104 Z" fill="#F3F300" rel="140"></path><path d="M270 78 L285 104 L300 78 Z" fill="#F3F300" rel="141"></path><path d="M300 78 L285 104 L315 104 Z" fill="#F3F300" rel="142"></path><path d="M300 78 L315 104 L330 78 Z" fill="#F3F300" rel="143"></path><path d="M330 78 L315 104 L345 104 Z" fill="#F3F300" rel="144"></path><path d="M330 78 L345 104 L360 78 Z" fill="#F3F300" rel="145"></path><path d="M360 78 L345 104 L375 104 Z" fill="#F3F300" rel="146"></path><path d="M360 78 L375 104 L390 78 Z" fill="#F3F300" rel="147"></path><path d="M390 78 L375 104 L405 104 Z" rel="148"></path><path d="M390 78 L405 104 L420 78 Z" rel="149"></path><path d="M420 78 L405 104 L435 104 Z" rel="150"></path><path d="M420 78 L435 104 L450 78 Z" rel="151"></path><path d="M450 78 L435 104 L465 104 Z" fill="#F3F300" rel="152"></path><path d="M450 78 L465 104 L480 78 Z" fill="#F3F300" rel="153"></path><path d="M480 78 L465 104 L495 104 Z" fill="#F3F300" rel="154"></path><path d="M480 78 L495 104 L510 78 Z" fill="#F3F300" rel="155"></path><path d="M510 78 L495 104 L525 104 Z" rel="156"></path><path d="M105 104 L90 130 L120 130 Z" rel="170"></path><path d="M105 104 L120 130 L135 104 Z" rel="171"></path><path d="M135 104 L120 130 L150 130 Z" rel="172"></path><path d="M135 104 L150 130 L165 104 Z" rel="173"></path><path d="M165 104 L150 130 L180 130 Z" fill="#0000F7" rel="174"></path><path d="M165 104 L180 130 L195 104 Z" fill="#0000F7" rel="175"></path><path d="M195 104 L180 130 L210 130 Z" fill="#0000F7" rel="176"></path><path d="M195 104 L210 130 L225 104 Z" fill="#0000F7" rel="177"></path><path d="M225 104 L210 130 L240 130 Z" fill="#0000F7" rel="178"></path><path d="M225 104 L240 130 L255 104 Z" fill="#F3F300" rel="179"></path><path d="M255 104 L240 130 L270 130 Z" fill="#F3F300" rel="180"></path><path d="M255 104 L270 130 L285 104 Z" fill="#F3F300" rel="181"></path><path d="M285 104 L270 130 L300 130 Z" fill="#F3F300" rel="182"></path><path d="M285 104 L300 130 L315 104 Z" fill="#F3F300" rel="183"></path><path d="M315 104 L300 130 L330 130 Z" fill="#F3F300" rel="184"></path><path d="M315 104 L330 130 L345 104 Z" fill="#F3F300" rel="185"></path><path d="M345 104 L330 130 L360 130 Z" fill="#F3F300" rel="186"></path><path d="M345 104 L360 130 L375 104 Z" fill="#F3F300" rel="187"></path><path d="M375 104 L360 130 L390 130 Z" rel="188"></path><path d="M375 104 L390 130 L405 104 Z" rel="189"></path><path d="M405 104 L390 130 L420 130 Z" rel="190"></path><path d="M405 104 L420 130 L435 104 Z" rel="191"></path><path d="M435 104 L420 130 L450 130 Z" fill="#F3F300" rel="192"></path><path d="M435 104 L450 130 L465 104 Z" fill="#F3F300" rel="193"></path><path d="M465 104 L450 130 L480 130 Z" fill="#F3F300" rel="194"></path><path d="M465 104 L480 130 L495 104 Z" fill="#F3F300" rel="195"></path><path d="M495 104 L480 130 L510 130 Z" rel="196"></path><path d="M495 104 L510 130 L525 104 Z" rel="197"></path><path d="M525 104 L510 130 L540 130 Z" rel="198"></path><path d="M90 130 L75 156 L105 156 Z" rel="210"></path><path d="M90 130 L105 156 L120 130 Z" rel="211"></path><path d="M120 130 L105 156 L135 156 Z" rel="212"></path><path d="M120 130 L135 156 L150 130 Z" rel="213"></path><path d="M150 130 L135 156 L165 156 Z" fill="#0000F7" rel="214"></path><path d="M150 130 L165 156 L180 130 Z" fill="#0000F7" rel="215"></path><path d="M180 130 L165 156 L195 156 Z" fill="#0000F7" rel="216"></path><path d="M180 130 L195 156 L210 130 Z" fill="#0000F7" rel="217"></path><path d="M210 130 L195 156 L225 156 Z" fill="#0000F7" rel="218"></path><path d="M210 130 L225 156 L240 130 Z" fill="#0000F7" rel="219"></path><path d="M240 130 L225 156 L255 156 Z" fill="#0000F7" rel="220"></path><path d="M240 130 L255 156 L270 130 Z" fill="#F3F300" rel="221"></path><path d="M270 130 L255 156 L285 156 Z" fill="#F3F300" rel="222"></path><path d="M270 130 L285 156 L300 130 Z" fill="#F3F300" rel="223"></path><path d="M300 130 L285 156 L315 156 Z" fill="#F3F300" rel="224"></path><path d="M300 130 L315 156 L330 130 Z" fill="#F3F300" rel="225"></path><path d="M330 130 L315 156 L345 156 Z" fill="#F3F300" rel="226"></path><path d="M330 130 L345 156 L360 130 Z" fill="#F3F300" rel="227"></path><path d="M360 130 L345 156 L375 156 Z" rel="228"></path><path d="M360 130 L375 156 L390 130 Z" rel="229"></path><path d="M390 130 L375 156 L405 156 Z" rel="230"></path><path d="M390 130 L405 156 L420 130 Z" rel="231"></path><path d="M420 130 L405 156 L435 156 Z" fill="#F3F300" rel="232"></path><path d="M420 130 L435 156 L450 130 Z" fill="#F3F300" rel="233"></path><path d="M450 130 L435 156 L465 156 Z" fill="#F3F300" rel="234"></path><path d="M450 130 L465 156 L480 130 Z" fill="#F3F300" rel="235"></path><path d="M480 130 L465 156 L495 156 Z" fill="#F3F300" rel="236"></path><path d="M480 130 L495 156 L510 130 Z" rel="237"></path><path d="M510 130 L495 156 L525 156 Z" rel="238"></path><path d="M510 130 L525 156 L540 130 Z" rel="239"></path><path d="M540 130 L525 156 L555 156 Z" rel="240"></path><path d="M75 156 L60 182 L90 182 Z" rel="250"></path><path d="M75 156 L90 182 L105 156 Z" rel="251"></path><path d="M105 156 L90 182 L120 182 Z" rel="252"></path><path d="M105 156 L120 182 L135 156 Z" rel="253"></path><path d="M135 156 L120 182 L150 182 Z" fill="#0000F7" rel="254"></path><path d="M135 156 L150 182 L165 156 Z" fill="#0000F7" rel="255"></path><path d="M165 156 L150 182 L180 182 Z" fill="#0000F7" rel="256"></path><path d="M165 156 L180 182 L195 156 Z" fill="#0000F7" rel="257"></path><path d="M195 156 L180 182 L210 182 Z" fill="#0000F7" rel="258"></path><path d="M195 156 L210 182 L225 156 Z" fill="#0000F7" rel="259"></path><path d="M225 156 L210 182 L240 182 Z" fill="#0000F7" rel="260"></path><path d="M225 156 L240 182 L255 156 Z" fill="#0000F7" rel="261"></path><path d="M255 156 L240 182 L270 182 Z" fill="#0000F7" rel="262"></path><path d="M255 156 L270 182 L285 156 Z" fill="#F3F300" rel="263"></path><path d="M285 156 L270 182 L300 182 Z" fill="#F3F300" rel="264"></path><path d="M285 156 L300 182 L315 156 Z" fill="#F3F300" rel="265"></path><path d="M315 156 L300 182 L330 182 Z" fill="#F3F300" rel="266"></path><path d="M315 156 L330 182 L345 156 Z" fill="#F3F300" rel="267"></path><path d="M345 156 L330 182 L360 182 Z" rel="268"></path><path d="M345 156 L360 182 L375 156 Z" rel="269"></path><path d="M375 156 L360 182 L390 182 Z" rel="270"></path><path d="M375 156 L390 182 L405 156 Z" rel="271"></path><path d="M405 156 L390 182 L420 182 Z" fill="#F3F300" rel="272"></path><path d="M405 156 L420 182 L435 156 Z" fill="#F3F300" rel="273"></path><path d="M435 156 L420 182 L450 182 Z" fill="#F3F300" rel="274"></path><path d="M435 156 L450 182 L465 156 Z" fill="#F3F300" rel="275"></path><path d="M465 156 L450 182 L480 182 Z" fill="#F3F300" rel="276"></path><path d="M465 156 L480 182 L495 156 Z" fill="#F3F300" rel="277"></path><path d="M495 156 L480 182 L510 182 Z" fill="#F3F300" rel="278"></path><path d="M495 156 L510 182 L525 156 Z" rel="279"></path><path d="M525 156 L510 182 L540 182 Z" rel="280"></path><path d="M525 156 L540 182 L555 156 Z" rel="281"></path><path d="M555 156 L540 182 L570 182 Z" rel="282"></path><path d="M60 182 L45 208 L75 208 Z" rel="290"></path><path d="M60 182 L75 208 L90 182 Z" rel="291"></path><path d="M90 182 L75 208 L105 208 Z" rel="292"></path><path d="M90 182 L105 208 L120 182 Z" rel="293"></path><path d="M120 182 L105 208 L135 208 Z" fill="#0000F7" rel="294"></path><path d="M120 182 L135 208 L150 182 Z" fill="#0000F7" rel="295"></path><path d="M150 182 L135 208 L165 208 Z" fill="#0000F7" rel="296"></path><path d="M150 182 L165 208 L180 182 Z" fill="#0000F7" rel="297"></path><path d="M180 182 L165 208 L195 208 Z" fill="#0000F7" rel="298"></path><path d="M180 182 L195 208 L210 182 Z" fill="#0000F7" rel="299"></path><path d="M210 182 L195 208 L225 208 Z" fill="#0000F7" rel="300"></path><path d="M210 182 L225 208 L240 182 Z" fill="#0000F7" rel="301"></path><path d="M240 182 L225 208 L255 208 Z" fill="#0000F7" rel="302"></path><path d="M240 182 L255 208 L270 182 Z" fill="#0000F7" rel="303"></path><path d="M270 182 L255 208 L285 208 Z" fill="#0000F7" rel="304"></path><path d="M270 182 L285 208 L300 182 Z" fill="#F3F300" rel="305"></path><path d="M300 182 L285 208 L315 208 Z" fill="#F3F300" rel="306"></path><path d="M300 182 L315 208 L330 182 Z" fill="#F3F300" rel="307"></path><path d="M330 182 L315 208 L345 208 Z" rel="308"></path><path d="M330 182 L345 208 L360 182 Z" rel="309"></path><path d="M360 182 L345 208 L375 208 Z" rel="310"></path><path d="M360 182 L375 208 L390 182 Z" rel="311"></path><path d="M390 182 L375 208 L405 208 Z" fill="#F3F300" rel="312"></path><path d="M390 182 L405 208 L420 182 Z" fill="#F3F300" rel="313"></path><path d="M420 182 L405 208 L435 208 Z" fill="#F3F300" rel="314"></path><path d="M420 182 L435 208 L450 182 Z" fill="#F3F300" rel="315"></path><path d="M450 182 L435 208 L465 208 Z" fill="#F3F300" rel="316"></path><path d="M450 182 L465 208 L480 182 Z" fill="#F3F300" rel="317"></path><path d="M480 182 L465 208 L495 208 Z" fill="#F3F300" rel="318"></path><path d="M480 182 L495 208 L510 182 Z" fill="#F3F300" rel="319"></path><path d="M510 182 L495 208 L525 208 Z" fill="#F3F300" rel="320"></path><path d="M510 182 L525 208 L540 182 Z" rel="321"></path><path d="M540 182 L525 208 L555 208 Z" rel="322"></path><path d="M540 182 L555 208 L570 182 Z" rel="323"></path><path d="M570 182 L555 208 L585 208 Z" rel="324"></path><path d="M45 208 L30 234 L60 234 Z" rel="330"></path><path d="M45 208 L60 234 L75 208 Z" rel="331"></path><path d="M75 208 L60 234 L90 234 Z" rel="332"></path><path d="M75 208 L90 234 L105 208 Z" rel="333"></path><path d="M105 208 L90 234 L120 234 Z" fill="#0000F7" rel="334"></path><path d="M105 208 L120 234 L135 208 Z" fill="#0000F7" rel="335"></path><path d="M135 208 L120 234 L150 234 Z" fill="#0000F7" rel="336"></path><path d="M135 208 L150 234 L165 208 Z" fill="#0000F7" rel="337"></path><path d="M165 208 L150 234 L180 234 Z" fill="#0000F7" rel="338"></path><path d="M165 208 L180 234 L195 208 Z" fill="#0000F7" rel="339"></path><path d="M195 208 L180 234 L210 234 Z" fill="#0000F7" rel="340"></path><path d="M195 208 L210 234 L225 208 Z" fill="#0000F7" rel="341"></path><path d="M225 208 L210 234 L240 234 Z" fill="#0000F7" rel="342"></path><path d="M225 208 L240 234 L255 208 Z" fill="#0000F7" rel="343"></path><path d="M255 208 L240 234 L270 234 Z" fill="#0000F7" rel="344"></path><path d="M255 208 L270 234 L285 208 Z" fill="#0000F7" rel="345"></path><path d="M285 208 L270 234 L300 234 Z" fill="#0000F7" rel="346"></path><path d="M285 208 L300 234 L315 208 Z" fill="#F3F300" rel="347"></path><path d="M315 208 L300 234 L330 234 Z" rel="348"></path><path d="M315 208 L330 234 L345 208 Z" rel="349"></path><path d="M345 208 L330 234 L360 234 Z" rel="350"></path><path d="M345 208 L360 234 L375 208 Z" rel="351"></path><path d="M375 208 L360 234 L390 234 Z" fill="#F3F300" rel="352"></path><path d="M375 208 L390 234 L405 208 Z" fill="#F3F300" rel="353"></path><path d="M405 208 L390 234 L420 234 Z" fill="#F3F300" rel="354"></path><path d="M405 208 L420 234 L435 208 Z" fill="#F3F300" rel="355"></path><path d="M435 208 L420 234 L450 234 Z" fill="#F3F300" rel="356"></path><path d="M435 208 L450 234 L465 208 Z" fill="#F3F300" rel="357"></path><path d="M465 208 L450 234 L480 234 Z" fill="#F3F300" rel="358"></path><path d="M465 208 L480 234 L495 208 Z" fill="#F3F300" rel="359"></path><path d="M495 208 L480 234 L510 234 Z" fill="#F3F300" rel="360"></path><path d="M495 208 L510 234 L525 208 Z" fill="#F3F300" rel="361"></path><path d="M525 208 L510 234 L540 234 Z" fill="#F3F300" rel="362"></path><path d="M525 208 L540 234 L555 208 Z" rel="363"></path><path d="M555 208 L540 234 L570 234 Z" rel="364"></path><path d="M555 208 L570 234 L585 208 Z" rel="365"></path><path d="M585 208 L570 234 L600 234 Z" rel="366"></path><path d="M30 234 L15 260 L45 260 Z" rel="370"></path><path d="M30 234 L45 260 L60 234 Z" rel="371"></path><path d="M60 234 L45 260 L75 260 Z" rel="372"></path><path d="M60 234 L75 260 L90 234 Z" rel="373"></path><path d="M90 234 L75 260 L105 260 Z" fill="#0000F7" rel="374"></path><path d="M90 234 L105 260 L120 234 Z" fill="#0000F7" rel="375"></path><path d="M120 234 L105 260 L135 260 Z" fill="#0000F7" rel="376"></path><path d="M120 234 L135 260 L150 234 Z" fill="#0000F7" rel="377"></path><path d="M150 234 L135 260 L165 260 Z" fill="#0000F7" rel="378"></path><path d="M150 234 L165 260 L180 234 Z" fill="#0000F7" rel="379"></path><path d="M180 234 L165 260 L195 260 Z" fill="#0000F7" rel="380"></path><path d="M180 234 L195 260 L210 234 Z" fill="#0000F7" rel="381"></path><path d="M210 234 L195 260 L225 260 Z" fill="#0000F7" rel="382"></path><path d="M210 234 L225 260 L240 234 Z" fill="#0000F7" rel="383"></path><path d="M240 234 L225 260 L255 260 Z" fill="#0000F7" rel="384"></path><path d="M240 234 L255 260 L270 234 Z" fill="#0000F7" rel="385"></path><path d="M270 234 L255 260 L285 260 Z" fill="#0000F7" rel="386"></path><path d="M270 234 L285 260 L300 234 Z" fill="#0000F7" rel="387"></path><path d="M300 234 L285 260 L315 260 Z" rel="388"></path><path d="M300 234 L315 260 L330 234 Z" rel="389"></path><path d="M330 234 L315 260 L345 260 Z" rel="390"></path><path d="M330 234 L345 260 L360 234 Z" rel="391"></path><path d="M360 234 L345 260 L375 260 Z" fill="#F3F300" rel="392"></path><path d="M360 234 L375 260 L390 234 Z" fill="#F3F300" rel="393"></path><path d="M390 234 L375 260 L405 260 Z" fill="#F3F300" rel="394"></path><path d="M390 234 L405 260 L420 234 Z" fill="#F3F300" rel="395"></path><path d="M420 234 L405 260 L435 260 Z" fill="#F3F300" rel="396"></path><path d="M420 234 L435 260 L450 234 Z" fill="#F3F300" rel="397"></path><path d="M450 234 L435 260 L465 260 Z" fill="#F3F300" rel="398"></path><path d="M450 234 L465 260 L480 234 Z" fill="#F3F300" rel="399"></path><path d="M480 234 L465 260 L495 260 Z" fill="#F3F300" rel="400"></path><path d="M480 234 L495 260 L510 234 Z" fill="#F3F300" rel="401"></path><path d="M510 234 L495 260 L525 260 Z" fill="#F3F300" rel="402"></path><path d="M510 234 L525 260 L540 234 Z" fill="#F3F300" rel="403"></path><path d="M540 234 L525 260 L555 260 Z" fill="#F3F300" rel="404"></path><path d="M540 234 L555 260 L570 234 Z" rel="405"></path><path d="M570 234 L555 260 L585 260 Z" rel="406"></path><path d="M570 234 L585 260 L600 234 Z" rel="407"></path><path d="M600 234 L585 260 L615 260 Z" rel="408"></path><path d="M15 260 L30 286 L45 260 Z" rel="411"></path><path d="M45 260 L30 286 L60 286 Z" rel="412"></path><path d="M45 260 L60 286 L75 260 Z" rel="413"></path><path d="M75 260 L60 286 L90 286 Z" rel="414"></path><path d="M75 260 L90 286 L105 260 Z" fill="#0000F7" rel="415"></path><path d="M105 260 L90 286 L120 286 Z" fill="#0000F7" rel="416"></path><path d="M105 260 L120 286 L135 260 Z" fill="#0000F7" rel="417"></path><path d="M135 260 L120 286 L150 286 Z" fill="#0000F7" rel="418"></path><path d="M135 260 L150 286 L165 260 Z" fill="#0000F7" rel="419"></path><path d="M165 260 L150 286 L180 286 Z" fill="#0000F7" rel="420"></path><path d="M165 260 L180 286 L195 260 Z" fill="#0000F7" rel="421"></path><path d="M195 260 L180 286 L210 286 Z" fill="#0000F7" rel="422"></path><path d="M195 260 L210 286 L225 260 Z" fill="#0000F7" rel="423"></path><path d="M225 260 L210 286 L240 286 Z" fill="#0000F7" rel="424"></path><path d="M225 260 L240 286 L255 260 Z" fill="#0000F7" rel="425"></path><path d="M255 260 L240 286 L270 286 Z" fill="#0000F7" rel="426"></path><path d="M255 260 L270 286 L285 260 Z" fill="#0000F7" rel="427"></path><path d="M285 260 L270 286 L300 286 Z" rel="428"></path><path d="M285 260 L300 286 L315 260 Z" rel="429"></path><path d="M315 260 L300 286 L330 286 Z" rel="430"></path><path d="M315 260 L330 286 L345 260 Z" rel="431"></path><path d="M345 260 L330 286 L360 286 Z" fill="#F30000" rel="432"></path><path d="M345 260 L360 286 L375 260 Z" fill="#F30000" rel="433"></path><path d="M375 260 L360 286 L390 286 Z" fill="#F30000" rel="434"></path><path d="M375 260 L390 286 L405 260 Z" fill="#F30000" rel="435"></path><path d="M405 260 L390 286 L420 286 Z" fill="#F30000" rel="436"></path><path d="M405 260 L420 286 L435 260 Z" fill="#F30000" rel="437"></path><path d="M435 260 L420 286 L450 286 Z" fill="#F30000" rel="438"></path><path d="M435 260 L450 286 L465 260 Z" fill="#F30000" rel="439"></path><path d="M465 260 L450 286 L480 286 Z" fill="#F30000" rel="440"></path><path d="M465 260 L480 286 L495 260 Z" fill="#F30000" rel="441"></path><path d="M495 260 L480 286 L510 286 Z" fill="#F30000" rel="442"></path><path d="M495 260 L510 286 L525 260 Z" fill="#F30000" rel="443"></path><path d="M525 260 L510 286 L540 286 Z" fill="#F30000" rel="444"></path><path d="M525 260 L540 286 L555 260 Z" fill="#F30000" rel="445"></path><path d="M555 260 L540 286 L570 286 Z" rel="446"></path><path d="M555 260 L570 286 L585 260 Z" rel="447"></path><path d="M585 260 L570 286 L600 286 Z" rel="448"></path><path d="M585 260 L600 286 L615 260 Z" rel="449"></path><path d="M30 286 L45 312 L60 286 Z" rel="453"></path><path d="M60 286 L45 312 L75 312 Z" rel="454"></path><path d="M60 286 L75 312 L90 286 Z" rel="455"></path><path d="M90 286 L75 312 L105 312 Z" rel="456"></path><path d="M90 286 L105 312 L120 286 Z" fill="#0000F7" rel="457"></path><path d="M120 286 L105 312 L135 312 Z" fill="#0000F7" rel="458"></path><path d="M120 286 L135 312 L150 286 Z" fill="#0000F7" rel="459"></path><path d="M150 286 L135 312 L165 312 Z" fill="#0000F7" rel="460"></path><path d="M150 286 L165 312 L180 286 Z" fill="#0000F7" rel="461"></path><path d="M180 286 L165 312 L195 312 Z" fill="#0000F7" rel="462"></path><path d="M180 286 L195 312 L210 286 Z" fill="#0000F7" rel="463"></path><path d="M210 286 L195 312 L225 312 Z" fill="#0000F7" rel="464"></path><path d="M210 286 L225 312 L240 286 Z" fill="#0000F7" rel="465"></path><path d="M240 286 L225 312 L255 312 Z" fill="#0000F7" rel="466"></path><path d="M240 286 L255 312 L270 286 Z" fill="#0000F7" rel="467"></path><path d="M270 286 L255 312 L285 312 Z" rel="468"></path><path d="M270 286 L285 312 L300 286 Z" rel="469"></path><path d="M300 286 L285 312 L315 312 Z" rel="470"></path><path d="M300 286 L315 312 L330 286 Z" rel="471"></path><path d="M330 286 L315 312 L345 312 Z" fill="#F30000" rel="472"></path><path d="M330 286 L345 312 L360 286 Z" fill="#F30000" rel="473"></path><path d="M360 286 L345 312 L375 312 Z" fill="#F30000" rel="474"></path><path d="M360 286 L375 312 L390 286 Z" fill="#F30000" rel="475"></path><path d="M390 286 L375 312 L405 312 Z" fill="#F30000" rel="476"></path><path d="M390 286 L405 312 L420 286 Z" fill="#F30000" rel="477"></path><path d="M420 286 L405 312 L435 312 Z" fill="#F30000" rel="478"></path><path d="M420 286 L435 312 L450 286 Z" fill="#F30000" rel="479"></path><path d="M450 286 L435 312 L465 312 Z" fill="#F30000" rel="480"></path><path d="M450 286 L465 312 L480 286 Z" fill="#F30000" rel="481"></path><path d="M480 286 L465 312 L495 312 Z" fill="#F30000" rel="482"></path><path d="M480 286 L495 312 L510 286 Z" fill="#F30000" rel="483"></path><path d="M510 286 L495 312 L525 312 Z" fill="#F30000" rel="484"></path><path d="M510 286 L525 312 L540 286 Z" fill="#F30000" rel="485"></path><path d="M540 286 L525 312 L555 312 Z" rel="486"></path><path d="M540 286 L555 312 L570 286 Z" rel="487"></path><path d="M570 286 L555 312 L585 312 Z" rel="488"></path><path d="M570 286 L585 312 L600 286 Z" rel="489"></path><path d="M45 312 L60 338 L75 312 Z" rel="495"></path><path d="M75 312 L60 338 L90 338 Z" rel="496"></path><path d="M75 312 L90 338 L105 312 Z" rel="497"></path><path d="M105 312 L90 338 L120 338 Z" rel="498"></path><path d="M105 312 L120 338 L135 312 Z" fill="#0000F7" rel="499"></path><path d="M135 312 L120 338 L150 338 Z" fill="#0000F7" rel="500"></path><path d="M135 312 L150 338 L165 312 Z" fill="#0000F7" rel="501"></path><path d="M165 312 L150 338 L180 338 Z" fill="#0000F7" rel="502"></path><path d="M165 312 L180 338 L195 312 Z" fill="#0000F7" rel="503"></path><path d="M195 312 L180 338 L210 338 Z" fill="#0000F7" rel="504"></path><path d="M195 312 L210 338 L225 312 Z" fill="#0000F7" rel="505"></path><path d="M225 312 L210 338 L240 338 Z" fill="#0000F7" rel="506"></path><path d="M225 312 L240 338 L255 312 Z" fill="#0000F7" rel="507"></path><path d="M255 312 L240 338 L270 338 Z" rel="508"></path><path d="M255 312 L270 338 L285 312 Z" rel="509"></path><path d="M285 312 L270 338 L300 338 Z" rel="510"></path><path d="M285 312 L300 338 L315 312 Z" rel="511"></path><path d="M315 312 L300 338 L330 338 Z" fill="#F30000" rel="512"></path><path d="M315 312 L330 338 L345 312 Z" fill="#F30000" rel="513"></path><path d="M345 312 L330 338 L360 338 Z" fill="#F30000" rel="514"></path><path d="M345 312 L360 338 L375 312 Z" fill="#F30000" rel="515"></path><path d="M375 312 L360 338 L390 338 Z" fill="#F30000" rel="516"></path><path d="M375 312 L390 338 L405 312 Z" fill="#F30000" rel="517"></path><path d="M405 312 L390 338 L420 338 Z" fill="#F30000" rel="518"></path><path d="M405 312 L420 338 L435 312 Z" fill="#F30000" rel="519"></path><path d="M435 312 L420 338 L450 338 Z" fill="#F30000" rel="520"></path><path d="M435 312 L450 338 L465 312 Z" fill="#F30000" rel="521"></path><path d="M465 312 L450 338 L480 338 Z" fill="#F30000" rel="522"></path><path d="M465 312 L480 338 L495 312 Z" fill="#F30000" rel="523"></path><path d="M495 312 L480 338 L510 338 Z" fill="#F30000" rel="524"></path><path d="M495 312 L510 338 L525 312 Z" fill="#F30000" rel="525"></path><path d="M525 312 L510 338 L540 338 Z" rel="526"></path><path d="M525 312 L540 338 L555 312 Z" rel="527"></path><path d="M555 312 L540 338 L570 338 Z" rel="528"></path><path d="M555 312 L570 338 L585 312 Z" rel="529"></path><path d="M60 338 L75 364 L90 338 Z" rel="537"></path><path d="M90 338 L75 364 L105 364 Z" rel="538"></path><path d="M90 338 L105 364 L120 338 Z" rel="539"></path><path d="M120 338 L105 364 L135 364 Z" rel="540"></path><path d="M120 338 L135 364 L150 338 Z" fill="#0000F7" rel="541"></path><path d="M150 338 L135 364 L165 364 Z" fill="#0000F7" rel="542"></path><path d="M150 338 L165 364 L180 338 Z" fill="#0000F7" rel="543"></path><path d="M180 338 L165 364 L195 364 Z" fill="#0000F7" rel="544"></path><path d="M180 338 L195 364 L210 338 Z" fill="#0000F7" rel="545"></path><path d="M210 338 L195 364 L225 364 Z" fill="#0000F7" rel="546"></path><path d="M210 338 L225 364 L240 338 Z" fill="#0000F7" rel="547"></path><path d="M240 338 L225 364 L255 364 Z" rel="548"></path><path d="M240 338 L255 364 L270 338 Z" rel="549"></path><path d="M270 338 L255 364 L285 364 Z" rel="550"></path><path d="M270 338 L285 364 L300 338 Z" rel="551"></path><path d="M300 338 L285 364 L315 364 Z" fill="#F30000" rel="552"></path><path d="M300 338 L315 364 L330 338 Z" fill="#F30000" rel="553"></path><path d="M330 338 L315 364 L345 364 Z" fill="#F30000" rel="554"></path><path d="M330 338 L345 364 L360 338 Z" fill="#F30000" rel="555"></path><path d="M360 338 L345 364 L375 364 Z" fill="#F30000" rel="556"></path><path d="M360 338 L375 364 L390 338 Z" fill="#F30000" rel="557"></path><path d="M390 338 L375 364 L405 364 Z" fill="#F30000" rel="558"></path><path d="M390 338 L405 364 L420 338 Z" fill="#F30000" rel="559"></path><path d="M420 338 L405 364 L435 364 Z" fill="#F30000" rel="560"></path><path d="M420 338 L435 364 L450 338 Z" fill="#F30000" rel="561"></path><path d="M450 338 L435 364 L465 364 Z" fill="#F30000" rel="562"></path><path d="M450 338 L465 364 L480 338 Z" fill="#F30000" rel="563"></path><path d="M480 338 L465 364 L495 364 Z" fill="#F30000" rel="564"></path><path d="M480 338 L495 364 L510 338 Z" fill="#F30000" rel="565"></path><path d="M510 338 L495 364 L525 364 Z" rel="566"></path><path d="M510 338 L525 364 L540 338 Z" rel="567"></path><path d="M540 338 L525 364 L555 364 Z" rel="568"></path><path d="M540 338 L555 364 L570 338 Z" rel="569"></path><path d="M75 364 L90 390 L105 364 Z" rel="579"></path><path d="M105 364 L90 390 L120 390 Z" rel="580"></path><path d="M105 364 L120 390 L135 364 Z" rel="581"></path><path d="M135 364 L120 390 L150 390 Z" rel="582"></path><path d="M135 364 L150 390 L165 364 Z" fill="#0000F7" rel="583"></path><path d="M165 364 L150 390 L180 390 Z" fill="#0000F7" rel="584"></path><path d="M165 364 L180 390 L195 364 Z" fill="#0000F7" rel="585"></path><path d="M195 364 L180 390 L210 390 Z" fill="#0000F7" rel="586"></path><path d="M195 364 L210 390 L225 364 Z" fill="#0000F7" rel="587"></path><path d="M225 364 L210 390 L240 390 Z" rel="588"></path><path d="M225 364 L240 390 L255 364 Z" rel="589"></path><path d="M255 364 L240 390 L270 390 Z" rel="590"></path><path d="M255 364 L270 390 L285 364 Z" rel="591"></path><path d="M285 364 L270 390 L300 390 Z" fill="#F30000" rel="592"></path><path d="M285 364 L300 390 L315 364 Z" fill="#F30000" rel="593"></path><path d="M315 364 L300 390 L330 390 Z" fill="#F30000" rel="594"></path><path d="M315 364 L330 390 L345 364 Z" fill="#F30000" rel="595"></path><path d="M345 364 L330 390 L360 390 Z" fill="#F30000" rel="596"></path><path d="M345 364 L360 390 L375 364 Z" fill="#F30000" rel="597"></path><path d="M375 364 L360 390 L390 390 Z" fill="#F30000" rel="598"></path><path d="M375 364 L390 390 L405 364 Z" fill="#F30000" rel="599"></path><path d="M405 364 L390 390 L420 390 Z" fill="#F30000" rel="600"></path><path d="M405 364 L420 390 L435 364 Z" fill="#F30000" rel="601"></path><path d="M435 364 L420 390 L450 390 Z" fill="#F30000" rel="602"></path><path d="M435 364 L450 390 L465 364 Z" fill="#F30000" rel="603"></path><path d="M465 364 L450 390 L480 390 Z" fill="#F30000" rel="604"></path><path d="M465 364 L480 390 L495 364 Z" fill="#F30000" rel="605"></path><path d="M495 364 L480 390 L510 390 Z" rel="606"></path><path d="M495 364 L510 390 L525 364 Z" rel="607"></path><path d="M525 364 L510 390 L540 390 Z" rel="608"></path><path d="M525 364 L540 390 L555 364 Z" rel="609"></path><path d="M90 390 L105 416 L120 390 Z" rel="621"></path><path d="M120 390 L105 416 L135 416 Z" rel="622"></path><path d="M120 390 L135 416 L150 390 Z" rel="623"></path><path d="M150 390 L135 416 L165 416 Z" fill="#0000F7" rel="624"></path><path d="M150 390 L165 416 L180 390 Z" fill="#0000F7" rel="625"></path><path d="M180 390 L165 416 L195 416 Z" fill="#0000F7" rel="626"></path><path d="M180 390 L195 416 L210 390 Z" fill="#0000F7" rel="627"></path><path d="M210 390 L195 416 L225 416 Z" rel="628"></path><path d="M210 390 L225 416 L240 390 Z" rel="629"></path><path d="M240 390 L225 416 L255 416 Z" rel="630"></path><path d="M240 390 L255 416 L270 390 Z" rel="631"></path><path d="M270 390 L255 416 L285 416 Z" fill="#F30000" rel="632"></path><path d="M270 390 L285 416 L300 390 Z" fill="#F30000" rel="633"></path><path d="M300 390 L285 416 L315 416 Z" fill="#F30000" rel="634"></path><path d="M300 390 L315 416 L330 390 Z" fill="#F30000" rel="635"></path><path d="M330 390 L315 416 L345 416 Z" fill="#F30000" rel="636"></path><path d="M330 390 L345 416 L360 390 Z" fill="#F30000" rel="637"></path><path d="M360 390 L345 416 L375 416 Z" fill="#F30000" rel="638"></path><path d="M360 390 L375 416 L390 390 Z" fill="#F30000" rel="639"></path><path d="M390 390 L375 416 L405 416 Z" fill="#F30000" rel="640"></path><path d="M390 390 L405 416 L420 390 Z" fill="#F30000" rel="641"></path><path d="M420 390 L405 416 L435 416 Z" fill="#F30000" rel="642"></path><path d="M420 390 L435 416 L450 390 Z" fill="#F30000" rel="643"></path><path d="M450 390 L435 416 L465 416 Z" fill="#F30000" rel="644"></path><path d="M450 390 L465 416 L480 390 Z" fill="#F30000" rel="645"></path><path d="M480 390 L465 416 L495 416 Z" rel="646"></path><path d="M480 390 L495 416 L510 390 Z" rel="647"></path><path d="M510 390 L495 416 L525 416 Z" rel="648"></path><path d="M510 390 L525 416 L540 390 Z" rel="649"></path><path d="M105 416 L120 442 L135 416 Z" rel="663"></path><path d="M135 416 L120 442 L150 442 Z" fill="#0000F7" rel="664"></path><path d="M135 416 L150 442 L165 416 Z" fill="#0000F7" rel="665"></path><path d="M165 416 L150 442 L180 442 Z" fill="#0000F7" rel="666"></path><path d="M165 416 L180 442 L195 416 Z" fill="#0000F7" rel="667"></path><path d="M195 416 L180 442 L210 442 Z" rel="668"></path><path d="M195 416 L210 442 L225 416 Z" rel="669"></path><path d="M225 416 L210 442 L240 442 Z" rel="670"></path><path d="M225 416 L240 442 L255 416 Z" rel="671"></path><path d="M255 416 L240 442 L270 442 Z" fill="#F30000" rel="672"></path><path d="M255 416 L270 442 L285 416 Z" fill="#F30000" rel="673"></path><path d="M285 416 L270 442 L300 442 Z" fill="#F30000" rel="674"></path><path d="M285 416 L300 442 L315 416 Z" fill="#F30000" rel="675"></path><path d="M315 416 L300 442 L330 442 Z" fill="#F30000" rel="676"></path><path d="M315 416 L330 442 L345 416 Z" fill="#F30000" rel="677"></path><path d="M345 416 L330 442 L360 442 Z" fill="#F30000" rel="678"></path><path d="M345 416 L360 442 L375 416 Z" fill="#F30000" rel="679"></path><path d="M375 416 L360 442 L390 442 Z" fill="#F30000" rel="680"></path><path d="M375 416 L390 442 L405 416 Z" fill="#F30000" rel="681"></path><path d="M405 416 L390 442 L420 442 Z" fill="#F30000" rel="682"></path><path d="M405 416 L420 442 L435 416 Z" fill="#F30000" rel="683"></path><path d="M435 416 L420 442 L450 442 Z" fill="#F30000" rel="684"></path><path d="M435 416 L450 442 L465 416 Z" fill="#F30000" rel="685"></path><path d="M465 416 L450 442 L480 442 Z" rel="686"></path><path d="M465 416 L480 442 L495 416 Z" rel="687"></path><path d="M495 416 L480 442 L510 442 Z" rel="688"></path><path d="M495 416 L510 442 L525 416 Z" rel="689"></path><path d="M120 442 L135 468 L150 442 Z" fill="#0000F7" rel="705"></path><path d="M150 442 L135 468 L165 468 Z" fill="#0000F7" rel="706"></path><path d="M150 442 L165 468 L180 442 Z" fill="#0000F7" rel="707"></path><path d="M180 442 L165 468 L195 468 Z" fill="#0000F7" rel="708"></path><path d="M180 442 L195 468 L210 442 Z" rel="709"></path><path d="M210 442 L195 468 L225 468 Z" rel="710"></path><path d="M210 442 L225 468 L240 442 Z" rel="711"></path><path d="M240 442 L225 468 L255 468 Z" fill="#F30000" rel="712"></path><path d="M240 442 L255 468 L270 442 Z" fill="#F30000" rel="713"></path><path d="M270 442 L255 468 L285 468 Z" fill="#F30000" rel="714"></path><path d="M270 442 L285 468 L300 442 Z" fill="#F30000" rel="715"></path><path d="M300 442 L285 468 L315 468 Z" fill="#F30000" rel="716"></path><path d="M300 442 L315 468 L330 442 Z" fill="#F30000" rel="717"></path><path d="M330 442 L315 468 L345 468 Z" fill="#F30000" rel="718"></path><path d="M330 442 L345 468 L360 442 Z" fill="#F30000" rel="719"></path><path d="M360 442 L345 468 L375 468 Z" fill="#F30000" rel="720"></path><path d="M360 442 L375 468 L390 442 Z" fill="#F30000" rel="721"></path><path d="M390 442 L375 468 L405 468 Z" fill="#F30000" rel="722"></path><path d="M390 442 L405 468 L420 442 Z" fill="#F30000" rel="723"></path><path d="M420 442 L405 468 L435 468 Z" fill="#F30000" rel="724"></path><path d="M420 442 L435 468 L450 442 Z" fill="#F30000" rel="725"></path><path d="M450 442 L435 468 L465 468 Z" rel="726"></path><path d="M450 442 L465 468 L480 442 Z" rel="727"></path><path d="M480 442 L465 468 L495 468 Z" rel="728"></path><path d="M480 442 L495 468 L510 442 Z" rel="729"></path><path d="M135 468 L150 494 L165 468 Z" fill="#0000F7" rel="747"></path><path d="M165 468 L150 494 L180 494 Z" fill="#0000F7" rel="748"></path><path d="M165 468 L180 494 L195 468 Z" fill="#0000F7" rel="749"></path><path d="M195 468 L180 494 L210 494 Z" fill="#F30000" rel="750"></path><path d="M195 468 L210 494 L225 468 Z" fill="#F30000" rel="751"></path><path d="M225 468 L210 494 L240 494 Z" fill="#F30000" rel="752"></path><path d="M225 468 L240 494 L255 468 Z" fill="#F30000" rel="753"></path><path d="M255 468 L240 494 L270 494 Z" fill="#F30000" rel="754"></path><path d="M255 468 L270 494 L285 468 Z" fill="#F30000" rel="755"></path><path d="M285 468 L270 494 L300 494 Z" fill="#F30000" rel="756"></path><path d="M285 468 L300 494 L315 468 Z" fill="#F30000" rel="757"></path><path d="M315 468 L300 494 L330 494 Z" fill="#F30000" rel="758"></path><path d="M315 468 L330 494 L345 468 Z" fill="#F30000" rel="759"></path><path d="M345 468 L330 494 L360 494 Z" fill="#F30000" rel="760"></path><path d="M345 468 L360 494 L375 468 Z" fill="#F30000" rel="761"></path><path d="M375 468 L360 494 L390 494 Z" fill="#F30000" rel="762"></path><path d="M375 468 L390 494 L405 468 Z" fill="#F30000" rel="763"></path><path d="M405 468 L390 494 L420 494 Z" fill="#F30000" rel="764"></path><path d="M405 468 L420 494 L435 468 Z" fill="#F30000" rel="765"></path><path d="M435 468 L420 494 L450 494 Z" fill="#F30000" rel="766"></path><path d="M435 468 L450 494 L465 468 Z" fill="#F30000" rel="767"></path><path d="M465 468 L450 494 L480 494 Z" fill="#F30000" rel="768"></path><path d="M465 468 L480 494 L495 468 Z" fill="#F30000" rel="769"></path><path d="M150 494 L165 520 L180 494 Z" fill="#0000F7" rel="789"></path><path d="M180 494 L165 520 L195 520 Z" fill="#F30000" rel="790"></path><path d="M180 494 L195 520 L210 494 Z" fill="#F30000" rel="791"></path><path d="M210 494 L195 520 L225 520 Z" fill="#F30000" rel="792"></path><path d="M210 494 L225 520 L240 494 Z" fill="#F30000" rel="793"></path><path d="M240 494 L225 520 L255 520 Z" fill="#F30000" rel="794"></path><path d="M240 494 L255 520 L270 494 Z" fill="#F30000" rel="795"></path><path d="M270 494 L255 520 L285 520 Z" fill="#F30000" rel="796"></path><path d="M270 494 L285 520 L300 494 Z" fill="#F30000" rel="797"></path><path d="M300 494 L285 520 L315 520 Z" fill="#F30000" rel="798"></path><path d="M300 494 L315 520 L330 494 Z" fill="#F30000" rel="799"></path><path d="M330 494 L315 520 L345 520 Z" fill="#F30000" rel="800"></path><path d="M330 494 L345 520 L360 494 Z" fill="#F30000" rel="801"></path><path d="M360 494 L345 520 L375 520 Z" fill="#F30000" rel="802"></path><path d="M360 494 L375 520 L390 494 Z" fill="#F30000" rel="803"></path><path d="M390 494 L375 520 L405 520 Z" fill="#F30000" rel="804"></path><path d="M390 494 L405 520 L420 494 Z" fill="#F30000" rel="805"></path><path d="M420 494 L405 520 L435 520 Z" fill="#F30000" rel="806"></path><path d="M420 494 L435 520 L450 494 Z" fill="#F30000" rel="807"></path><path d="M450 494 L435 520 L465 520 Z" fill="#F30000" rel="808"></path><path d="M450 494 L465 520 L480 494 Z" fill="#F30000" rel="809"></path></svg>