<svg width="19.502mm" height="19.506mm" fill-rule="evenodd" stroke-linejoin="round" stroke-width="28.222" preserveAspectRatio="xMidYMid" version="1.2" viewBox="0 0 1950.2 1950.6" xmlns="http://www.w3.org/2000/svg" xmlns:ooo="http://xml.openoffice.org/svg/export"><defs class="TextShapeIndex"></defs><defs class="EmbeddedBulletChars"></defs><g transform="translate(141.47 76.221)"><g class="Master_Slide"></g></g><g transform="matrix(.50888 0 0 .50888 24.556 24.556)"><g transform="translate(-1704 96.065)"><g class="com.sun.star.drawing.PolyPolygonShape"><rect class="BoundingBox" x="4086" y="2290" width="1003" height="1003" fill="none"/><path d="m5084 3292-995-6-3-994 1002-2z" fill="#808080"/></g><g class="com.sun.star.drawing.PolyPolygonShape"><rect class="BoundingBox" x="3078" y="2286" width="992" height="996" fill="none"/><path d="m4067 3280-989-4 1-989 990-1z" fill="#fff"/></g><rect class="BoundingBox" x="3076" y="1273" width="994" height="994" fill="none"/><path d="m4069 2266-992-3-1-981 989-9z" fill="#808080"/><rect class="BoundingBox" x="4096" y="1271" width="992" height="990" fill="none"/><path d="m5078 2260-982-2v-984l991-3z" fill="#fff"/><g class="com.sun.star.drawing.PolyPolygonShape"><rect class="BoundingBox" x="4094" y="253" width="996" height="992" fill="none"/><path d="m5083 1243-989 1v-990l994-1z" fill="#808080"/></g><g class="com.sun.star.drawing.PolyPolygonShape"><rect class="BoundingBox" x="3072" y="245" width="1010" height="1012" fill="none"/><path d="m4077 1256-1005-1 1-996 1008-14z" fill="#fff"/></g><g class="com.sun.star.drawing.PolyPolygonShape"><rect class="BoundingBox" x="2058" y="245" width="1007" height="1008" fill="none"/><path d="m3058 1252-1e3 -11 5-977 1001-19z" fill="#808080"/></g><g class="com.sun.star.drawing.PolyPolygonShape"><rect class="BoundingBox" x="2052" y="1275" width="1005" height="986" fill="none"/><path d="m3056 2260-1004-2 5-983 989 3z" fill="#fff"/></g><g class="com.sun.star.drawing.PolyPolygonShape"><rect class="BoundingBox" x="2056" y="2290" width="997" height="984" fill="none"/><path d="m3047 3273h-991l4-979 991-4z" fill="#808080"/></g><g class="com.sun.star.drawing.PolyPolygonShape"><rect class="BoundingBox" x="2e3" y="200" width="93" height="3146" fill="none"/></g><g class="com.sun.star.drawing.LineShape"><g fill="none"><rect class="BoundingBox" x="2e3" y="200" width="91" height="3144"/><path d="m2045 3298v-3053" stroke="#000" stroke-linecap="round" stroke-linejoin="miter" stroke-width="90"/></g></g><g class="com.sun.star.drawing.PolyPolygonShape"><rect class="BoundingBox" x="1999" y="3253" width="3147" height="93" fill="none"/></g><g class="com.sun.star.drawing.LineShape"><g fill="none"><rect class="BoundingBox" x="2e3" y="3253" width="3144" height="91"/><path d="m2045 3298h3053" stroke="#000" stroke-linecap="round" stroke-linejoin="miter" stroke-width="90"/></g></g><g class="com.sun.star.drawing.PolyPolygonShape"><rect class="BoundingBox" x="5052" y="200" width="94" height="3146" fill="none"/></g><g class="com.sun.star.drawing.LineShape"><g fill="none"><rect class="BoundingBox" x="5053" y="200" width="91" height="3144"/><path d="m5098 3298v-3053" stroke="#000" stroke-linecap="round" stroke-linejoin="miter" stroke-width="90"/></g></g><g class="com.sun.star.drawing.PolyPolygonShape"><rect class="BoundingBox" x="1999" y="200" width="3147" height="93" fill="none"/></g><g class="com.sun.star.drawing.LineShape"><g fill="none"><rect class="BoundingBox" x="2e3" y="200" width="3144" height="91"/><path d="m2045 245h3053" stroke="#000" stroke-linecap="round" stroke-linejoin="miter" stroke-width="90"/></g></g><g class="com.sun.star.drawing.PolyPolygonShape"><rect class="BoundingBox" x="3018" y="200" width="93" height="3146" fill="none"/></g><g class="com.sun.star.drawing.LineShape"><g fill="none"><rect class="BoundingBox" x="3018" y="245" width="91" height="3054"/><path d="m3063 3298v-3053" stroke="#000" stroke-linejoin="miter" stroke-width="90"/></g></g><g class="com.sun.star.drawing.PolyPolygonShape"><rect class="BoundingBox" x="4036" y="200" width="93" height="3146" fill="none"/></g><rect class="BoundingBox" x="4036" y="245" width="91" height="3054" fill="none"/><path d="m4081 3298v-3053" fill="none" stroke="#000" stroke-linejoin="miter" stroke-width="90"/><g class="com.sun.star.drawing.PolyPolygonShape"><rect class="BoundingBox" x="1999" y="1218" width="3147" height="93" fill="none"/></g><g class="com.sun.star.drawing.LineShape"><g fill="none"><rect class="BoundingBox" x="2045" y="1218" width="3054" height="91"/><path d="m2045 1263h3053" stroke="#000" stroke-linejoin="miter" stroke-width="90"/></g></g><g class="com.sun.star.drawing.PolyPolygonShape"><rect class="BoundingBox" x="1999" y="2236" width="3147" height="93" fill="none"/></g><g fill="none"><rect class="BoundingBox" x="2045" y="2236" width="3054" height="91"/><path d="m2045 2281h3053" stroke="#000" stroke-linejoin="miter" stroke-width="90"/></g></g><g class="com.sun.star.drawing.LineShape" transform="translate(-1704 1118.6)"><g fill="none"><rect class="BoundingBox" x="1754" y="304" width="93" height="893"/><path d="m1800 350v800" stroke="#000" stroke-linecap="round" stroke-linejoin="round" stroke-width="92"/></g></g><g class="com.sun.star.drawing.LineShape" transform="translate(1838.8 1118.6)"><g fill="none"><rect class="BoundingBox" x="1754" y="304" width="93" height="893"/><path d="m1800 350v800" stroke="#000" stroke-linecap="round" stroke-linejoin="round" stroke-width="92"/></g></g><g class="com.sun.star.drawing.LineShape" transform="rotate(90 2159.9 455.87)"><g fill="none"><rect class="BoundingBox" x="1754" y="304" width="93" height="893"/><path d="m1800 350v800" stroke="#000" stroke-linecap="round" stroke-linejoin="round" stroke-width="92"/></g></g><g class="com.sun.star.drawing.LineShape" transform="rotate(90 386.98 2226.5)"><g fill="none"><rect class="BoundingBox" x="1754" y="304" width="93" height="893"/><path d="m1800 350v800" stroke="#000" stroke-linecap="round" stroke-linejoin="round" stroke-width="92"/></g></g></g></svg>
